<svg xmlns="http://www.w3.org/2000/svg" width="22" height="22" viewBox="0 0 22 22" fill="none">
<path d="M10.7417 0C4.80935 0 0 4.80922 0 10.7416C0 16.6742 4.80935 21.483 10.7417 21.483C16.6747 21.483 21.4835 16.6742 21.4835 10.7416C21.4835 4.8096 16.6747 0.000513076 10.7416 0.000513076L10.7417 0ZM15.6678 15.4924C15.4754 15.808 15.0623 15.908 14.7468 15.7143C12.2247 14.1738 9.04982 13.8249 5.31075 14.6792C4.95044 14.7613 4.59129 14.5355 4.5092 14.1751C4.42672 13.8147 4.65157 13.4555 5.01278 13.3734C9.10459 12.4386 12.6144 12.8411 15.4459 14.5714C15.7614 14.7651 15.8615 15.1769 15.6678 15.4924ZM16.9825 12.5676C16.7401 12.9617 16.2245 13.0861 15.8307 12.8436C12.9433 11.0689 8.542 10.5549 5.12681 11.5916C4.6839 11.7254 4.2161 11.4758 4.08167 11.0336C3.94827 10.5907 4.19801 10.1238 4.64016 9.98913C8.54123 8.80546 13.391 9.37883 16.7067 11.4164C17.1005 11.6588 17.225 12.1743 16.9825 12.5676ZM17.0954 9.52198C13.6334 7.46568 7.92156 7.27661 4.61617 8.27981C4.08539 8.44079 3.52408 8.14115 3.36323 7.61037C3.20238 7.07934 3.50176 6.51841 4.03293 6.35705C7.82728 5.20519 14.1349 5.42773 18.1208 7.79393C18.5992 8.07727 18.7557 8.69387 18.4723 9.17065C18.1901 9.64807 17.5718 9.80545 17.0959 9.52198H17.0954Z" fill="#1ED760"/>
</svg>