<svg xmlns="http://www.w3.org/2000/svg" width="20" height="20" viewBox="0 0 20 20" fill="none">
    <path fillRule="evenodd" clipRule="evenodd" d="M1.39203 1.39207C0.0416072 2.7425 0.00120761 4.89135 0 9.10946C3.78007 9.10944 6.14017 7.48659 8.21036 6.06306C9.82765 4.951 11.268 3.96057 13.0702 3.96057C15.7527 3.96057 18.0949 5.85722 19.3368 6.86292C19.5119 7.00473 19.6652 7.12884 19.7945 7.2274C19.7553 4.21999 19.5443 2.52504 18.4113 1.39207C17.0193 6.61011e-07 14.7788 4.60992e-07 10.2977 6.92507e-08L9.5056 0C5.0246 1.11914e-06 2.7841 9.44302e-07 1.39203 1.39207ZM8.9234 19.8033C9.11316 19.8034 9.30719 19.8034 9.50562 19.8034H10.2977H10.2978C10.4962 19.8034 10.6902 19.8034 10.8799 19.8033H8.9234Z" fill="#0077FF"/>
    <path fillRule="evenodd" clipRule="evenodd" d="M3.78256e-05 9.10983C3.78011 9.10981 6.14021 7.48696 8.2104 6.06343C9.82767 4.95137 11.268 3.96094 13.0703 3.96094C15.7527 3.96094 18.0949 5.85759 19.3368 6.86329C19.512 7.0051 19.6652 7.12921 19.7945 7.22777C19.8034 7.91555 19.8034 8.67198 19.8034 9.50602V10.2982C19.8034 14.7792 19.8034 17.0197 18.4114 18.4117C17.0809 19.7422 14.9755 19.8011 10.8798 19.8037H8.92358C4.82793 19.8011 2.72251 19.7422 1.39207 18.4117C-5.66581e-07 17.0197 -3.95646e-07 14.7792 4.22366e-10 10.2982L2.01086e-07 9.50602C2.01086e-07 9.37197 1.99068e-07 9.23992 3.78256e-05 9.10983Z" fill="#F45FFF"/>
    <path d="M15.3516 10.0952C15.3516 9.60575 15.7533 9.20898 16.2427 9.20898C16.7322 9.20898 17.1339 9.60575 17.1339 10.0952V13.6697C17.1339 14.1591 16.7322 14.5559 16.2427 14.5559C15.7533 14.5559 15.3516 14.1591 15.3516 13.6697V10.0952Z" fill="white"/>
    <path d="M12.1797 7.81784C12.1797 7.3284 12.5814 6.93164 13.0708 6.93164C13.5603 6.93164 13.962 7.3284 13.962 7.81784V15.9472C13.962 16.4366 13.5603 16.8334 13.0708 16.8334C12.5814 16.8334 12.1797 16.4366 12.1797 15.9472V7.81784Z" fill="white"/>
    <path d="M9.01562 10.0952C9.01562 9.60575 9.41734 9.20898 9.90678 9.20898C10.3962 9.20898 10.7979 9.60575 10.7979 10.0952V13.6697C10.7979 14.1591 10.3962 14.5559 9.90678 14.5559C9.41734 14.5559 9.01562 14.1591 9.01562 13.6697V10.0952Z" fill="white"/>
    <path d="M5.84375 11.3843C5.84375 10.8948 6.24548 10.498 6.7349 10.498C7.22435 10.498 7.62606 10.8948 7.62606 11.3843V12.3843C7.62606 12.8738 7.22435 13.2705 6.7349 13.2705C6.24548 13.2705 5.84375 12.8738 5.84375 12.3843V11.3843Z" fill="white"/>
    <path d="M2.67969 11.3843C2.67969 10.8948 3.08142 10.498 3.57084 10.498C4.06028 10.498 4.462 10.8948 4.462 11.3843V12.3843C4.462 12.8738 4.06028 13.2705 3.57084 13.2705C3.08142 13.2705 2.67969 12.8738 2.67969 12.3843V11.3843Z" fill="white"/>
</svg>