<svg xmlns="http://www.w3.org/2000/svg" width="23" height="23" viewBox="0 0 23 23" fill="none">
<path d="M4.43199 2.11776C6.07096 0.920766 8.00457 0.184153 10.0303 0V3.33317C8.72276 3.49891 7.48894 3.99613 6.42085 4.78798C5.09494 5.78241 4.10052 7.16356 3.62172 8.74728C3.14292 10.331 3.17975 12.0252 3.73221 13.5905C4.28467 15.1558 5.33434 16.5001 6.71549 17.4209C8.09664 18.3417 9.73561 18.802 11.393 18.7284C13.0504 18.6547 14.6341 18.047 15.9232 16.9973C17.2122 15.9477 18.1146 14.5113 18.5197 12.9091C18.7959 11.7858 18.8328 10.6256 18.6118 9.50231L21.4109 7.25564V7.23722C22.166 9.31815 22.2764 11.5832 21.7424 13.7378C21.1531 16.0397 19.864 18.0838 18.0225 19.5755C16.181 21.0671 13.9159 21.9511 11.5587 22.0616C9.20157 22.172 6.8444 21.5275 4.89238 20.2016C2.92194 18.8757 1.43029 16.9605 0.638436 14.7323C-0.153423 12.504 -0.208668 10.0732 0.472699 7.8081C1.13565 5.5246 2.53522 3.53574 4.43199 2.11776Z" fill="#FCCA00"/>
<path d="M19.2908 3.68223L19.3092 3.71906L17.4309 6.68392C16.7495 5.67108 15.8472 4.84239 14.7791 4.23469V10.9931C14.7791 13.074 13.1033 14.7498 11.0223 14.7498C8.94142 14.7498 7.26562 13.074 7.26562 10.9931C7.26562 8.91218 8.94142 7.23638 11.0223 7.23638C11.7958 7.23638 12.514 7.47578 13.1217 7.88092V0.146484C15.5525 0.625283 17.7071 1.89594 19.2908 3.68223Z" fill="#FC3F1D"/>
</svg>