<svg xmlns="http://www.w3.org/2000/svg" width="1920" height="896" viewBox="0 0 1920 896" fill="none">
<path d="M63.9932 -12.3888C617.32 -18.5972 1170.98 -16.3244 1724.42 -18.5972C1827.24 53.465 1919.6 63.3875 1957.73 197.589C2000.69 348.976 2045.76 405.184 2160.89 510.118C2298.7 635.728 2436.72 757.069 2563 894.819C1345.37 893.156 127.704 893.156 -1090 894.819C-985.732 812.446 -851.197 768.544 -756.685 676.249C-673.092 594.874 -605.853 514.83 -512.782 441.88C-319.489 289.995 -160.009 87.0571 63.9932 -12.3888Z" stroke="#E5E7EB" stroke-width="1.96736" stroke-miterlimit="10"/>
<path d="M-874.484 757.456C-701.147 792.102 -523.375 846.148 -345.492 849.918C-220.326 852.634 -98.9286 820.594 21.4707 790.605C143.422 760.283 264.487 728.853 391.094 732.068C517.702 735.283 641.317 768.765 764.21 796.98C1027.79 857.401 1280.51 847.312 1549.13 839.33C1681.73 835.339 1816.04 840.272 1948.25 829.186C2106.29 815.993 2260.06 769.374 2415.82 742.268" stroke="#E5E7EB" stroke-width="1.96736" stroke-miterlimit="10"/>
<path d="M-705.525 618.872C-563.119 629.682 -417.277 644.371 -274.372 631.178C-135.79 618.373 -1.25582 578.296 134.11 548.03C251.793 521.644 379.177 492.209 499.632 515.879C610.497 537.664 706.506 602.575 804.51 655.236C1033.56 778.518 1264.6 752.964 1518.04 752.243C1647.58 751.855 1778.07 756.345 1907.51 751.19C2052.96 745.646 2177.85 696.478 2313.05 646.256" stroke="#E5E7EB" stroke-width="1.96736" stroke-miterlimit="10"/>
<path d="M-569.455 486.277C-434.144 486 -301.827 488.383 -168.068 464.104C-33.1458 439.769 98.4508 400.135 233.041 374.082C343.241 352.74 456.046 335.279 564.361 373.195C661.756 407.064 741.745 473.306 828.053 527.463C1028.72 653.461 1241.58 625.523 1470.24 630.845C1731.1 636.998 1971.29 652.297 2220.63 564.326" stroke="#E5E7EB" stroke-width="1.96736" stroke-miterlimit="10"/>
<path d="M-448.369 391.217C-184.511 390.552 45.9777 286.228 301.577 238.778C510.169 199.975 658.562 272.536 845.702 350.086C1015.6 420.43 1191.49 408.013 1371.59 423.922C1610.56 445.042 1839.16 464.332 2078.63 435.008" stroke="#E5E7EB" stroke-width="1.96736" stroke-miterlimit="10"/>
<path d="M-343.91 309.178C-109.486 285.786 101.712 176.861 333.253 142.881C523.276 115.165 686.192 191.883 861.746 250.476C1026.6 305.575 1193.84 298.702 1365.18 312.671C1576.77 329.91 1782.59 344.711 1995.17 333.458" stroke="#E5E7EB" stroke-width="1.96736" stroke-miterlimit="10"/>
<path d="M-253.4 227.799C-56.0054 182.511 132.354 81.8454 335.514 63.9961C522.044 47.3664 703.419 121.424 881.247 165.659C1224.93 251.192 1607.86 198.919 1959.74 205.737" stroke="#E5E7EB" stroke-width="1.96736" stroke-miterlimit="10"/>
<path d="M-178.566 146.813C-7.44637 91.3801 162.676 1.24686 345.714 -2.85514C532.632 -7.17888 718.83 58.1207 900.039 94.7615C1236.96 163.11 1582.69 98.9189 1923.43 104.24" stroke="#E5E7EB" stroke-width="1.96736" stroke-miterlimit="10"/>
<path d="M-110.23 75.6393C62.3308 22.5904 234.393 -44.4274 418.041 -30.015C582.343 -17.0992 742.986 24.5305 905.126 51.8587C1223.09 105.573 1548.14 61.3377 1868.82 58.7878" stroke="#E5E7EB" stroke-width="1.96736" stroke-miterlimit="10"/>
<path d="M-46.8281 34.8382C110.711 4.73832 266.532 -23.8096 427.618 -16.6034C585.878 -9.50799 742.53 16.6563 900.014 32.7317C1202.62 63.275 1510.1 37.3325 1813.6 34.5609" stroke="#E5E7EB" stroke-width="1.96736" stroke-miterlimit="10"/>
<path d="M11.6758 11.5032C307.741 -11.1687 598.816 4.24168 894.826 14.3858C1184.29 24.3082 1474.76 13.3326 1764.34 11.7805" stroke="#E5E7EB" stroke-width="1.96736" stroke-miterlimit="10"/>
<path d="M1572.36 -18.0977C1661.61 55.4612 1734.28 74.0311 1756.79 198.089C1767.1 255.129 1761.89 314.22 1783.01 368.932C1810.72 440.384 1875.58 497.203 1926.3 553.023C1981.73 613.999 2035.22 674.975 2085.89 740.163C2127.85 793.988 2188.16 838.556 2225.25 895.097" stroke="#E5E7EB" stroke-width="1.96736" stroke-miterlimit="10"/>
<path d="M1420.57 -17.374C1498.56 59.8988 1560.81 76.0851 1566.69 196.872C1561.8 256.68 1563.82 316.854 1572.73 376.197C1603.13 437.196 1638.26 495.726 1677.78 551.252C1752.44 662.893 1807.99 790.61 1888.7 894.934" stroke="#E5E7EB" stroke-width="1.96736" stroke-miterlimit="10"/>
<path d="M1269.04 -16.6592C1341.1 73.7512 1388.33 93.6514 1376.47 219.261C1365.38 338.552 1383.06 422.754 1419.04 537.721C1456.29 656.901 1493.98 785.781 1553.24 894.872" stroke="#E5E7EB" stroke-width="1.96736" stroke-miterlimit="10"/>
<path d="M1117.64 -15.9873C1162.43 86.1747 1210.88 94.6005 1181.72 217.55C1156.5 324.091 1159.83 418.215 1163.38 527.972C1167.42 652.861 1175.29 778.803 1218.81 895.101" stroke="#E5E7EB" stroke-width="1.96736" stroke-miterlimit="10"/>
<path d="M966.555 -14.9902C971.017 15.126 982.05 43.8918 998.872 69.2672C1002.28 114.18 994.451 159.235 976.09 200.365C947.597 298.924 938.894 390.997 931.744 493.27C922.542 627.306 915.945 763.947 885.347 895.045" stroke="#E5E7EB" stroke-width="1.96736" stroke-miterlimit="10"/>
<path d="M815.644 -14.6548C779.466 116.94 750.048 250.3 727.507 384.903C696.465 564.005 609.38 722.209 553.615 894.881" stroke="#E5E7EB" stroke-width="1.96736" stroke-miterlimit="10"/>
<path d="M664.528 -14.7192C645.459 5.64296 624.229 8.65464 600.836 -5.68389C567.577 10.4654 553.589 37.6089 558.874 75.7464C563.419 110.039 563.419 144.781 558.874 179.073C541.859 217.915 527.542 257.884 516.025 298.696C447.676 506.235 322.011 700.027 222.232 894.65" stroke="#E5E7EB" stroke-width="1.96736" stroke-miterlimit="10"/>
<path d="M513.77 -14.6057C462.717 12.3899 444.923 -37.3331 399.247 -24.1401C342.983 -7.84299 363.438 37.9997 356.065 82.124C341.431 169.208 309.502 231.071 268.759 311.448C208.781 429.63 140.599 541.271 85.1665 661.781C56.896 723.034 37.0511 780.85 -13.0044 828.079C-39.9446 853.633 -78.5256 869.099 -106.852 894.93" stroke="#E5E7EB" stroke-width="1.96736" stroke-miterlimit="10"/>
<path d="M363.789 -13.7171C308.023 6.0723 254.476 -42.5975 203.755 -7.73046C172.768 13.5556 161.571 75.8063 151.538 108.678C120.329 211.283 57.3023 291.605 -4.28315 378.08C-94.3055 504.355 -138.485 606.351 -202.288 748.313C-225.459 799.921 -235.215 833.291 -286.545 857.238C-333.774 879.411 -385.825 872.26 -435.77 894.932" stroke="#E5E7EB" stroke-width="1.96736" stroke-miterlimit="10"/>
<path d="M213.654 -13.7788C158.221 5.51169 93.5317 -3.30205 44.5848 32.8399C-0.980686 66.432 -25.4818 130.567 -54.5284 176.576C-115.504 272.973 -191.779 353.96 -271.547 435.002C-305.915 469.925 -349.984 501.521 -379.862 540.324C-427.922 602.907 -443.387 682.231 -484.574 748.529C-547.6 850.136 -668.72 835.502 -763.51 894.815" stroke="#E5E7EB" stroke-width="1.96736" stroke-miterlimit="10"/>
</svg>