<svg width="448" height="196" viewBox="0 0 448 196" fill="none" xmlns="http://www.w3.org/2000/svg">
<path d="M135.69 152.909C135.69 155.09 133.972 156.885 131.793 156.981L43.4947 160.853C41.1756 160.955 39.24 159.102 39.24 156.781V156.781C39.24 154.599 40.9579 152.805 43.1375 152.709L131.435 148.836C133.754 148.735 135.69 150.587 135.69 152.909V152.909Z" fill="#FFD475"/>
<path d="M281.41 4.81544C281.41 6.94872 279.73 8.70386 277.599 8.79771L205.412 11.9766C203.143 12.0765 201.25 10.2647 201.25 7.99437V7.99437C201.25 5.86108 202.93 4.10594 205.061 4.01209L277.249 0.833162C279.517 0.733281 281.41 2.54513 281.41 4.81544V4.81544Z" fill="#FFD475"/>
<path d="M442.26 74.6372C442.26 76.7697 440.581 78.5244 438.451 78.6189L403.578 80.1656C401.312 80.2661 399.42 78.4561 399.42 76.1879V76.1879C399.42 74.058 401.096 72.3052 403.224 72.2104L438.097 70.6556C440.365 70.5544 442.26 72.3664 442.26 74.6372V74.6372Z" fill="white"/>
<path d="M192.209 194.732C180.829 195.232 171.33 186.142 171.33 174.751V126.969C171.33 116.265 179.757 107.459 190.451 106.988L427.001 96.5787C438.381 96.078 447.88 105.169 447.88 116.559V164.35C447.88 175.054 439.452 183.86 428.759 184.331L192.209 194.732ZM196.923 113.161C186.229 113.63 177.8 122.437 177.8 133.141V167.97C177.8 179.361 187.3 188.452 198.679 187.951L422.289 178.111C432.983 177.641 441.41 168.834 441.41 158.131V123.327C441.41 111.937 431.912 102.847 420.533 103.346L196.923 113.161Z" fill="white"/>
<path d="M316.92 149.83L302.29 150.48V145.77L316.92 145.12V149.83Z" fill="white"/>
<path d="M235.42 161.53L229.2 161.81L223.29 155.2L220.18 151.74L211.15 141.66L217.37 141.39L223.29 147.99L226.4 151.46L235.42 161.53Z" fill="white"/>
<path d="M235.42 140.6L226.4 151.46L223.29 155.2L217.37 162.33L211.15 162.6L220.18 151.74L223.29 147.99L229.2 140.87L235.42 140.6Z" fill="white"/>
<path d="M265.64 160.2L259.42 160.48L253.51 153.87L250.4 150.41L241.38 140.34L247.59 140.06L253.51 146.66L256.62 150.13L265.64 160.2Z" fill="white"/>
<path d="M265.64 139.27L256.62 150.13L253.51 153.87L247.59 161L241.38 161.27L250.4 150.41L253.51 146.66L259.42 139.54L265.64 139.27Z" fill="white"/>
<path d="M295.86 158.87L289.64 159.15L283.73 152.54L280.62 149.08L271.6 139L277.81 138.73L283.73 145.33L286.84 148.8L295.86 158.87Z" fill="white"/>
<path d="M295.86 137.94L286.84 148.8L283.73 152.54L277.81 159.67L271.6 159.94L280.62 149.08L283.73 145.33L289.64 138.21L295.86 137.94Z" fill="white"/>
<path d="M347.61 156.6L341.4 156.87L335.48 150.27L332.37 146.8L323.35 136.73L329.56 136.46L335.48 143.06L338.59 146.53L347.61 156.6Z" fill="white"/>
<path d="M347.61 135.66L338.59 146.53L335.48 150.27L329.56 157.39L323.35 157.66L332.37 146.8L335.48 143.06L341.4 135.94L347.61 135.66Z" fill="white"/>
<path d="M377.83 155.27L371.62 155.54L365.7 148.94L362.59 145.47L353.57 135.4L359.78 135.13L365.7 141.73L368.81 145.2L377.83 155.27Z" fill="white"/>
<path d="M377.83 134.33L368.81 145.2L365.7 148.94L359.78 156.06L353.57 156.34L362.59 145.47L365.7 141.73L371.62 134.61L377.83 134.33Z" fill="white"/>
<path d="M408.06 153.94L401.84 154.21L395.93 147.61L392.81 144.14L383.79 134.07L390 133.8L395.93 140.4L399.03 143.87L408.06 153.94Z" fill="white"/>
<path d="M408.06 133L399.03 143.87L395.93 147.61L390 154.73L383.79 155.01L392.81 144.14L395.93 140.4L401.84 133.28L408.06 133Z" fill="white"/>
<path d="M380.03 101.32C380.03 112.024 371.602 120.831 360.909 121.301L21.7689 136.221C10.3893 136.722 0.889893 127.631 0.889893 116.241V56.6993C0.889893 45.9955 9.31736 37.1891 20.0109 36.7187L359.151 21.7984C370.531 21.2978 380.03 30.3884 380.03 41.7791V101.32Z" fill="#FFD475"/>
<path d="M67.3599 72.35C68.6271 73.0413 69.6686 74.0828 70.3599 75.35C71.0854 76.6944 71.4538 78.2025 71.4299 79.73V80.23C71.4462 81.7949 71.0788 83.3399 70.3599 84.73C69.6641 86.0616 68.6293 87.1861 67.3599 87.99C66.0471 88.8011 64.5426 89.2496 62.9999 89.29L56.6699 89.57V98.09L48.1899 98.46V72.07L62.9999 71.41C64.5117 71.3207 66.0192 71.6457 67.3599 72.35ZM56.6499 83.35L60.1399 83.2C60.8834 83.2138 61.6022 82.9335 62.1399 82.42C62.6053 81.8959 62.8459 81.2099 62.8099 80.51V80.21C62.8356 79.8687 62.7893 79.5259 62.6738 79.2037C62.5584 78.8816 62.3765 78.5873 62.1399 78.34C61.8641 78.111 61.5445 77.9406 61.2007 77.8392C60.8568 77.7377 60.4959 77.7074 60.1399 77.75L56.6499 77.91V83.35Z" fill="#1C1C1C"/>
<path d="M99.6201 82.2699C98.6963 83.6368 97.3726 84.6846 95.8301 85.2699L101.7 96.0599L92.1801 96.4799L87.5001 87.0499L84.3501 87.1899V96.8199L75.8701 97.1899V70.8499L92.0301 70.1399C93.6956 70.0107 95.3662 70.3138 96.8801 71.0199C98.1434 71.6332 99.1899 72.6169 99.8801 73.8399C100.596 75.1408 100.947 76.6109 100.896 78.0948C100.845 79.5787 100.393 81.0212 99.5901 82.2699H99.6201ZM91.6201 76.8699C91.397 76.6548 91.1314 76.4885 90.8405 76.3818C90.5495 76.275 90.2394 76.2301 89.9301 76.2499L84.3601 76.4999V81.3699L89.9301 81.1299C90.2504 81.1183 90.565 81.0423 90.8554 80.9066C91.1457 80.7709 91.4058 80.5781 91.6201 80.3399C92.075 79.8643 92.3231 79.2279 92.3101 78.5699C92.3197 78.2532 92.2623 77.9381 92.1417 77.6451C92.021 77.3522 91.8399 77.088 91.6101 76.8699H91.6201Z" fill="#1C1C1C"/>
<path d="M128.74 71.5501C131.227 73.7701 132.47 77.1034 132.47 81.5501C132.47 85.9967 131.227 89.4401 128.74 91.8801C126.26 94.3134 122.743 95.6467 118.19 95.8801C113.637 96.1134 110.127 95.1134 107.66 92.8801C105.187 90.6801 103.953 87.3467 103.96 82.8801C103.967 78.4134 105.2 74.9634 107.66 72.5301C110.133 70.1101 113.643 68.8001 118.19 68.6001C122.737 68.4001 126.253 69.3834 128.74 71.5501ZM114.05 76.6901C113.053 77.9755 112.549 79.5754 112.63 81.2001V83.6601C112.535 85.2468 113.042 86.811 114.05 88.04C114.583 88.5841 115.232 88.9994 115.95 89.2541C116.667 89.5089 117.434 89.5964 118.19 89.51C118.976 89.5218 119.755 89.3645 120.474 89.0487C121.194 88.733 121.837 88.2662 122.36 87.68C123.366 86.3986 123.877 84.7976 123.8 83.1701V80.7101C123.894 79.117 123.379 77.5477 122.36 76.3201C121.823 75.7735 121.168 75.3576 120.445 75.1045C119.722 74.8513 118.95 74.7677 118.19 74.8601C117.409 74.8487 116.634 75.0063 115.92 75.3222C115.205 75.638 114.567 76.1047 114.05 76.6901Z" fill="#1C1C1C"/>
<path d="M159.71 93.56V84C159.71 82.83 159.71 81.61 159.84 80.37C159.97 79.13 160.03 78.08 160.13 77.23C160.23 76.38 160.3 75.84 160.32 75.61H160.17L155.3 93.7L148.66 93.99L143.75 76.37H143.59L143.8 77.96C143.92 78.78 144.03 79.82 144.13 81.05C144.23 82.28 144.28 83.49 144.28 84.67V94.19L136.5 94.53V68.13L148.5 67.6L152.5 82.66H152.65L156.6 67.26L168.15 66.75V93.15L159.71 93.56Z" fill="#1C1C1C"/>
<path d="M196.93 68.55C199.41 70.77 200.65 74.1033 200.65 78.55C200.65 82.9966 199.41 86.44 196.93 88.88C194.44 91.32 190.93 92.63 186.37 92.88C181.81 93.13 178.31 92.08 175.84 89.88C173.37 87.68 172.14 84.33 172.14 79.88C172.14 75.43 173.37 71.96 175.84 69.53C178.31 67.1 181.84 65.8 186.37 65.6C190.9 65.4 194.44 66.34 196.93 68.55ZM182.23 73.69C181.234 74.9759 180.73 76.5754 180.81 78.2V80.66C180.715 82.2497 181.222 83.8169 182.23 85.05C182.763 85.5922 183.414 86.0056 184.131 86.2586C184.849 86.5116 185.614 86.5976 186.37 86.5099C187.156 86.5217 187.934 86.3644 188.654 86.0486C189.373 85.7329 190.017 85.2661 190.54 84.6799C191.546 83.3985 192.057 81.7975 191.98 80.17V77.71C192.074 76.1169 191.559 74.5476 190.54 73.32C190.003 72.7734 189.348 72.3575 188.625 72.1044C187.902 71.8512 187.13 71.7676 186.37 71.86C185.589 71.8486 184.814 72.0062 184.1 72.3221C183.385 72.6379 182.747 73.1046 182.23 73.69Z" fill="#1C1C1C"/>
<path d="M239.86 66.11C242.127 67.97 243.263 70.7134 243.27 74.34L235.18 74.7C235.263 73.391 234.828 72.1016 233.97 71.11C233.522 70.6669 232.98 70.3293 232.385 70.1217C231.79 69.9141 231.156 69.8418 230.53 69.91C229.806 69.8905 229.088 70.0414 228.433 70.3506C227.778 70.6598 227.205 71.1186 226.76 71.69C225.885 73.0367 225.461 74.6267 225.55 76.23V78.69C225.454 80.2566 225.879 81.8109 226.76 83.11C227.202 83.6474 227.774 84.0633 228.421 84.3188C229.068 84.5742 229.77 84.6607 230.46 84.57C231.144 84.5885 231.824 84.4717 232.463 84.2263C233.101 83.9809 233.685 83.6117 234.18 83.14C234.619 82.6499 234.958 82.0779 235.176 81.4567C235.394 80.8355 235.487 80.1773 235.45 79.52L243.27 79.18C243.27 82.78 242.167 85.59 239.96 87.61C237.753 89.63 234.623 90.7267 230.57 90.9C226.07 91.1 222.663 90.1 220.35 87.9C218.037 85.7 216.88 82.3467 216.88 77.84C216.88 73.34 218.037 69.8867 220.35 67.48C222.663 65.0734 226.07 63.7734 230.57 63.58C234.49 63.4067 237.587 64.25 239.86 66.11Z" fill="#1C1C1C"/>
<path d="M271.51 65.2701C273.99 67.4901 275.23 70.8235 275.23 75.2701C275.23 79.7168 273.99 83.1601 271.51 85.6001C269.03 88.0268 265.513 89.3434 260.96 89.5501C256.407 89.7568 252.897 88.7568 250.43 86.5501C247.957 84.3501 246.723 81.0168 246.73 76.5501C246.737 72.0834 247.97 68.6334 250.43 66.2001C252.897 63.7801 256.407 62.4701 260.96 62.2701C265.513 62.0701 269.03 63.0701 271.51 65.2701ZM256.82 70.4101C255.823 71.6956 255.319 73.2954 255.4 74.9201V77.3801C255.306 78.9697 255.813 80.5366 256.82 81.7701C257.354 82.3124 258.004 82.7258 258.721 82.9788C259.439 83.2318 260.204 83.3177 260.96 83.2301C261.744 83.2417 262.522 83.0843 263.239 82.7685C263.957 82.4527 264.599 81.986 265.12 81.4001C266.126 80.1186 266.638 78.5176 266.56 76.8901V74.4301C266.654 72.8371 266.139 71.2678 265.12 70.0401C264.584 69.495 263.931 69.0799 263.21 68.8268C262.488 68.5738 261.719 68.4893 260.96 68.5801C260.178 68.5661 259.403 68.7225 258.688 69.0385C257.973 69.3546 257.336 69.8226 256.82 70.4101Z" fill="#1C1C1C"/>
<path d="M305.09 74C305.09 82.8 300.47 87.4034 291.23 87.81L279.8 88.31V61.88L291.23 61.37C300.47 60.97 305.09 65.18 305.09 74ZM288.28 81.61L291.08 81.49C294.64 81.33 296.41 79.35 296.41 75.54V73.23C296.41 69.42 294.64 67.6 291.08 67.75L288.28 67.88V81.61Z" fill="#1C1C1C"/>
<path d="M309.65 60.5601L332.48 59.5601V65.8901L318.13 66.5201V70.1701L330.41 69.6301V75.6901L318.13 76.2301V80.2301L332.75 79.5801V86.0001L309.65 87.0001V60.5601Z" fill="#1C1C1C"/>
</svg>
