<svg width="90" height="36" viewBox="0 0 90 36" fill="none" xmlns="http://www.w3.org/2000/svg">
<g clip-path="url(#clip0_3474_58)">
<rect x="29.7847" width="24" height="24" rx="8" fill="#EF4444" fill-opacity="0.2"/>
<path d="M50.7847 12C50.7847 16.9706 46.7552 21 41.7847 21M50.7847 12C50.7847 7.02944 46.7552 3 41.7847 3M50.7847 12H32.7847M41.7847 21C36.8141 21 32.7847 16.9706 32.7847 12M41.7847 21C41.7847 21 45.7847 18 45.7847 12C45.7847 6 41.7847 3 41.7847 3M41.7847 21C41.7847 21 37.7847 18 37.7847 12C37.7847 6 41.7847 3 41.7847 3M32.7847 12C32.7847 7.02944 36.8141 3 41.7847 3" stroke="#EF4444" strokeWidth="1.5"/>
</g>
<g clip-path="url(#clip1_3474_58)">
<rect x="62.7847" y="3" width="24" height="24" rx="8" transform="rotate(30 62.7847 3)" fill="#EF4444" fill-opacity="0.2"/>
<path d="M74.9711 23.8923C72.4859 28.1969 66.9816 29.6718 62.6769 27.1865M74.9711 23.8923C77.4564 19.5877 75.9816 14.0834 71.6769 11.5981M74.9711 23.8923L59.3827 14.8923M62.6769 27.1865C58.3723 24.7013 56.8974 19.1969 59.3827 14.8923M62.6769 27.1865C62.6769 27.1865 67.641 26.5885 70.641 21.3923C73.641 16.1962 71.6769 11.5981 71.6769 11.5981M62.6769 27.1865C62.6769 27.1865 60.7128 22.5885 63.7128 17.3923C66.7128 12.1962 71.6769 11.5981 71.6769 11.5981M59.3827 14.8923C61.868 10.5877 67.3723 9.1128 71.6769 11.5981" stroke="#EF4444" strokeWidth="1.5"/>
</g>
<g clip-path="url(#clip2_3474_58)">
<rect y="15" width="24" height="24" rx="8" transform="rotate(-30 0 15)" fill="#EF4444" fill-opacity="0.2"/>
<path d="M24.1865 14.8923C26.6718 19.1969 25.1969 24.7013 20.8923 27.1865M24.1865 14.8923C21.7012 10.5877 16.1969 9.1128 11.8923 11.5981M24.1865 14.8923L8.59802 23.8923M20.8923 27.1865C16.5876 29.6718 11.0833 28.1969 8.59802 23.8923M20.8923 27.1865C20.8923 27.1865 22.8564 22.5885 19.8564 17.3923C16.8564 12.1962 11.8923 11.5981 11.8923 11.5981M20.8923 27.1865C20.8923 27.1865 15.9281 26.5885 12.9281 21.3923C9.92815 16.1962 11.8923 11.5981 11.8923 11.5981M8.59802 23.8923C6.11274 19.5877 7.58762 14.0834 11.8923 11.5981" stroke="#EF4444" strokeWidth="1.5"/>
</g>
<defs>
<clipPath id="clip0_3474_58">
<rect x="29.7847" width="24" height="24" rx="8" fill="white"/>
</clipPath>
<clipPath id="clip1_3474_58">
<rect x="62.7847" y="3" width="24" height="24" rx="8" transform="rotate(30 62.7847 3)" fill="white"/>
</clipPath>
<clipPath id="clip2_3474_58">
<rect y="15" width="24" height="24" rx="8" transform="rotate(-30 0 15)" fill="white"/>
</clipPath>
</defs>
</svg>
