<svg width="90" height="36" viewBox="0 0 90 36" fill="none" xmlns="http://www.w3.org/2000/svg">
<g clip-path="url(#clip0_3474_58)">
<path d="M41.7847 16H42.7847C43.4513 16 44.7847 15.6 44.7847 14C44.7847 12.4 43.4513 12 42.7847 12H40.7847C40.118 12 38.7847 11.6 38.7847 10C38.7847 8.4 40.118 8 40.7847 8H41.7847M41.7847 16H38.7847M41.7847 16V18M44.7847 8H41.7847M41.7847 8V6M50.7847 12C50.7847 16.9706 46.7552 21 41.7847 21C36.8141 21 32.7847 16.9706 32.7847 12C32.7847 7.02944 36.8141 3 41.7847 3C46.7552 3 50.7847 7.02944 50.7847 12Z" stroke="#34D399" strokeWidth="1.5" strokeLinecap="round" strokeLinejoin="round"/>
<rect x="26.7847" y="-3" width="32" height="32" rx="8" fill="#34D399" fill-opacity="0.2"/>
</g>
<g clip-path="url(#clip1_3474_58)">
<path d="M65.1769 22.8564L66.0429 23.3564C66.6203 23.6897 67.975 24.01 68.775 22.6244C69.575 21.2387 68.6203 20.2256 68.0429 19.8923L66.3109 18.8923C65.7335 18.559 64.7788 17.5459 65.5788 16.1603C66.3788 14.7746 67.7335 15.0949 68.3109 15.4282L69.1769 15.9282M65.1769 22.8564L62.5788 21.3564M65.1769 22.8564L64.1769 24.5885M71.775 17.4282L69.1769 15.9282M69.1769 15.9282L70.1769 14.1962M74.9711 23.8923C72.4859 28.1969 66.9816 29.6718 62.6769 27.1865C58.3723 24.7013 56.8974 19.1969 59.3827 14.8923C61.868 10.5877 67.3723 9.1128 71.6769 11.5981C75.9816 14.0834 77.4564 19.5877 74.9711 23.8923Z" stroke="#34D399" strokeWidth="1.5" strokeLinecap="round" strokeLinejoin="round"/>
<rect x="61.6866" y="-1.09808" width="32" height="32" rx="8" transform="rotate(30 61.6866 -1.09808)" fill="#34D399" fill-opacity="0.2"/>
</g>
<g clip-path="url(#clip2_3474_58)">
<path d="M18.3923 22.8564L19.2583 22.3564C19.8356 22.0231 20.7903 21.01 19.9903 19.6244C19.1903 18.2387 17.8356 18.559 17.2583 18.8923L15.5262 19.8923C14.9489 20.2256 13.5942 20.5459 12.7942 19.1603C11.9942 17.7746 12.9489 16.7615 13.5262 16.4282L14.3923 15.9282M18.3923 22.8564L15.7942 24.3564M18.3923 22.8564L19.3923 24.5885M16.9903 14.4282L14.3923 15.9282M14.3923 15.9282L13.3923 14.1962M24.1865 14.8923C26.6718 19.1969 25.1969 24.7013 20.8923 27.1865C16.5876 29.6718 11.0833 28.1969 8.59802 23.8923C6.11274 19.5877 7.58762 14.0834 11.8923 11.5981C16.1969 9.1128 21.7012 10.5877 24.1865 14.8923Z" stroke="#34D399" strokeWidth="1.5" strokeLinecap="round" strokeLinejoin="round"/>
<rect x="-4.09802" y="13.9019" width="32" height="32" rx="8" transform="rotate(-30 -4.09802 13.9019)" fill="#34D399" fill-opacity="0.2"/>
</g>
<defs>
<clipPath id="clip0_3474_58">
<rect x="29.7847" width="24" height="24" rx="8" fill="white"/>
</clipPath>
<clipPath id="clip1_3474_58">
<rect x="62.7847" y="3" width="24" height="24" rx="8" transform="rotate(30 62.7847 3)" fill="white"/>
</clipPath>
<clipPath id="clip2_3474_58">
<rect y="15" width="24" height="24" rx="8" transform="rotate(-30 0 15)" fill="white"/>
</clipPath>
</defs>
</svg>
