<svg width="90" height="36" viewBox="0 0 90 36" fill="none" xmlns="http://www.w3.org/2000/svg">
<g clip-path="url(#clip0_3474_58)">
<path d="M36.7847 20.25V17.1056C36.7847 16.7107 36.9015 16.3247 37.1206 15.9962L39.0451 13.1094C39.4929 12.4376 39.4929 11.5624 39.0451 10.8906L37.1206 8.00385C36.9015 7.67531 36.7847 7.2893 36.7847 6.89445V3.75M36.7847 20.25C35.5347 20.125 34.7847 20 34.7847 20M36.7847 20.25C38.0347 20.375 39.7847 20.5 41.7847 20.5C43.7847 20.5 45.5347 20.375 46.7847 20.25M36.7847 3.75C35.5347 3.875 34.7847 4 34.7847 4M36.7847 3.75C38.0347 3.625 39.7847 3.5 41.7847 3.5C43.7847 3.5 45.5347 3.625 46.7847 3.75M46.7847 20.25V17.1056C46.7847 16.7107 46.6678 16.3247 46.4488 15.9962L44.5243 13.1094C44.0764 12.4376 44.0764 11.5624 44.5243 10.8906L46.4488 8.00385C46.6678 7.67531 46.7847 7.2893 46.7847 6.89445V3.75M46.7847 20.25C48.0347 20.125 48.7847 20 48.7847 20M46.7847 3.75C48.0347 3.875 48.7847 4 48.7847 4" stroke="#F59E0B" strokeWidth="1.5" strokeLinecap="round" strokeLinejoin="round"/>
<rect x="29.7847" width="24" height="24" rx="8" fill="#F59E0B" fill-opacity="0.2"/>
</g>
<g clip-path="url(#clip1_3474_58)">
<path d="M58.7218 24.037L60.294 21.3138C60.4914 20.9719 60.7857 20.696 61.1396 20.521L64.2497 18.9833C64.9734 18.6254 65.411 17.8675 65.3591 17.0617L65.1358 13.5995C65.1104 13.2054 65.2021 12.8127 65.3996 12.4708L66.9718 9.74759M58.7218 24.037C57.7018 23.3038 57.1147 22.8205 57.1147 22.8205M58.7218 24.037C59.7418 24.7703 61.1949 25.7535 62.9269 26.7535C64.659 27.7535 66.237 28.5203 67.382 29.037M66.9718 9.74759C65.8268 9.23084 65.1147 8.96409 65.1147 8.96409M66.9718 9.74759C68.1168 10.2643 69.6949 11.0311 71.4269 12.0311C73.159 13.0311 74.612 14.0143 75.632 14.7476M67.382 29.037L68.9543 26.3138C69.1517 25.9719 69.2435 25.5791 69.2181 25.1851L68.9948 21.7229C68.9428 20.9171 69.3804 20.1592 70.1042 19.8013L73.2142 18.2636C73.5682 18.0886 73.8624 17.8127 74.0598 17.4708L75.632 14.7476M67.382 29.037C68.5271 29.5537 69.2391 29.8205 69.2391 29.8205M75.632 14.7476C76.6521 15.4808 77.2391 15.9641 77.2391 15.9641" stroke="#F59E0B" strokeWidth="1.5" strokeLinecap="round" strokeLinejoin="round"/>
<rect x="62.7847" y="3" width="24" height="24" rx="8" transform="rotate(30 62.7847 3)" fill="#F59E0B" fill-opacity="0.2"/>
</g>
<g clip-path="url(#clip2_3474_58)">
<path d="M16.1871 29.037L14.6149 26.3138C14.4175 25.9719 14.3257 25.5791 14.3511 25.1851L14.5744 21.7229C14.6264 20.9171 14.1888 20.1592 13.465 19.8013L10.355 18.2636C10.001 18.0886 9.70678 17.8127 9.50935 17.4708L7.93713 14.7476M16.1871 29.037C15.0421 29.5538 14.3301 29.8205 14.3301 29.8205M16.1871 29.037C17.3322 28.5203 18.9102 27.7535 20.6423 26.7535C22.3743 25.7535 23.8273 24.7703 24.8474 24.037M7.93713 14.7476C6.9171 15.4808 6.33008 15.9641 6.33008 15.9641M7.93713 14.7476C8.95716 14.0143 10.4102 13.0311 12.1423 12.0311C13.8743 11.0311 15.4523 10.2643 16.5974 9.7476M24.8474 24.037L23.2751 21.3138C23.0777 20.9719 22.7835 20.696 22.4295 20.521L19.3195 18.9833C18.5957 18.6254 18.1581 17.8675 18.2101 17.0617L18.4334 13.5995C18.4588 13.2055 18.367 12.8127 18.1696 12.4708L16.5974 9.7476M24.8474 24.037C25.8674 23.3038 26.4544 22.8205 26.4544 22.8205M16.5974 9.7476C17.7424 9.23085 18.4544 8.96409 18.4544 8.96409" stroke="#F59E0B" strokeWidth="1.5" strokeLinecap="round" strokeLinejoin="round"/>
<rect y="15" width="24" height="24" rx="8" transform="rotate(-30 0 15)" fill="#F59E0B" fill-opacity="0.2"/>
</g>
<defs>
<clipPath id="clip0_3474_58">
<rect x="29.7847" width="24" height="24" rx="8" fill="white"/>
</clipPath>
<clipPath id="clip1_3474_58">
<rect x="62.7847" y="3" width="24" height="24" rx="8" transform="rotate(30 62.7847 3)" fill="white"/>
</clipPath>
<clipPath id="clip2_3474_58">
<rect y="15" width="24" height="24" rx="8" transform="rotate(-30 0 15)" fill="white"/>
</clipPath>
</defs>
</svg>
