<svg width="862" height="104" viewBox="0 0 862 104" fill="none" xmlns="http://www.w3.org/2000/svg">
<g clip-path="url(#clip0_1_2333)">
<path d="M1.51488 40.0095C1.51488 49.8444 6.24742 55.7572 14.6673 61.7991L0 83.6181H12.1073L28.4715 59.2156L22.7937 55.3403C15.8886 50.7076 12.577 47.0143 12.577 39.3577C12.577 32.4527 17.4035 27.726 26.669 27.726H31.5894V83.6298H42.8453V19.1064H26.575C10.1168 19.1064 1.50901 27.5264 1.50901 40.0095H1.51488Z" fill="#FED42B"/>
<path d="M77.9406 55.3344H63.1852V36.8916H52.1172V83.6181H63.1852V64.0362H77.9406V83.6181H89.1026V36.8916H77.9406V55.3344Z" fill="#FED42B"/>
<path d="M224.643 36.8916H213.487L197.974 58.4581V36.8916H186.906V83.6181H197.974V60.6306L214.239 83.6181H226.822L209.136 58.4581L224.643 36.8916Z" fill="#FED42B"/>
<path d="M248.764 44.8356C253.021 44.8356 257.184 46.3504 259.45 47.6716V38.4003C257.084 37.0733 253.021 36.1279 247.625 36.1279C233.439 36.1279 226.152 46.1567 226.152 60.2486C226.152 75.5736 233.245 84.0874 248.095 84.0874C253.109 84.0874 256.702 83.236 259.444 81.2514V72.1739C256.608 74.1585 253.297 75.3915 248.664 75.3915C240.814 75.3915 237.502 69.4318 237.502 59.9726C237.502 49.9439 241.571 44.8414 248.758 44.8414L248.764 44.8356Z" fill="#FED42B"/>
<path d="M133.844 36.8916H101.685V40.8667C101.685 52.3105 100.928 66.972 97.0522 74.8223H93.5527V93.8347H103.863V83.6181H128.647V93.8347H138.77V74.8223H133.85V36.8916H133.844ZM122.776 74.8223H107.263C110.287 67.7294 111.138 55.0526 111.138 46.9204V45.5934H122.77V74.8223H122.776Z" fill="#FED42B"/>
<path d="M161.27 36.1338C147.935 36.1338 141.5 46.3504 141.5 60.3484C141.5 76.331 149.444 84.0874 163.536 84.0874C170.629 84.0874 175.831 82.5725 179.049 80.4V71.4164C175.644 73.5948 169.872 75.3915 164.482 75.3915C156.367 75.3915 153.273 71.6924 152.891 64.1356H179.425V58.3638C179.425 42.1874 172.332 36.1338 161.264 36.1338H161.27ZM161.082 44.8355C166.66 44.8355 168.269 49.2804 168.269 55.0522V55.9975H152.879C153.143 48.6697 155.792 44.8355 161.082 44.8355Z" fill="#FED42B"/>
<path d="M380.999 40.1972L380.718 38.1186L363.69 34.1435L372.486 21.0909L371.446 19.6758L357.73 26.3871L359.245 8.13221L357.73 7.38064L349.216 22.0362L339.193 0H337.303L339.757 21.5665L314.691 1.60883L312.519 2.17838L331.813 26.3871L293.506 13.6222L291.709 15.6068L325.947 34.9949L278.845 38.97L278.369 41.806L327.368 47.1022L286.413 80.5882L288.304 83.1423L336.827 56.6554L327.274 103.1H330.204L348.934 59.4033L360.284 93.5469L362.269 92.032L358.012 57.7945L375.322 77.3705L376.367 75.3859L363.502 51.1713L381.757 57.6066L381.945 55.6161L366.72 43.4149L380.999 40.1972Z" fill="#FED42B"/>
<path d="M608.9 59.5558C617.561 57.8119 621.724 53.5549 621.724 49.0925C621.724 39.7272 608.671 35.1885 591.456 35.1885C579.63 35.1885 570.74 37.4608 564.593 40.5786V50.7013C569.983 47.8653 578.873 45.1233 588.144 45.1233C594.767 45.1233 598.642 46.5442 598.642 50.1377C598.642 53.7311 595.331 55.152 587.48 55.152H576.7V65.1808H587.386C597.509 65.1808 600.063 66.6017 600.063 70.1952C600.063 73.2249 596.188 75.4914 587.105 75.4914C574.716 75.4914 567.523 71.71 563.172 69.6256V80.0301C566.953 82.3025 575.755 85.0445 589.659 85.0445C611.413 85.0445 623.427 79.3666 623.427 70.1012C623.427 64.1709 618.201 60.8886 608.9 59.5675V59.5558Z" fill="#FED42B"/>
<path d="M550.023 36.8916L534.1 66.4024L516.825 36.8916H491.096L521.722 87.6577L512.474 102.343H525.621L538.58 80.9699L563.17 36.8916H550.023Z" fill="#FED42B"/>
<path d="M443.178 55.7631L427.061 19.1064H399.916V83.6181H410.227V36.1694L431.411 83.6181H443.143L464.046 36.1577V83.6181H487.127V19.1064H458.844L443.178 55.7631Z" fill="#FED42B"/>
<path d="M790.374 36.8916H773.065L748.093 55.4283V36.8916H725.105V83.6181H748.093V64.1301L764.457 83.6181H794.062L767.311 53.6845L790.374 36.8916Z" fill="#FED42B"/>
<path d="M662.396 49.6565H652.937V36.8857H629.855V83.6122H662.296C679.606 83.6122 690.292 77.5585 690.292 66.3026C690.292 56.1799 680.833 49.6565 662.39 49.6565H662.396ZM659.178 73.8712H652.937V59.3976H659.178C664.193 59.3976 667.123 61.7639 667.123 66.5845C667.123 72.1625 664.569 73.8653 659.178 73.8653V73.8712Z" fill="#FED42B"/>
<path d="M839.842 36.986L839.331 42.8576C834.645 38.5185 827.67 36.2285 818.751 36.2285C803.05 36.2285 790.186 44.7424 790.186 60.5371C790.186 76.3318 802.387 84.9396 818.657 84.9396C827.406 84.9396 834.557 82.6085 839.378 78.0933L839.842 83.6126H861.978V36.986H839.842ZM826.408 74.5351C818.557 74.5351 813.731 70.5834 813.731 60.4431C813.731 49.6804 818.745 46.633 826.408 46.633C833.407 46.633 838.991 49.5806 838.991 60.4431C838.991 71.3057 834.264 74.5351 826.408 74.5351Z" fill="#FED42B"/>
<path d="M715.933 36.8916H692.945V83.6181H715.933V36.8916Z" fill="#FED42B"/>
</g>
<defs>
<clipPath id="clip0_1_2333">
<rect width="861.973" height="103.1" fill="white"/>
</clipPath>
</defs>
</svg>
