<?xml version="1.0" encoding="UTF-8" standalone="no"?>
<!-- Created with Inkscape (http://www.inkscape.org/) -->

<svg
   xmlns:dc="http://purl.org/dc/elements/1.1/"
   xmlns:cc="http://creativecommons.org/ns#"
   xmlns:rdf="http://www.w3.org/1999/02/22-rdf-syntax-ns#"
   xmlns:svg="http://www.w3.org/2000/svg"
   xmlns="http://www.w3.org/2000/svg"
   xmlns:xlink="http://www.w3.org/1999/xlink"
   version="1.1"
   width="153.12505"
   height="58.972778"
   id="svg2">
  <defs
     id="defs4">
    <linearGradient
       id="linearGradient3967">
      <stop
         id="stop3969"
         style="stop-color:#0062a6;stop-opacity:1"
         offset="0" />
      <stop
         id="stop3971"
         style="stop-color:#0ba2e0;stop-opacity:0.71764708"
         offset="1" />
    </linearGradient>
    <linearGradient
       x1="511.40256"
       y1="844.53009"
       x2="512.23315"
       y2="834.93365"
       id="linearGradient3973"
       xlink:href="#linearGradient3967"
       gradientUnits="userSpaceOnUse" />
  </defs>
  <metadata
     id="metadata7">
    <rdf:RDF>
      <cc:Work
         rdf:about="">
        <dc:format>image/svg+xml</dc:format>
        <dc:type
           rdf:resource="http://purl.org/dc/dcmitype/StillImage" />
        <dc:title></dc:title>
      </cc:Work>
    </rdf:RDF>
  </metadata>
  <g
     transform="translate(-422.1562,-823.18347)"
     id="layer1">
    <g
       id="text2996"
       style="font-size:13.91742802px;font-style:normal;font-weight:normal;line-height:125%;letter-spacing:0px;word-spacing:0px;fill:url(#linearGradient3973);fill-opacity:1;stroke:none;font-family:Sans;-inkscape-font-specification:Sans">
      <path
         d="m 469.8438,840.07904 0,3.7172 2.20178,0 c 0.73845,0 1.28436,-0.15176 1.63774,-0.4553 0.3579,-0.30807 0.53685,-0.77697 0.53686,-1.4067 -1e-5,-0.63425 -0.17896,-1.10088 -0.53686,-1.39989 -0.35338,-0.30354 -0.89929,-0.45531 -1.63774,-0.45531 l -2.20178,0 m 0,-4.17251 0,3.05803 2.03189,0 c 0.67049,0 1.16884,-0.12458 1.49503,-0.37376 0.33072,-0.2537 0.49608,-0.63878 0.49608,-1.15526 0,-0.51192 -0.16536,-0.89474 -0.49608,-1.14846 -0.32619,-0.25369 -0.82454,-0.38054 -1.49503,-0.38055 l -2.03189,0 m -1.37272,-1.12807 3.50654,0 c 1.04652,10e-6 1.85293,0.21747 2.41924,0.65238 0.5663,0.43493 0.84945,1.05333 0.84946,1.8552 -1e-5,0.62067 -0.14499,1.11449 -0.43492,1.48145 -0.28996,0.36696 -0.71582,0.59575 -1.27758,0.68635 0.67502,0.14498 1.19829,0.44852 1.56979,0.91062 0.37601,0.45757 0.56403,1.03067 0.56403,1.71929 0,0.90608 -0.30807,1.60603 -0.9242,2.09984 -0.61614,0.49382 -1.49278,0.74073 -2.62991,0.74073 l -3.64245,0 0,-10.14586"
         id="path4078"
         style="letter-spacing:1.48000002px" />
      <path
         d="m 483.36564,835.70946 c -0.9967,10e-6 -1.78952,0.3715 -2.37847,1.11448 -0.58443,0.74299 -0.87664,1.75554 -0.87664,3.03764 0,1.27758 0.29221,2.28786 0.87664,3.03085 0.58895,0.74299 1.38177,1.11448 2.37847,1.11448 0.99668,0 1.78497,-0.37149 2.36487,-1.11448 0.58442,-0.74299 0.87663,-1.75327 0.87664,-3.03085 -10e-6,-1.2821 -0.29222,-2.29465 -0.87664,-3.03764 -0.5799,-0.74298 -1.36819,-1.11447 -2.36487,-1.11448 m 0,-1.11448 c 1.42254,1e-5 2.55967,0.47796 3.4114,1.43387 0.8517,0.9514 1.27756,2.22897 1.27757,3.83273 -1e-5,1.59924 -0.42587,2.87681 -1.27757,3.83273 -0.85173,0.95139 -1.98886,1.42708 -3.4114,1.42708 -1.42709,0 -2.56875,-0.47569 -3.425,-1.42708 -0.85172,-0.95139 -1.27757,-2.22896 -1.27757,-3.83273 0,-1.60376 0.42585,-2.88133 1.27757,-3.83273 0.85625,-0.95591 1.99791,-1.43386 3.425,-1.43387"
         id="path4080"
         style="letter-spacing:1.48000002px" />
      <path
         d="m 491.68203,834.77846 1.37271,0 0,8.9906 4.94042,0 0,1.15526 -6.31313,0 0,-10.14586"
         id="path4082"
         style="letter-spacing:1.48000002px" />
      <path
         d="m 500.90903,834.77846 1.37272,0 0,8.9906 4.94041,0 0,1.15526 -6.31313,0 0,-10.14586"
         id="path4084"
         style="letter-spacing:1.48000002px" />
      <path
         d="m 506.89453,834.77846 1.47465,0 2.81338,4.17251 2.793,-4.17251 1.47465,0 -3.58808,5.31417 0,4.83169 -1.37951,0 0,-4.83169 -3.58809,-5.31417"
         id="path4086"
         style="letter-spacing:1.48000002px" />
      <path
         d="m 517.37193,834.77846 1.38631,0 2.13382,8.57607 2.12703,-8.57607 1.54261,0 2.13382,8.57607 2.12703,-8.57607 1.3931,0 -2.54836,10.14586 -1.72608,0 -2.14062,-8.80713 -2.16101,8.80713 -1.72609,0 -2.54156,-10.14586"
         id="path4088"
         style="letter-spacing:1.48000002px" />
      <path
         d="m 537.62822,835.70946 c -0.99669,10e-6 -1.78951,0.3715 -2.37846,1.11448 -0.58443,0.74299 -0.87664,1.75554 -0.87664,3.03764 0,1.27758 0.29221,2.28786 0.87664,3.03085 0.58895,0.74299 1.38177,1.11448 2.37846,1.11448 0.99669,0 1.78498,-0.37149 2.36488,-1.11448 0.58441,-0.74299 0.87662,-1.75327 0.87663,-3.03085 -10e-6,-1.2821 -0.29222,-2.29465 -0.87663,-3.03764 -0.5799,-0.74298 -1.36819,-1.11447 -2.36488,-1.11448 m 0,-1.11448 c 1.42254,1e-5 2.55968,0.47796 3.4114,1.43387 0.85171,0.9514 1.27757,2.22897 1.27758,3.83273 -10e-6,1.59924 -0.42587,2.87681 -1.27758,3.83273 -0.85172,0.95139 -1.98886,1.42708 -3.4114,1.42708 -1.42708,0 -2.56874,-0.47569 -3.42499,-1.42708 -0.85172,-0.95139 -1.27758,-2.22896 -1.27758,-3.83273 0,-1.60376 0.42586,-2.88133 1.27758,-3.83273 0.85625,-0.95591 1.99791,-1.43386 3.42499,-1.43387"
         id="path4090"
         style="letter-spacing:1.48000002px" />
      <path
         d="m 550.06276,835.70946 c -0.99669,10e-6 -1.78951,0.3715 -2.37846,1.11448 -0.58443,0.74299 -0.87664,1.75554 -0.87664,3.03764 0,1.27758 0.29221,2.28786 0.87664,3.03085 0.58895,0.74299 1.38177,1.11448 2.37846,1.11448 0.99669,0 1.78498,-0.37149 2.36488,-1.11448 0.58441,-0.74299 0.87662,-1.75327 0.87663,-3.03085 -10e-6,-1.2821 -0.29222,-2.29465 -0.87663,-3.03764 -0.5799,-0.74298 -1.36819,-1.11447 -2.36488,-1.11448 m 0,-1.11448 c 1.42254,1e-5 2.55968,0.47796 3.4114,1.43387 0.85171,0.9514 1.27757,2.22897 1.27758,3.83273 -1e-5,1.59924 -0.42587,2.87681 -1.27758,3.83273 -0.85172,0.95139 -1.98886,1.42708 -3.4114,1.42708 -1.42708,0 -2.56875,-0.47569 -3.42499,-1.42708 -0.85172,-0.95139 -1.27758,-2.22896 -1.27758,-3.83273 0,-1.60376 0.42586,-2.88133 1.27758,-3.83273 0.85624,-0.95591 1.99791,-1.43386 3.42499,-1.43387"
         id="path4092"
         style="letter-spacing:1.48000002px" />
      <path
         d="m 559.75187,835.90653 0,7.88971 1.65813,0 c 1.39989,0 2.42377,-0.31712 3.07162,-0.95138 0.65237,-0.63426 0.97856,-1.63548 0.97857,-3.00367 -10e-6,-1.35911 -0.3262,-2.35354 -0.97857,-2.98327 -0.64785,-0.63425 -1.67173,-0.95138 -3.07162,-0.95139 l -1.65813,0 m -1.37271,-1.12807 2.82018,0 c 1.96619,10e-6 3.40913,0.41001 4.32881,1.23 0.91966,0.81549 1.3795,2.09306 1.37951,3.83273 -10e-6,1.74875 -0.46211,3.03312 -1.38631,3.85312 -0.92421,0.82 -2.36488,1.23001 -4.32201,1.23001 l -2.82018,0 0,-10.14586"
         id="path4094"
         style="letter-spacing:1.48000002px" />
    </g>
    <g
       id="text2996-1"
       style="font-size:25.67750931px;font-style:normal;font-weight:bold;line-height:125%;letter-spacing:0px;word-spacing:0px;fill:#0062a6;fill-opacity:1;stroke:none;font-family:Sans;-inkscape-font-specification:Trebuchet MS Bold">
      <path
         d="m 471.89348,860.55713 0,-8.27498 c -1e-5,-0.82749 -0.25912,-1.49199 -0.77734,-1.99352 -0.51824,-0.5015 -1.19529,-0.75226 -2.03113,-0.75227 -0.51824,1e-5 -1.04065,0.14211 -1.56724,0.42629 -0.52659,0.27584 -0.90273,0.59347 -1.1284,0.95288 l 0,9.6416 -3.18461,0 0,-18.43064 3.18461,-0.75227 0,6.60745 c 0.81077,-0.73554 1.92664,-1.10332 3.3476,-1.10333 1.68006,10e-6 2.984,0.46809 3.91181,1.40424 0.92779,0.92781 1.39169,2.261 1.3917,3.99957 l 0,8.27498 -3.147,0"
         id="path4063"
         style="font-variant:normal;font-stretch:normal;fill:#0062a6;font-family:Trebuchet MS;-inkscape-font-specification:Trebuchet MS Bold" />
      <path
         d="m 487.10189,860.56967 0,-1.12841 c -0.44301,0.37614 -1.05319,0.69794 -1.83053,0.96541 -0.77735,0.26748 -1.49201,0.40122 -2.14397,0.40122 -3.11774,0 -4.67662,-1.655 -4.67661,-4.96499 l 0,-8.7138 3.13446,0 0,8.47558 c -10e-6,1.72187 0.77316,2.5828 2.3195,2.5828 0.71047,0 1.3708,-0.18389 1.98098,-0.55167 0.61016,-0.36777 1.01555,-0.79406 1.21617,-1.27886 l 0,-9.22785 3.13446,0 0,13.44057 -3.13446,0"
         id="path4065"
         style="font-variant:normal;font-stretch:normal;fill:#0062a6;font-family:Trebuchet MS;-inkscape-font-specification:Trebuchet MS Bold" />
      <path
         d="m 502.28522,860.55713 0,-7.76093 c -10e-6,-1.14511 -0.22151,-1.98097 -0.6645,-2.50757 -0.43466,-0.52658 -1.14931,-0.78987 -2.14398,-0.78988 -0.45972,10e-6 -0.95288,0.12957 -1.47946,0.38867 -0.51824,0.25913 -0.92363,0.58093 -1.21617,0.96542 l 0,9.70429 -3.13446,0 0,-13.42803 2.25681,0 0.57674,1.25378 c 0.85257,-1.00301 2.11053,-1.50453 3.77389,-1.50454 1.59648,10e-6 2.85444,0.48063 3.77389,1.44185 0.92779,0.95289 1.39169,2.28608 1.3917,3.99957 l 0,8.23737 -3.13446,0"
         id="path4067"
         style="font-variant:normal;font-stretch:normal;fill:#0062a6;font-family:Trebuchet MS;-inkscape-font-specification:Trebuchet MS Bold" />
      <path
         d="m 95.28125,22.90625 -1.21875,1.4375 c -0.81079,-0.45135 -1.82763,-0.68748 -3.03125,-0.6875 -1.53798,2e-5 -2.82183,0.49299 -3.875,1.4375 -1.05318,0.93617 -1.59375,2.12483 -1.59375,3.5625 0,1.82217 0.78288,3.22409 2.3125,4.21875 -0.47644,0.20061 -0.89059,0.51122 -1.25,0.9375 -0.35942,0.42629 -0.5625,0.8695 -0.5625,1.3125 0,1.54633 1.09349,2.3125 3.25,2.3125 0.35106,0 0.86873,-0.0414 1.5625,-0.125 0.69375,-0.08358 1.21143,-0.125 1.5625,-0.125 1.29557,0 1.93749,0.39343 1.9375,1.1875 -3e-6,0.141021 -0.0094,0.283436 -0.0625,0.40625 l 3.125,0 c 0.01907,-0.160119 0.03125,-0.330739 0.03125,-0.5 -1e-5,-2.44906 -1.54288,-3.65624 -4.59375,-3.65625 -0.43465,1e-5 -0.95233,0.06212 -1.5625,0.1875 C 90.70232,34.93787 90.25911,35 90,35 c -0.57674,0 -0.84375,-0.16565 -0.84375,-0.5 0,-0.19224 0.17801,-0.38697 0.5625,-0.5625 0.39285,-0.18393 0.629,-0.28125 0.6875,-0.28125 l 0.5,0.09375 c 0.37613,0.0418 0.68057,0.06251 0.90625,0.0625 1.42095,1e-5 2.60344,-0.46392 3.53125,-1.375 0.93615,-0.91944 1.40624,-2.15788 1.40625,-3.6875 -1e-5,-1.06989 -0.26303,-1.99554 -0.78125,-2.78125 l 1.5,-1.09375 -2.1875,-1.96875 z M 91.1875,26.25 c 0.68539,10e-6 1.26121,0.21943 1.6875,0.6875 0.43464,0.46809 0.65624,1.04171 0.65625,1.71875 -1e-5,0.81914 -0.22379,1.46943 -0.625,1.9375 -0.40121,0.46809 -0.97485,0.68751 -1.71875,0.6875 -0.74392,10e-6 -1.33826,-0.21106 -1.78125,-0.6875 -0.43465,-0.48479 -0.62501,-1.14343 -0.625,-1.9375 -1e-5,-0.71047 0.20488,-1.29863 0.65625,-1.75 0.45136,-0.45136 1.03116,-0.65624 1.75,-0.65625 z"
         transform="translate(422.1562,823.18347)"
         id="path4069"
         style="font-variant:normal;font-stretch:normal;fill:#0062a6;font-family:Trebuchet MS;-inkscape-font-specification:Trebuchet MS Bold" />
      <path
         d="m 529.15383,859.21558 c -0.2842,0.46808 -0.78154,0.85257 -1.49201,1.15348 -0.70212,0.29255 -1.43767,0.43883 -2.20666,0.43883 -1.44603,0 -2.5828,-0.35942 -3.41029,-1.07826 -0.8275,-0.72719 -1.24125,-1.75529 -1.24125,-3.08431 0,-1.55469 0.58092,-2.77086 1.74276,-3.64851 1.1702,-0.87764 2.82937,-1.31647 4.97753,-1.31648 0.36777,10e-6 0.80241,0.0627 1.30393,0.18807 0,-1.57976 -0.99885,-2.36964 -2.99654,-2.36965 -1.17856,10e-6 -2.16487,0.19644 -2.95893,0.58928 l -0.67705,-2.43234 c 1.07826,-0.51822 2.36129,-0.77734 3.84912,-0.77735 2.04784,10e-6 3.5482,0.46809 4.50109,1.40424 0.95286,0.92781 1.4293,2.69146 1.42931,5.29097 l 0,2.87117 c -10e-6,1.78873 0.35941,2.91296 1.07826,3.37268 -0.25913,0.45136 -0.5475,0.72719 -0.86511,0.82749 -0.31764,0.10866 -0.68124,0.163 -1.0908,0.163 -0.45137,0 -0.85676,-0.16718 -1.21617,-0.50152 -0.35942,-0.33434 -0.60182,-0.69794 -0.72719,-1.09079 m -0.30091,-4.97753 c -0.53496,-0.10865 -0.93617,-0.16298 -1.20363,-0.16299 -2.47414,10e-6 -3.71121,0.81079 -3.71121,2.43234 0,1.20364 0.69794,1.80546 2.09382,1.80545 1.88067,10e-6 2.82101,-0.94033 2.82102,-2.82101 l 0,-1.25379"
         id="path4071"
         style="font-variant:normal;font-stretch:normal;fill:#0062a6;font-family:Trebuchet MS;-inkscape-font-specification:Trebuchet MS Bold" />
      <path
         d="m 550.91953,860.55713 0,-8.4129 c -2e-5,-1.76364 -0.7899,-2.64547 -2.36965,-2.64548 -0.4681,10e-6 -0.91946,0.13793 -1.35409,0.41375 -0.43466,0.27584 -0.73974,0.59347 -0.91526,0.95287 l 0,9.69176 -3.13446,0 0,-8.90187 c -10e-6,-0.66032 -0.2048,-1.18273 -0.61436,-1.56723 -0.40958,-0.39284 -0.98632,-0.58927 -1.73022,-0.58928 -0.39286,10e-6 -0.82333,0.14628 -1.2914,0.43882 -0.45973,0.29256 -0.79407,0.61437 -1.00303,0.96542 l 0,9.65414 -3.13446,0 0,-13.42803 2.15651,0 0.63943,1.17855 c 0.86929,-0.95286 1.99351,-1.4293 3.37268,-1.42931 1.78037,10e-6 3.12192,0.48481 4.02465,1.45439 0.39284,-0.44299 0.94033,-0.79405 1.64246,-1.05318 0.7021,-0.26746 1.40422,-0.4012 2.10636,-0.40121 1.49616,10e-6 2.658,0.43048 3.48552,1.2914 0.83583,0.85258 1.25376,2.02696 1.25378,3.52313 l 0,8.86426 -3.13446,0"
         id="path4073"
         style="font-variant:normal;font-stretch:normal;fill:#0062a6;font-family:Trebuchet MS;-inkscape-font-specification:Trebuchet MS Bold" />
      <path
         d="m 564.91176,859.21558 c -0.2842,0.46808 -0.78153,0.85257 -1.492,1.15348 -0.70213,0.29255 -1.43768,0.43883 -2.20666,0.43883 -1.44604,0 -2.5828,-0.35942 -3.4103,-1.07826 -0.82749,-0.72719 -1.24124,-1.75529 -1.24124,-3.08431 0,-1.55469 0.58092,-2.77086 1.74276,-3.64851 1.17019,-0.87764 2.82937,-1.31647 4.97752,-1.31648 0.36777,10e-6 0.80242,0.0627 1.30394,0.18807 -10e-6,-1.57976 -0.99886,-2.36964 -2.99655,-2.36965 -1.17856,10e-6 -2.16487,0.19644 -2.95893,0.58928 l -0.67704,-2.43234 c 1.07825,-0.51822 2.36129,-0.77734 3.84912,-0.77735 2.04784,10e-6 3.5482,0.46809 4.50108,1.40424 0.95287,0.92781 1.42931,2.69146 1.42932,5.29097 l 0,2.87117 c -1e-5,1.78873 0.3594,2.91296 1.07825,3.37268 -0.25913,0.45136 -0.5475,0.72719 -0.86511,0.82749 -0.31764,0.10866 -0.68123,0.163 -1.09079,0.163 -0.45137,0 -0.85676,-0.16718 -1.21617,-0.50152 -0.35943,-0.33434 -0.60183,-0.69794 -0.7272,-1.09079 m -0.30091,-4.97753 c -0.53495,-0.10865 -0.93616,-0.16298 -1.20363,-0.16299 -2.47414,10e-6 -3.71121,0.81079 -3.7112,2.43234 -10e-6,1.20364 0.69793,1.80546 2.09382,1.80545 1.88067,10e-6 2.82101,-0.94033 2.82101,-2.82101 l 0,-1.25379"
         id="path4075"
         style="font-variant:normal;font-stretch:normal;fill:#0062a6;font-family:Trebuchet MS;-inkscape-font-specification:Trebuchet MS Bold" />
    </g>
    <text
       x="564.888"
       y="890.10577"
       id="text2996-1-7"
       xml:space="preserve"
       style="font-size:16.60490608px;font-style:normal;font-weight:normal;line-height:125%;letter-spacing:0px;word-spacing:0px;fill:#000000;fill-opacity:1;stroke:none;font-family:Sans;-inkscape-font-specification:Sans"><tspan
         x="564.888"
         y="890.10577"
         id="tspan2998-5-1"
         style="font-style:normal;font-variant:normal;font-weight:normal;font-stretch:normal;font-family:Trebuchet MS;-inkscape-font-specification:Trebuchet MS" /></text>
    <g
       transform="translate(0,-4)"
       id="text2996-12"
       style="font-size:8.52855682px;font-style:normal;font-weight:normal;line-height:125%;letter-spacing:0px;word-spacing:0px;fill:#0062a6;fill-opacity:1;stroke:none;font-family:Sans;-inkscape-font-specification:Sans">
      <path
         d="m 467.54277,872.80068 c 0,-0.56357 -0.1166,-1.00499 -0.3498,-1.32426 -0.23043,-0.32204 -0.54831,-0.48306 -0.95364,-0.48306 -0.40533,0 -0.72459,0.16102 -0.95779,0.48306 -0.23043,0.31927 -0.34564,0.76069 -0.34564,1.32426 0,0.56357 0.11521,1.00638 0.34564,1.32842 0.2332,0.31927 0.55246,0.4789 0.95779,0.4789 0.40533,0 0.72321,-0.15963 0.95364,-0.4789 0.2332,-0.32204 0.3498,-0.76485 0.3498,-1.32842 m -2.60687,-1.62826 c 0.16102,-0.27762 0.36368,-0.48306 0.60799,-0.61632 0.24708,-0.13603 0.54136,-0.20405 0.88284,-0.20405 0.56635,0 1.02581,0.22488 1.37839,0.67462 0.35536,0.44975 0.53303,1.04109 0.53304,1.77401 -1e-5,0.73292 -0.17768,1.32426 -0.53304,1.774 -0.35258,0.44975 -0.81204,0.67463 -1.37839,0.67463 -0.34148,0 -0.63576,-0.0666 -0.88284,-0.19989 -0.24431,-0.13604 -0.44697,-0.34287 -0.60799,-0.62049 l 0,0.69961 -0.7704,0 0,-6.4797 0.7704,0 0,2.52358"
         id="path4022" />
      <path
         d="m 471.4156,871.00168 c -0.41088,1e-5 -0.7357,0.16103 -0.97445,0.48307 -0.23876,0.31927 -0.35814,0.75791 -0.35813,1.31593 -10e-6,0.55802 0.11798,0.99805 0.35396,1.32009 0.23876,0.31927 0.56496,0.4789 0.97862,0.4789 0.4081,0 0.73153,-0.16102 0.97029,-0.48306 0.23875,-0.32204 0.35813,-0.76069 0.35814,-1.31593 -1e-5,-0.55247 -0.11939,-0.98972 -0.35814,-1.31177 -0.23876,-0.32481 -0.56219,-0.48722 -0.97029,-0.48723 m 0,-0.64963 c 0.66629,0 1.18961,0.21655 1.56996,0.64963 0.38033,0.4331 0.57051,1.03276 0.57051,1.799 0,0.76346 -0.19018,1.36312 -0.57051,1.79899 -0.38035,0.43309 -0.90367,0.64964 -1.56996,0.64964 -0.66907,0 -1.19377,-0.21655 -1.57412,-0.64964 -0.37756,-0.43587 -0.56635,-1.03553 -0.56635,-1.79899 0,-0.76624 0.18879,-1.3659 0.56635,-1.799 0.38035,-0.43308 0.90505,-0.64963 1.57412,-0.64963"
         id="path4024" />
      <path
         d="m 474.82203,868.64884 0.76624,0 0,6.4797 -0.76624,0 0,-6.4797"
         id="path4026" />
      <path
         d="m 477.18737,868.64884 0.76624,0 0,6.4797 -0.76624,0 0,-6.4797"
         id="path4028" />
      <path
         d="m 481.49329,875.56163 c -0.21655,0.55524 -0.42754,0.91754 -0.63298,1.08689 -0.20544,0.16935 -0.48029,0.25402 -0.82454,0.25403 l -0.61215,0 0,-0.64131 0.44975,0 c 0.21099,0 0.37478,-0.05 0.49139,-0.14992 0.1166,-0.0999 0.24569,-0.33592 0.38728,-0.70793 l 0.13742,-0.34981 -1.88644,-4.58909 0.81204,0 1.45752,3.64795 1.45752,-3.64795 0.81204,0 -2.04885,5.09714"
         id="path4030" />
      <path
         d="m 484.1543,870.46449 0.76624,0 0.9578,3.63962 0.95363,-3.63962 0.90366,0 0.9578,3.63962 0.95363,-3.63962 0.76624,0 -1.22015,4.66405 -0.90366,0 -1.00361,-3.82286 -1.00777,3.82286 -0.90366,0 -1.22015,-4.66405"
         id="path4032" />
      <path
         d="m 493.38663,871.00168 c -0.41088,1e-5 -0.7357,0.16103 -0.97445,0.48307 -0.23876,0.31927 -0.35814,0.75791 -0.35814,1.31593 0,0.55802 0.11799,0.99805 0.35397,1.32009 0.23876,0.31927 0.56496,0.4789 0.97862,0.4789 0.4081,0 0.73153,-0.16102 0.97029,-0.48306 0.23875,-0.32204 0.35813,-0.76069 0.35813,-1.31593 0,-0.55247 -0.11938,-0.98972 -0.35813,-1.31177 -0.23876,-0.32481 -0.56219,-0.48722 -0.97029,-0.48723 m 0,-0.64963 c 0.66629,0 1.18961,0.21655 1.56995,0.64963 0.38034,0.4331 0.57051,1.03276 0.57052,1.799 -1e-5,0.76346 -0.19018,1.36312 -0.57052,1.79899 -0.38034,0.43309 -0.90366,0.64964 -1.56995,0.64964 -0.66907,0 -1.19378,-0.21655 -1.57412,-0.64964 -0.37756,-0.43587 -0.56635,-1.03553 -0.56635,-1.79899 0,-0.76624 0.18879,-1.3659 0.56635,-1.799 0.38034,-0.43308 0.90505,-0.64963 1.57412,-0.64963"
         id="path4034" />
      <path
         d="m 498.60038,871.00168 c -0.41088,1e-5 -0.7357,0.16103 -0.97445,0.48307 -0.23876,0.31927 -0.35814,0.75791 -0.35814,1.31593 0,0.55802 0.11799,0.99805 0.35397,1.32009 0.23875,0.31927 0.56496,0.4789 0.97862,0.4789 0.4081,0 0.73153,-0.16102 0.97029,-0.48306 0.23875,-0.32204 0.35813,-0.76069 0.35813,-1.31593 0,-0.55247 -0.11938,-0.98972 -0.35813,-1.31177 -0.23876,-0.32481 -0.56219,-0.48722 -0.97029,-0.48723 m 0,-0.64963 c 0.66629,0 1.18961,0.21655 1.56995,0.64963 0.38034,0.4331 0.57051,1.03276 0.57052,1.799 -1e-5,0.76346 -0.19018,1.36312 -0.57052,1.79899 -0.38034,0.43309 -0.90366,0.64964 -1.56995,0.64964 -0.66907,0 -1.19378,-0.21655 -1.57412,-0.64964 -0.37757,-0.43587 -0.56635,-1.03553 -0.56635,-1.79899 0,-0.76624 0.18878,-1.3659 0.56635,-1.799 0.38034,-0.43308 0.90505,-0.64963 1.57412,-0.64963"
         id="path4036" />
      <path
         d="m 505.07592,871.17242 0,-2.52358 0.76624,0 0,6.4797 -0.76624,0 0,-0.69961 c -0.16103,0.27762 -0.36508,0.48445 -0.61216,0.62049 -0.24431,0.13326 -0.53859,0.19989 -0.88284,0.19989 -0.56357,0 -1.02304,-0.22488 -1.37839,-0.67463 -0.35258,-0.44974 -0.52887,-1.04108 -0.52887,-1.774 0,-0.73292 0.17629,-1.32426 0.52887,-1.77401 0.35535,-0.44974 0.81482,-0.67462 1.37839,-0.67462 0.34425,0 0.63853,0.068 0.88284,0.20405 0.24708,0.13326 0.45113,0.3387 0.61216,0.61632 m -2.61104,1.62826 c 0,0.56357 0.11521,1.00638 0.34564,1.32842 0.2332,0.31927 0.55247,0.4789 0.9578,0.4789 0.40532,0 0.72459,-0.15963 0.95779,-0.4789 0.2332,-0.32204 0.3498,-0.76485 0.34981,-1.32842 -10e-6,-0.56357 -0.11661,-1.00499 -0.34981,-1.32426 -0.2332,-0.32204 -0.55247,-0.48306 -0.95779,-0.48306 -0.40533,0 -0.7246,0.16102 -0.9578,0.48306 -0.23043,0.31927 -0.34564,0.76069 -0.34564,1.32426"
         id="path4038" />
      <path
         d="m 511.29743,872.31345 0,2.81509 -0.76623,0 0,-2.7901 c -1e-5,-0.44142 -0.0861,-0.77179 -0.25819,-0.99112 -0.17213,-0.21931 -0.43032,-0.32897 -0.77457,-0.32898 -0.41366,1e-5 -0.73986,0.13188 -0.97862,0.39561 -0.23875,0.26375 -0.35813,0.62327 -0.35813,1.07857 l 0,2.63602 -0.7704,0 0,-6.4797 0.7704,0 0,2.54024 c 0.18323,-0.28039 0.39839,-0.49 0.64547,-0.62881 0.24986,-0.13881 0.5372,-0.20822 0.86202,-0.20822 0.53581,0 0.94113,0.16658 1.21598,0.49972 0.27485,0.33037 0.41227,0.8176 0.41227,1.46168"
         id="path4040" />
      <path
         d="m 512.75495,873.2879 0,-2.82341 0.76624,0 0,2.79426 c 0,0.44142 0.0861,0.77318 0.25819,0.99528 0.17212,0.21932 0.43031,0.32898 0.77456,0.32898 0.41366,0 0.73986,-0.13187 0.97862,-0.39561 0.24153,-0.26374 0.3623,-0.62326 0.3623,-1.07856 l 0,-2.64435 0.76624,0 0,4.66405 -0.76624,0 0,-0.71627 c -0.18601,0.28318 -0.40256,0.49417 -0.64964,0.63298 -0.24431,0.13604 -0.52887,0.20406 -0.85369,0.20406 -0.53581,0 -0.94252,-0.16658 -1.22015,-0.49972 -0.27762,-0.33315 -0.41643,-0.82038 -0.41643,-1.46169 m 1.92809,-2.93585 0,0"
         id="path4042" />
      <path
         d="m 522.1247,872.31345 0,2.81509 -0.76623,0 0,-2.7901 c -10e-6,-0.44142 -0.0861,-0.77179 -0.25819,-0.99112 -0.17213,-0.21931 -0.43032,-0.32897 -0.77457,-0.32898 -0.41366,1e-5 -0.73986,0.13188 -0.97862,0.39561 -0.23875,0.26375 -0.35813,0.62327 -0.35813,1.07857 l 0,2.63602 -0.7704,0 0,-4.66405 0.7704,0 0,0.72459 c 0.18323,-0.28039 0.39839,-0.49 0.64547,-0.62881 0.24986,-0.13881 0.5372,-0.20822 0.86202,-0.20822 0.53581,0 0.94114,0.16658 1.21599,0.49972 0.27484,0.33037 0.41226,0.8176 0.41226,1.46168"
         id="path4044" />
      <path
         d="m 526.73046,872.74238 c -10e-6,-0.55525 -0.11522,-0.98556 -0.34564,-1.29095 -0.22766,-0.30538 -0.54831,-0.45807 -0.96197,-0.45807 -0.41088,0 -0.73153,0.15269 -0.96196,0.45807 -0.22765,0.30539 -0.34147,0.7357 -0.34147,1.29095 0,0.55247 0.11382,0.98139 0.34147,1.28678 0.23043,0.30538 0.55108,0.45807 0.96196,0.45807 0.41366,0 0.73431,-0.15269 0.96197,-0.45807 0.23042,-0.30539 0.34563,-0.73431 0.34564,-1.28678 m 0.76623,1.80732 c 0,0.794 -0.17629,1.38394 -0.52887,1.76984 -0.35258,0.38867 -0.89256,0.583 -1.61992,0.58301 -0.2693,-10e-6 -0.52332,-0.0208 -0.76208,-0.0625 -0.23875,-0.0389 -0.47057,-0.0999 -0.69544,-0.18323 l 0,-0.74542 c 0.22487,0.12216 0.44697,0.21238 0.66629,0.27069 0.21932,0.0583 0.44281,0.0874 0.67046,0.0874 0.50249,0 0.87867,-0.13187 1.12853,-0.39561 0.24986,-0.26097 0.37479,-0.65658 0.3748,-1.18684 l 0,-0.37895 c -0.15825,0.27484 -0.36092,0.48028 -0.608,0.61632 -0.24708,0.13603 -0.54275,0.20405 -0.887,0.20405 -0.5719,0 -1.03276,-0.21793 -1.38256,-0.6538 -0.3498,-0.43587 -0.52471,-1.01332 -0.52471,-1.73236 0,-0.72182 0.17491,-1.30066 0.52471,-1.73653 0.3498,-0.43586 0.81066,-0.6538 1.38256,-0.6538 0.34425,0 0.63992,0.068 0.887,0.20405 0.24708,0.13604 0.44975,0.34148 0.608,0.61632 l 0,-0.70793 0.76623,0 0,4.08521"
         id="path4046" />
      <path
         d="m 531.19463,872.78402 c -0.6191,0 -1.04803,0.0708 -1.28678,0.21238 -0.23876,0.14159 -0.35814,0.38312 -0.35814,0.7246 0,0.27207 0.0888,0.48861 0.26652,0.64963 0.18045,0.15825 0.42476,0.23737 0.73292,0.23737 0.42476,0 0.76485,-0.14992 1.02027,-0.44975 0.25818,-0.30261 0.38728,-0.70377 0.38728,-1.20349 l 0,-0.17074 -0.76207,0 m 1.52831,-0.31649 0,2.66101 -0.76624,0 0,-0.70794 c -0.17491,0.28318 -0.39284,0.49278 -0.6538,0.62882 -0.26097,0.13326 -0.58023,0.19989 -0.9578,0.19989 -0.47751,0 -0.85785,-0.13326 -1.14103,-0.39978 -0.2804,-0.26929 -0.42059,-0.62881 -0.42059,-1.07856 0,-0.52471 0.1749,-0.92032 0.5247,-1.18684 0.35258,-0.26651 0.87729,-0.39977 1.57412,-0.39977 l 1.0744,0 0,-0.075 c 0,-0.35258 -0.11661,-0.62465 -0.34981,-0.81621 -0.23042,-0.19433 -0.55524,-0.2915 -0.97445,-0.29151 -0.26652,1e-5 -0.5261,0.0319 -0.77873,0.0958 -0.25264,0.0639 -0.49556,0.15964 -0.72876,0.28734 l 0,-0.70793 c 0.2804,-0.10827 0.55247,-0.18878 0.81621,-0.24153 0.26374,-0.0555 0.52054,-0.0833 0.7704,-0.0833 0.67462,0 1.17851,0.17491 1.51166,0.5247 0.33314,0.34981 0.49971,0.88007 0.49972,1.59078"
         id="path4048" />
      <path
         d="m 537.93668,871.35982 c 0.19155,-0.34425 0.42059,-0.59827 0.68711,-0.76208 0.26652,-0.16379 0.58023,-0.24569 0.94114,-0.24569 0.48584,0 0.86063,0.17074 1.12437,0.51221 0.26374,0.3387 0.39561,0.82177 0.39562,1.44919 l 0,2.81509 -0.77041,0 0,-2.7901 c 0,-0.44697 -0.0791,-0.77873 -0.23736,-0.99528 -0.15825,-0.21654 -0.39979,-0.32481 -0.7246,-0.32482 -0.397,1e-5 -0.71072,0.13188 -0.94114,0.39561 -0.23043,0.26375 -0.34564,0.62327 -0.34564,1.07857 l 0,2.63602 -0.7704,0 0,-2.7901 c 0,-0.44975 -0.0791,-0.78151 -0.23737,-0.99528 -0.15824,-0.21654 -0.40255,-0.32481 -0.73292,-0.32482 -0.39145,1e-5 -0.70238,0.13326 -0.93281,0.39978 -0.23043,0.26374 -0.34564,0.62188 -0.34564,1.0744 l 0,2.63602 -0.7704,0 0,-4.66405 0.7704,0 0,0.72459 c 0.1749,-0.28595 0.38451,-0.49694 0.62882,-0.63298 0.2443,-0.13603 0.53442,-0.20405 0.87034,-0.20405 0.3387,0 0.62604,0.0861 0.86202,0.25819 0.23875,0.17213 0.41504,0.42199 0.52887,0.74958"
         id="path4050" />
      <path
         d="m 544.73704,872.78402 c -0.6191,0 -1.04803,0.0708 -1.28678,0.21238 -0.23876,0.14159 -0.35814,0.38312 -0.35813,0.7246 -10e-6,0.27207 0.0888,0.48861 0.26651,0.64963 0.18046,0.15825 0.42476,0.23737 0.73293,0.23737 0.42476,0 0.76484,-0.14992 1.02026,-0.44975 0.25818,-0.30261 0.38728,-0.70377 0.38728,-1.20349 l 0,-0.17074 -0.76207,0 m 1.52831,-0.31649 0,2.66101 -0.76624,0 0,-0.70794 c -0.1749,0.28318 -0.39284,0.49278 -0.6538,0.62882 -0.26097,0.13326 -0.58023,0.19989 -0.9578,0.19989 -0.47751,0 -0.85785,-0.13326 -1.14102,-0.39978 -0.2804,-0.26929 -0.4206,-0.62881 -0.4206,-1.07856 0,-0.52471 0.1749,-0.92032 0.5247,-1.18684 0.35258,-0.26651 0.87729,-0.39977 1.57412,-0.39977 l 1.0744,0 0,-0.075 c 0,-0.35258 -0.1166,-0.62465 -0.3498,-0.81621 -0.23043,-0.19433 -0.55525,-0.2915 -0.97446,-0.29151 -0.26652,1e-5 -0.52609,0.0319 -0.77873,0.0958 -0.25264,0.0639 -0.49555,0.15964 -0.72876,0.28734 l 0,-0.70793 c 0.2804,-0.10827 0.55247,-0.18878 0.81621,-0.24153 0.26374,-0.0555 0.52054,-0.0833 0.7704,-0.0833 0.67462,0 1.17851,0.17491 1.51166,0.5247 0.33314,0.34981 0.49971,0.88007 0.49972,1.59078"
         id="path4052" />
      <path
         d="m 547.95607,874.0708 0.87868,0 0,1.05774 -0.87868,0 0,-1.05774"
         id="path4054" />
      <path
         d="m 553.91939,870.64355 0,0.71627 c -0.21655,-0.11938 -0.43448,-0.20822 -0.6538,-0.26652 -0.21655,-0.0611 -0.43587,-0.0916 -0.65796,-0.0916 -0.49695,10e-6 -0.88284,0.15825 -1.15769,0.47474 -0.27484,0.31372 -0.41227,0.75513 -0.41227,1.32426 0,0.56912 0.13743,1.01193 0.41227,1.32842 0.27485,0.31371 0.66074,0.47057 1.15769,0.47057 0.22209,0 0.44141,-0.0291 0.65796,-0.0874 0.21932,-0.0611 0.43725,-0.1513 0.6538,-0.27068 l 0,0.70793 c -0.21377,0.1 -0.43587,0.17491 -0.66629,0.22488 -0.22765,0.05 -0.47057,0.075 -0.72876,0.075 -0.70238,0 -1.2604,-0.22071 -1.67406,-0.66213 -0.41366,-0.44142 -0.62049,-1.03692 -0.62049,-1.7865 0,-0.76068 0.20822,-1.35896 0.62465,-1.79483 0.41921,-0.43586 0.9925,-0.6538 1.71987,-0.6538 0.23598,0 0.46641,0.025 0.69128,0.075 0.22487,0.0472 0.44281,0.11938 0.6538,0.21654"
         id="path4056" />
      <path
         d="m 557.06763,871.00168 c -0.41088,1e-5 -0.7357,0.16103 -0.97445,0.48307 -0.23876,0.31927 -0.35813,0.75791 -0.35813,1.31593 0,0.55802 0.11799,0.99805 0.35397,1.32009 0.23875,0.31927 0.56495,0.4789 0.97861,0.4789 0.40811,0 0.73154,-0.16102 0.97029,-0.48306 0.23876,-0.32204 0.35813,-0.76069 0.35814,-1.31593 -1e-5,-0.55247 -0.11938,-0.98972 -0.35814,-1.31177 -0.23875,-0.32481 -0.56218,-0.48722 -0.97029,-0.48723 m 0,-0.64963 c 0.66629,0 1.18961,0.21655 1.56996,0.64963 0.38034,0.4331 0.57051,1.03276 0.57051,1.799 0,0.76346 -0.19017,1.36312 -0.57051,1.79899 -0.38035,0.43309 -0.90367,0.64964 -1.56996,0.64964 -0.66907,0 -1.19377,-0.21655 -1.57411,-0.64964 -0.37757,-0.43587 -0.56635,-1.03553 -0.56635,-1.79899 0,-0.76624 0.18878,-1.3659 0.56635,-1.799 0.38034,-0.43308 0.90504,-0.64963 1.57411,-0.64963"
         id="path4058" />
      <path
         d="m 564.10536,871.35982 c 0.19155,-0.34425 0.42059,-0.59827 0.68711,-0.76208 0.26651,-0.16379 0.58023,-0.24569 0.94114,-0.24569 0.48583,0 0.86062,0.17074 1.12437,0.51221 0.26374,0.3387 0.39561,0.82177 0.39561,1.44919 l 0,2.81509 -0.7704,0 0,-2.7901 c 0,-0.44697 -0.0791,-0.77873 -0.23736,-0.99528 -0.15826,-0.21654 -0.39979,-0.32481 -0.7246,-0.32482 -0.397,1e-5 -0.71072,0.13188 -0.94114,0.39561 -0.23043,0.26375 -0.34564,0.62327 -0.34564,1.07857 l 0,2.63602 -0.7704,0 0,-2.7901 c 0,-0.44975 -0.0791,-0.78151 -0.23737,-0.99528 -0.15825,-0.21654 -0.40255,-0.32481 -0.73292,-0.32482 -0.39145,1e-5 -0.70239,0.13326 -0.93281,0.39978 -0.23043,0.26374 -0.34564,0.62188 -0.34564,1.0744 l 0,2.63602 -0.7704,0 0,-4.66405 0.7704,0 0,0.72459 c 0.1749,-0.28595 0.3845,-0.49694 0.62881,-0.63298 0.24431,-0.13603 0.53442,-0.20405 0.87035,-0.20405 0.3387,0 0.62603,0.0861 0.86202,0.25819 0.23875,0.17213 0.41504,0.42199 0.52887,0.74958"
         id="path4060" />
    </g>
    <path
       d="M 6.4375,12.0625 6.3125,42.53125 32.40625,26.90625 6.4375,12.0625 z m 4.25,6.28125 15.3125,8.75 -15.375,9.21875 0.0625,-17.96875 z"
       transform="translate(423.9541,824.20982)"
       id="path3979-8"
       style="fill:#0060a5;fill-opacity:1;stroke:#0060a5;stroke-width:1.48399997;stroke-linecap:round;stroke-linejoin:round;stroke-miterlimit:4;stroke-opacity:1;stroke-dasharray:none" />
  </g>
</svg>
