<svg width="654" height="134" viewBox="0 0 654 134" fill="none" xmlns="http://www.w3.org/2000/svg">
<g clip-path="url(#clip0_2778_1212)">
<path d="M431.1 37.8008C431 37.6008 431 37.4008 431 37.3008C431 37.4008 431.1 37.6008 431.1 37.8008ZM431 37.3008C431 37.1008 431 37.0008 431.1 36.8008C431.1 36.9008 431 37.1008 431 37.3008ZM749 80.2008C749.5 79.2008 749.8 78.3008 750.1 77.4008C749.2 77.9008 749.3 79.4008 749 80.2008ZM390.2 188.401H385C384.9 188.401 387.1 188.901 390.2 188.401Z" fill="#59B366"/>
<path d="M135.9 79.9C135.9 56.8 136 33.7 136 10.6C136 3.1 133 0.1 125.3 0.1C87.5 0.1 49.8 0.2 12 0C6.7 0 2.7 1.2 0 5.8V126.5C1.1 129.4 2.9 131.6 5.8 132.9H130.9C133.6 130.8 136 128.5 136 124.7C135.9 109.7 135.9 94.8 135.9 79.9Z" fill="url(#paint0_linear_2778_1212)"/>
<path d="M293.9 75.0007C299 78.7007 304.3 81.3007 310.7 81.2007C312.1 81.2007 313.5 80.9007 314.7 80.4007C316.4 79.7007 317.5 78.5007 317.4 76.5007C317.3 74.7007 316.1 74.0007 314.6 73.4007C311.4 72.1007 308 71.7007 304.7 71.0007C302.3 70.4007 300 69.8007 297.8 68.7007C288.8 64.4007 287.5 52.9007 295.4 46.7007C301.2 42.1007 308 42.1007 314.9 43.1007C318.8 43.7007 322.4 45.3007 325.8 47.4007C327.3 48.3007 327.9 49.2007 326.7 50.9007C325.3 52.9007 324.2 55.1007 322.9 57.4007C318.6 53.9007 313.8 52.0007 308.3 52.3007C307.2 52.4007 306.2 52.5007 305.2 52.9007C303.5 53.6007 302.1 54.6007 302.1 56.5007C302.1 58.4007 303.8 59.1007 305.3 59.5007C308.9 60.4007 312.5 61.1007 316.1 62.1007C320.6 63.3007 324.9 64.9007 327.5 69.1007C331.9 76.3007 328.8 85.6007 320.5 88.8007C310.1 92.8007 300.1 91.4007 290.7 85.5007C289.1 84.5007 288.5 83.5007 289.8 81.7007C291.4 79.6007 292.5 77.3007 293.9 75.0007ZM353.3 43.8007C354.1 43.6007 354.3 43.6007 354.5 43.6007C358.5 43.6007 363.2 42.4007 366.4 44.0007C369.5 45.5007 371.1 50.0007 373.3 53.3007C374.3 54.7007 375.2 56.1007 376.3 57.7007C379 53.6007 381.7 49.7007 384.3 45.7007C385.2 44.2007 386.3 43.5007 388.1 43.6007C391.6 43.8007 395.1 43.6007 398.6 43.6007C399 44.9007 398 45.6007 397.4 46.4007C393.5 52.2007 389.5 58.0007 385.5 63.7007C384.3 65.4007 384.1 66.6007 385.5 68.4007C390.5 75.3007 395.2 82.3007 400.4 89.8007H387.6C386.4 89.8007 386.1 88.8007 385.5 88.1007C382.5 83.6007 379.4 79.2007 376.2 74.4007C373.3 78.6007 370.4 82.5007 367.9 86.7007C366.4 89.2007 364.6 90.1007 361.7 89.9007C358.8 89.7007 355.8 89.8007 352.8 89.8007C352.3 88.6007 353.2 88.1007 353.7 87.5007C358.1 81.1007 362.4 74.7007 367 68.4007C368.3 66.6007 368.2 65.4007 367 63.7007C362.5 57.3007 358 50.7007 353.3 43.8007ZM588 42.7007C593.1 42.6007 598.7 44.4007 603.3 48.9007C604.7 50.2007 605.2 51.4007 603.3 52.6007C602.7 53.0007 602.2 53.6007 601.7 54.1007C600.4 55.3007 599.3 57.0007 597.7 57.7007C595.7 58.5007 595.2 55.8007 593.6 55.1007C589.4 53.1007 585.2 52.9007 581.1 55.2007C576.6 57.6007 575 61.9007 575 66.7007C575 72.0007 576.8 76.6007 582 78.9007C587.1 81.2007 592 80.5007 596 76.3007C597.1 75.2007 597.6 75.4007 598.5 76.3007C599.7 77.5007 601 78.6007 602.2 79.8007C605.4 82.8007 605.5 82.9007 602.1 85.7007C594.2 92.0007 585.3 92.5007 576.3 88.8007C567.6 85.2007 563 78.1007 562.5 68.7007C561.6 53.3007 571.8 42.5007 588 42.7007ZM549.7 37.4007C549.7 43.6007 549.7 43.7007 556 43.5007C558.6 43.4007 559.4 44.2007 559.1 46.7007C558.8 49.1007 560 52.2007 558.6 53.8007C557.2 55.3007 554.2 54.3007 551.9 54.3007C550 54.3007 549.6 54.9007 549.7 56.6007C549.8 62.7007 549.7 68.7007 549.8 74.8007C549.9 79.2007 552.3 80.9007 556.5 79.5007C557.8 79.0007 558.4 79.1007 558.7 80.5007C559 81.9007 559.5 83.4007 559.9 84.8007C560.9 88.3007 560.5 89.0007 556.9 90.1007C553.6 91.1007 550.2 91.2007 546.8 90.6007C541.3 89.7007 537.9 85.7007 537.7 79.9007C537.5 72.4007 537.5 64.8007 537.7 57.3007C537.7 55.0007 537.3 54.2007 534.8 54.3007C530 54.5007 530 54.3007 530 49.5007V49.2007C530 43.8007 530 43.7007 535.3 43.6007C537.1 43.6007 537.7 43.2007 537.6 41.3007C537.4 38.7007 537.7 36.0007 537.5 33.3007C537.4 31.3007 538.2 31.0007 539.9 31.1007C542.2 31.2007 544.6 31.3007 546.9 31.1007C549.1 30.9007 550.1 31.5007 549.7 33.8007C549.5 35.0007 549.7 36.2007 549.7 37.4007ZM333.3 31.6007C333.3 27.5007 336.6 24.3007 340.6 24.4007C344.5 24.5007 347.7 27.7007 347.7 31.6007C347.7 35.5007 344.4 39.0007 340.5 39.0007C336.5 38.9007 333.2 35.7007 333.3 31.6007Z" fill="white"/>
<path d="M111.8 47.9008V42.8008C112.6 44.6008 112.6 46.2008 111.8 47.9008Z" fill="#E72F3C"/>
<path d="M112.3 48.4995V32.9995C112.3 31.4995 112 29.9995 111.3 28.6995C109.9 25.8995 106.7 22.2995 100 24.8995L68 49.1995L90 66.2995L112.3 48.4995Z" fill="white"/>
<path d="M111.9 48.5L89.9996 66.2L67.9996 49.1L45.8996 66.2L23.5996 48.5V83.7L45.8996 66.8L68.1996 83.7L89.9996 66.9L112 83.7L111.9 48.5Z" fill="#FBDDE2"/>
<path d="M23.5996 48.4995V32.9995C23.5996 31.4995 23.8996 29.9995 24.5996 28.6995C25.9996 25.8995 29.1996 22.2995 35.8996 24.8995L67.9996 49.1995L45.8996 66.2995L23.5996 48.4995Z" fill="white"/>
<path d="M23.5996 83.6996V100.9C23.5996 101.2 23.5996 101.4 23.6996 101.7C24.3996 103.6 27.6996 111.4 36.5996 107.8L68.0996 83.5996L45.7996 66.5996L23.5996 83.6996ZM111.9 83.6996V101.8C111.9 103.1 111.5 104.3 110.8 105.4C109.2 107.6 105.8 110.4 99.1996 107.7L68.0996 83.6996L89.8996 66.8996L111.9 83.6996Z" fill="#F5B4C3"/>
<path d="M231.1 52.9993C230.3 47.0993 226.4 43.4993 220.6 42.7993C213.1 41.9993 207.1 44.6993 202.1 50.5993C200.5 46.7993 198.1 44.2993 194.3 43.2993C186.7 41.2993 180.2 43.8993 174.4 49.0993C174.2 43.5993 174.2 43.5993 168.8 43.5993C167.4 43.5993 166 43.6993 164.7 43.5993C162.5 43.2993 162.1 44.1993 162.1 46.2993C162.2 55.6993 162.1 65.0993 162.2 74.4993V90.1993H174.4V88.0993C174.4 87.7993 174.5 87.4993 174.4 87.1993V74.4993V61.3993C174.4 59.2993 175 57.7993 176.7 56.4993C179.9 53.9993 183.4 52.5993 187.3 54.2993C191.1 55.8993 190.7 59.5993 190.8 62.7993C190.8 66.6993 190.9 70.5993 190.9 74.4993V90.0993H202.9V88.0993C202.9 87.7993 203 87.4993 202.9 87.0993V74.4993V62.5993C202.9 57.3993 206.2 53.9993 211.4 53.6993C216.6 53.3993 219 55.4993 219 60.6993C219.1 66.9993 219 73.3993 219.1 79.6993V90.2993H231.5V74.5993C231.4 67.2993 232 60.0993 231.1 52.9993ZM475 52.9993C474.2 47.0993 470.3 43.4993 464.5 42.7993C457 41.9993 451 44.6993 446 50.5993C444.4 46.7993 442 44.2993 438.2 43.2993C430.6 41.2993 424.1 43.8993 418.3 49.0993C418.1 43.5993 418.1 43.5993 412.7 43.5993C411.3 43.5993 409.9 43.6993 408.6 43.5993C406.4 43.2993 406 44.1993 406 46.2993C406.1 55.6993 406 65.0993 406.1 74.4993V90.1993H418.3V88.0993C418.3 87.7993 418.4 87.4993 418.3 87.1993V74.4993V61.3993C418.3 59.2993 418.9 57.7993 420.6 56.4993C423.8 53.9993 427.3 52.5993 431.2 54.2993C435 55.8993 434.6 59.5993 434.7 62.7993C434.7 66.6993 434.8 70.5993 434.8 74.4993V90.0993H446.8V88.0993C446.8 87.7993 446.9 87.4993 446.8 87.0993V74.4993V62.5993C446.8 57.3993 450.1 53.9993 455.3 53.6993C460.5 53.3993 462.9 55.4993 462.9 60.6993C463 66.9993 462.9 73.3993 463 79.6993V90.2993H475.4V74.5993C475.3 67.2993 476 60.0993 475 52.9993ZM270.6 84.0993C270.6 84.1993 270.6 84.1993 270.6 84.0993V85.9993V85.8993C270.7 85.5993 270.6 85.1993 270.6 84.0993Z" fill="white"/>
<path d="M282.2 44.2994C280.4 42.2994 276.2 43.8994 273.1 43.5994C270.8 43.2994 270.5 44.3994 270.5 46.2994C270.6 54.0994 270.5 61.7994 270.5 69.5994C270.5 76.3994 266.9 79.9994 260 79.9994C254.5 79.9994 252.2 77.9994 251.6 72.5994C251.5 71.4994 251.5 70.4994 251.5 69.3994C251.5 61.5994 251.4 53.8994 251.5 46.0994C251.5 44.1994 251.1 43.3994 249 43.5994C246.5 43.7994 243.9 43.6994 241.3 43.5994C239.6 43.4994 239.1 44.0994 239.1 45.7994C239.2 56.3994 239 67.0994 239.2 77.6994C239.4 85.7994 244.5 90.4994 252.6 90.8994C259.2 91.1994 264.9 89.1994 270.3 84.1994C270.3 85.2994 270.4 85.6994 270.3 85.9994V90.1994H282.5V87.0994C282.5 75.7994 282.6 64.4994 282.5 53.2994C282.8 50.0994 283.8 45.9994 282.2 44.2994ZM346.5 46.0994C346.5 44.1994 346.1 43.3994 344 43.4994C341.7 43.6994 339.3 43.6994 337 43.4994C334.4 43.1994 334.1 44.2994 334.1 46.5994C334.2 57.8994 334.1 69.0994 334.2 80.3994V90.1994H346.4V87.2994C346.4 80.3994 346.5 73.4994 346.5 66.5994V46.0994Z" fill="white"/>
<path d="M525.4 74.901C525.4 69.801 525.4 64.601 525.3 59.501C525 49.301 518.8 42.401 509.3 41.001C503.2 40.101 497.2 40.701 491.4 42.501C484.5 44.601 484.6 44.701 486.9 51.501C487 51.701 487.1 51.901 487.1 52.101C487.4 54.301 488.3 54.801 490.5 53.801C494.9 51.901 499.7 51.201 504.5 51.701C510.2 52.201 513.1 55.501 512.9 61.201C507.1 59.801 501.2 59.001 495.3 60.101C488.8 61.201 483.5 63.901 481.3 70.601C477.8 81.001 485 90.801 496.3 91.401C502.2 91.701 507.6 90.301 513.1 85.601V90.501H525.2L525.4 74.901ZM513 75.101C510.8 81.501 499.7 84.401 494.7 79.801C491.7 77.001 492.4 72.001 496.1 69.801C498.6 68.301 501.3 68.301 504.1 68.201C505.9 68.401 507.7 68.501 509.5 68.801C513.6 69.701 514.3 71.001 513 75.101ZM639.6 42.601C633.3 42.601 627.9 44.701 623 49.301C623 42.001 622.9 35.301 623.1 28.601C623.1 26.601 622.5 26.101 620.6 26.201C618.2 26.401 615.7 26.401 613.3 26.201C611 26.001 610.7 27.001 610.8 28.901C610.9 36.701 610.8 44.401 610.8 52.201C610.8 63.801 610.9 75.401 610.7 87.001C610.7 87.501 610.7 88.001 610.8 88.301V90.201H623V74.501L623.1 61.201C623.1 60.201 622.9 59.101 623.6 58.101C625.9 54.801 632.5 52.601 636.9 53.801C640.6 54.801 641.8 57.101 641.9 63.001V90.301H653.9V90.201V74.501V51.801C651.1 45.501 646.4 42.601 639.6 42.601Z" fill="white"/>
<path d="M639.6 42.601C633.3 42.601 627.9 44.701 623 49.301C623 42.001 622.9 35.301 623.1 28.601C623.1 26.601 622.5 26.101 620.6 26.201C618.2 26.401 615.7 26.401 613.3 26.201C611 26.001 610.7 27.001 610.8 28.901C610.9 36.701 610.8 44.401 610.8 52.201C610.8 63.801 610.9 75.401 610.7 87.001C610.7 87.501 610.7 88.001 610.8 88.301V90.201H623V74.501L623.1 61.201C623.1 60.201 622.9 59.101 623.6 58.101C625.9 54.801 632.5 52.601 636.9 53.801C640.6 54.801 641.8 57.101 641.9 63.001V90.301H653.9V90.201V74.501V51.801C651.1 45.501 646.4 42.601 639.6 42.601Z" fill="white"/>
<path d="M639.6 42.601C633.3 42.601 627.9 44.701 623 49.301C623 42.001 622.9 35.301 623.1 28.601C623.1 26.601 622.5 26.101 620.6 26.201C618.2 26.401 615.7 26.401 613.3 26.201C611 26.001 610.7 27.001 610.8 28.901C610.9 36.701 610.8 44.401 610.8 52.201C610.8 63.801 610.9 75.401 610.7 87.001C610.7 87.501 610.7 88.001 610.8 88.301V90.201H623V74.501L623.1 61.201C623.1 60.201 622.9 59.101 623.6 58.101C625.9 54.801 632.5 52.601 636.9 53.801C640.6 54.801 641.8 57.101 641.9 63.001V90.301H653.9V90.201V74.501V51.801C651.1 45.501 646.4 42.601 639.6 42.601Z" fill="white"/>
</g>
<defs>
<linearGradient id="paint0_linear_2778_1212" x1="68" y1="136.73" x2="68" y2="0.334996" gradientUnits="userSpaceOnUse">
<stop offset="0.005" stop-color="#E51B40"/>
<stop offset="0.384" stop-color="#E72F3C"/>
<stop offset="0.837" stop-color="#E94F2D"/>
</linearGradient>
<clipPath id="clip0_2778_1212">
<rect width="653.9" height="133.1" fill="white"/>
</clipPath>
</defs>
</svg>
