<?xml version="1.0" encoding="UTF-8"?>
<svg width="1200pt" height="371pt" version="1.1" viewBox="0 0 1200 371" xmlns="http://www.w3.org/2000/svg"><g fill="#f40a53"><path d="m991.79 0h30.43c0.07 12.48-0.12 24.96 0.1 37.44 12.13-0.05 24.27-0.01 36.4-0.03-0.04 8.61 0.06 17.22-0.05 25.83-12.15 0.02-24.29-0.01-36.44 0.01-0.02 23.6 0.02 47.19-0.02 70.79-0.04 3.49 0.3 7.27 2.64 10.06 2.17 2.82 5.72 4.19 9.21 4.39 8.19 0.53 16.36-0.7 24.41-2.13 0.05 9.29 0.13 18.58-0.06 27.87-11.84 3.3-24.25 4.37-36.48 3.16-8.34-1.08-16.76-4.54-22.01-11.37-6.9-8.71-7.87-20.31-8.16-31 0.02-23.92 0.01-47.84 0.01-71.76-8.62-0.13-17.24 0.18-25.85-0.13l-0.33-0.32c-0.36-8.45-0.01-16.93-0.16-25.4 8.76 0.02 17.51-0.03 26.27 0.03 0.17-12.48 0-24.96 0.09-37.44z"/><path d="m30.97 43.87c13.92-8.93 31.29-11.43 47.46-8.81 13.48 2.42 26.75 9.37 34.32 21.11 0.06-6.26-0.09-12.52 0.49-18.76 10.07 0.02 20.14-0.03 30.21 0.04-0.03 43.18-0.01 86.36-0.01 129.54 0.13 5.35-0.23 10.69-1.06 15.97-1.99 14.77-8.74 29.41-20.71 38.67-13.73 10.69-31.66 14.28-48.73 14.12-14.62 0.31-29.7-2.01-42.58-9.26-8.28-4.54-15.14-11.27-20.83-18.73 6.2-7.44 12.33-14.93 18.5-22.39 3.51 4.63 7.22 9.2 11.95 12.66 12.04 9.35 28.24 11.74 43 9.36 10.44-1.38 20.77-7.02 25.75-16.59 5.66-10.12 5.09-22.04 4.98-33.24-10.48 14.68-29.07 21.62-46.68 21.16-19 0.52-38.65-7.02-50.81-21.95-10.41-12.33-14.74-28.46-16.22-44.24v-10.76c0.94-8.67 2.24-17.4 5.39-25.57 4.81-13.12 13.72-24.83 25.58-32.33m38.71 19.06c-12.6 0.8-24.99 7.3-31.6 18.26-6.62 10.56-7.98 23.68-5.99 35.79 1.97 11.7 8.84 22.79 19.33 28.66 11.04 6.2 24.72 7.14 36.69 3.22 10.12-3.3 18.39-11.38 22.39-21.19 4.64-11.45 5.02-24.42 1.78-36.28-2.39-8.62-7.58-16.52-14.96-21.66-8-5.49-18.07-7.54-27.64-6.8z"/><path d="m226.05 35.37c8.38-1.89 17.23-1.67 25.59 0.28 0.07 10.73 0.01 21.46 0.02 32.18-10.43-2.51-21.73-3.03-31.91 0.81-7.6 2.85-13.71 9.07-16.8 16.53-3.43 8.13-4.67 17.05-4.62 25.83 0 21.83-0.04 43.67 0.02 65.5-10.05 0.14-20.11 0.02-30.16 0.06 0.01-46.39 0.01-92.78-0.01-139.16 9.72 0.13 19.44-0.18 29.15 0.16-0.11 7.18-0.09 14.37 0.03 21.55 5.46-11.57 16.08-20.92 28.69-23.74z"/><path d="m276.98 44.98c13.08-8.99 29.49-11.26 45.03-10.79 14.61 0.02 30.25 3.29 41.23 13.56 10.37 9.71 14.14 24.42 14.31 38.2 0.02 30.19 0.03 60.39 0 90.59-10.06 0.06-20.12 0-30.17 0.02 0.03-6.35 0.02-12.7 0-19.04-7.35 11.16-19.4 18.97-32.54 21.35-14.42 2.5-30.37 0.73-42.34-8.29-18.08-13.04-21.67-41.15-8.87-59.01 7.29-10.09 19.26-15.81 31.3-17.86 15-1.82 30.05-3.08 45.08-4.62 2.78-0.38 6.08-1.28 7.11-4.24 0.78-5.06 0.39-10.78-2.9-14.95-4.08-5.27-10.85-7.54-17.24-8.33-11.12-1.02-23.23-0.16-32.58 6.59-5.08 3.45-8.17 9-10.08 14.71-7.96-5.36-16.29-10.16-24.22-15.57 3.31-8.87 8.92-17.04 16.88-22.32m27.91 72.73c-6.04 0.96-12.27 3.82-15.43 9.3-4.61 8.03-1.5 19.64 7.14 23.52 17.96 8.04 42.37-1.14 49.05-20.09 2.26-5.77 1.72-12.02 1.74-18.08-14.17 1.77-28.35 3.47-42.5 5.35z"/><path d="m430.64 41.56c14.8-7.2 31.84-8.74 48.01-6.51 14.41 2.07 27.92 8.99 38.35 19.09-5.65 8.15-11.87 15.94-18 23.74-5.61-4.22-11.11-8.83-17.8-11.3-12.9-5.2-28.4-4.12-40.19 3.37-7.57 4.93-13.24 12.6-15.95 21.2-4.33 13.74-3.03 29.61 4.98 41.77 5.99 9.39 16.35 15.53 27.28 17.18 15.67 2.52 31.75-3.84 42.88-14.84 6.04 7.84 11.48 16.13 17.54 23.95-13.69 13.9-33.46 20.9-52.8 20.62-16.95 0.4-34.31-4.52-47.68-15.16-11.44-8.97-19.41-21.99-22.98-36.02-4.54-17.95-3.46-37.54 4.23-54.49 6.43-14.2 18.03-25.95 32.13-32.6z"/><path d="m553.96 43.91c15.72-9.73 35.26-11.63 53.17-8.33 18.1 3.33 34.4 15.26 42.63 31.77 8.01 14.94 9.61 32.3 8.82 48.98-35.52-0.11-71.05-0.06-106.57-0.02 0.75 11.32 7.1 22.08 16.58 28.3 7.79 5.03 17.17 7.43 26.42 7.03 15.13 0.01 29.68-7.07 40.11-17.83 5.35 7.72 9.63 16.15 14.53 24.16-14.46 14.05-34.5 22.14-54.67 21.85-15.64 0.45-31.65-3.3-44.72-12.1-14.56-9.63-24.22-25.61-27.48-42.62-2.77-15.36-2.19-31.61 3.22-46.35 5.14-14.26 14.86-27.04 27.96-34.84m12.73 23.84c-8.3 5.94-12.91 15.76-14.52 25.63 24.52 0.02 49.04 0.01 73.57 0-0.79-9.64-4.8-19.47-12.61-25.51-6.16-5.08-14.3-6.72-22.07-7.15-8.51 0.26-17.41 1.8-24.37 7.03z"/><path d="m739.96 35.02c14.75-2.27 31.16-0.77 43.24 8.8 13 10.12 18.19 27.27 18.51 43.19 0.07 29.85 0.02 59.7 0.02 89.55-10.15 0-20.31-0.01-30.46 0.01 0.01-25.53-0.01-51.05 0.02-76.58-0.15-8.04-0.5-16.52-4.49-23.74-3.49-6.74-10.26-11.57-17.71-12.88-11.12-2.47-24.17-0.04-31.84 8.91-7.85 8.96-10.08 21.28-10.76 32.81-0.21 23.81-0.04 47.62-0.09 71.43-10.06 0.09-20.11 0.02-30.17 0.04-0.02-46.39 0.02-92.77-0.02-139.15 9.77 0.01 19.54 0.02 29.31-0.01 0.05 6.9-0.06 13.8 0.05 20.69 7.79-11.89 20.3-20.64 34.39-23.07z"/><path d="m877.61 35.06c15.89-2.21 32.65-0.75 47.22 6.34 16.19 7.55 29.17 21.68 35.23 38.5 4.63 12.21 5.5 25.58 3.93 38.47-2.39 18.32-12.05 35.72-26.92 46.81-13.13 9.91-29.71 14.96-46.12 14.65-19.72 0.4-39.86-6.97-53.67-21.25-10.38-10.28-16.92-24.11-19.21-38.47-2.63-18.12-0.02-37.5 10-53.12 10.69-17.34 29.49-28.96 49.54-31.93m5.5 28.92c-13.35 1.92-25.58 10.77-30.95 23.23-3.84 8.02-4.43 17.08-3.74 25.83 1.23 12.37 7.93 24.34 18.6 30.96 17.78 11.18 44.07 8.22 57.38-8.59 14.04-18.02 12.39-47.37-5.4-62.36-9.78-8.34-23.4-11.01-35.89-9.07z"/><path d="m1102.2 40.2c13.66-6.26 29.23-7.24 43.95-5.01 15.41 2.45 30.05 10.67 39.3 23.36 9.48 12.61 13.69 28.46 14.5 44.03v13.84c-35.63-0.31-71.27-0.1-106.91-0.1 0.76 6.65 2.93 13.19 6.85 18.67 5.91 8.67 15.73 14.09 25.93 15.93 13.65 2.35 28.13-0.62 39.71-8.25 4.06-2.5 7.46-5.89 11.17-8.86 4.64 8.11 9.53 16.08 14.12 24.24-7.61 7.12-16.44 12.99-26.22 16.66-13.19 5.18-27.68 5.98-41.65 4.49-15.46-1.94-30.59-8.51-41.49-19.81-10.48-10.72-16.55-25.18-18.44-39.93-2.2-17.5 0.34-35.93 9.05-51.43 6.76-12.14 17.39-22.17 30.13-27.83m6.23 27.15c-8.71 5.85-13.3 16.01-15.16 26.03 24.5 0.02 49.01 0.01 73.51 0-0.55-10.88-5.94-22.02-15.55-27.65-5.78-3.52-12.61-4.65-19.26-5.03-8.21 0.27-16.72 1.78-23.54 6.65z"/></g><g fill="#012041"><path d="m366.44 263.74c5.79-3.47 14.23 1.41 13.41 8.31 0.27 6.6-7.78 10.77-13.31 7.63-6.16-2.93-6.2-12.91-0.1-15.94z"/><path d="m456.56 265.09c4.36 0.09 8.73 0.01 13.1 0.06-0.11 27.42-0.02 54.85-0.04 82.28-4.37-0.03-8.74-0.01-13.1 0.01 0.08-27.45 0-54.9 0.04-82.35z"/><path d="m220.8 287.83c8.26-1.17 17.55-1.27 24.72 3.63 5.61 3.89 7.81 10.97 7.86 17.53 0.01 12.81-0.01 25.63 0.01 38.45-4.27-0.03-8.54-0.02-12.81-0.01 0.04-2.59 0.06-5.17 0.04-7.75-6.97 9.75-21.9 12.14-31.61 5.22-6.87-4.92-8.73-14.88-5.34-22.37 2.71-5.87 8.93-9.36 15.16-10.2 6.51-0.88 13.1-1.2 19.61-2.11 2.98-0.51 2.4-4.21 1.7-6.32-1.95-4.58-7.69-5.45-12.1-5.28-5.94-0.03-12.39 3.09-14.07 9.19-3.44-2.24-6.95-4.37-10.37-6.65 2.7-7.29 9.64-12.2 17.2-13.33m2.06 34.69c-2.8 0.37-5.71 1.78-6.97 4.44-1.65 3.49-0.02 8.17 3.67 9.57 7.33 2.99 16.95-0.57 20.07-8 1.18-2.59 0.95-5.51 1.04-8.28-5.94 0.78-11.88 1.44-17.81 2.27z"/><path d="m323.96 288.01c7.53-1.87 16.53-0.88 22.09 5 4.8 5.03 5.95 12.26 6.07 18.95 0.03 11.81-0.02 23.62 0.02 35.44-4.41 0.04-8.83 0.02-13.25 0 0.06-11.47-0.02-22.94 0.07-34.41 0.06-4.84-1.74-10.4-6.49-12.48-5.19-2.27-12.1-1.73-16.02 2.69-3.62 3.96-4.52 9.59-4.77 14.76-0.06 9.83 0.06 19.67-0.05 29.51-4.27-0.09-8.54-0.05-12.81-0.06 0.04-19.61 0.05-39.22-0.01-58.83 4.2-0.02 8.39-0.02 12.58-0.01-0.07 2.84-0.08 5.69-0.08 8.54 3.18-4.22 7.42-7.82 12.65-9.1z"/><path d="m393.16 299.12c9.66-14.54 33.42-16.23 45.06-3.27 6.35 7.04 7.99 17 7.41 26.18-15.07-0.34-30.14-0.04-45.21-0.15 0.79 5.29 3.74 10.43 8.68 12.82 8.85 4.58 20.13 1.52 26.78-5.53 1.9 3.53 4.05 6.92 6.01 10.41-11.33 11.01-30.77 12.5-43.46 3.05-12.88-10.07-14.14-30.43-5.27-43.51m15.29 1.29c-4.55 2.23-6.79 7.1-7.91 11.78 10.44 0.02 20.88 0.03 31.32-0.01-0.62-3.75-1.89-7.61-4.82-10.19-5.05-4.33-12.81-4.42-18.59-1.58z"/><path d="m489.02 292.06c6.24-4.76 14.57-5.34 22.12-4.63 7.4 0.67 14.25 4.63 18.7 10.55-2.92 2.71-5.83 5.43-8.77 8.12-4.59-6.29-13.33-8.57-20.66-6.56-2.47 0.63-4.53 2.76-4.66 5.37 0.49 3.53 4.4 4.52 7.27 5.37 7.79 2.25 16.72 2.94 22.87 8.79 6.77 7.53 4.7 21.51-4.41 26.33-6.21 3.46-13.62 3.74-20.54 3.16-8.29-0.75-16.7-4.46-21.38-11.61 3.05-2.73 5.94-5.62 8.88-8.46 4.77 7.28 14.44 9.96 22.66 8.29 2.82-0.48 5.79-2.65 5.65-5.79 0.44-2.84-2.28-4.66-4.63-5.38-7.86-2.61-16.76-2.93-23.55-8.14-7.99-6-7.42-19.54 0.45-25.41z"/><path d="m546.48 293.52c7.53-6.31 18.23-7.65 27.54-5.25 7.8 2 14.34 7.96 17.23 15.47 2.46 5.71 2.73 12.02 2.56 18.15-15.08 0-30.16 0-45.23 0.01 0.78 5 3.41 9.87 7.94 12.4 8.87 5.11 20.77 2.21 27.48-5.18 1.95 3.55 4.13 6.97 6.05 10.54-12.84 12.37-36.58 12.72-48.06-1.62-9.87-13-8.22-33.93 4.49-44.52m10.68 6.61c-4.87 2.11-7.32 7.19-8.49 12.07 10.43-0.01 20.87 0.03 31.3-0.02-0.51-3.58-1.71-7.24-4.38-9.8-4.79-4.63-12.59-4.82-18.43-2.25z"/><path d="m629.82 287.99c7.11-1.72 15.47-0.98 21.11 4.11 4.89 4.49 6.82 11.39 6.84 17.86 0.04 12.48-0.06 24.95 0.05 37.42-4.35 0.07-8.7 0.03-13.05 0.04 0.03-11.48 0.03-22.95 0-34.43 0.1-4.77-1.66-10.24-6.29-12.39-5.44-2.54-12.9-1.72-16.76 3.2-3.36 4.25-4.14 9.92-4.21 15.18-0.04 9.49-0.05 18.97 0.01 28.46-4.28-0.03-8.56-0.03-12.83-0.01 0-19.62 0.03-39.25-0.01-58.87 4.19 0.02 8.38 0.01 12.58 0.02-0.02 2.88-0.03 5.76-0.13 8.64 3.14-4.3 7.42-7.94 12.69-9.23z"/><path d="m711.59 295.51c11.8-11.15 32.69-11.39 44.2 0.32-2.7 3.24-5.21 6.65-7.74 10.03-4.29-3.99-10.01-6.82-15.99-6.25-7.43 0.26-14.2 5.93-15.66 13.24-2.13 8.14 1.09 18 8.99 21.76 7.78 3.9 17.2 1.07 23.28-4.64 2.43 3.38 4.84 6.79 7.35 10.12-12.49 12.28-35.75 11.78-46.88-2.06-9.48-12.21-8.66-31.58 2.45-42.52z"/><path d="m784.57 287.89c9.86-1.99 20.87-0.01 28.52 6.81 12.88 11.05 13.5 33.05 1.62 45.05-11.83 12.12-33.64 12.13-45.48 0.01-10.48-10.64-11.3-28.99-2.35-40.82 4.28-5.69 10.75-9.56 17.69-11.05m0.85 12.76c-12.03 3.89-15.18 20.94-7.04 29.94 6.01 6.87 17.33 7.68 24.61 2.37 9.24-6.76 9.48-22.48 0.49-29.55-4.99-4-12.1-4.82-18.06-2.76z"/><path d="m896.92 288.12c8.52-2.12 19.02-1.1 24.88 6.16 5.34 6.62 5.57 15.57 5.39 23.68 0.02 9.82-0.04 19.64 0.02 29.46-4.3 0.02-8.6-0.05-12.89 0.07-0.15-11.82 0.03-23.64-0.09-35.45-0.15-4.62-2.06-9.78-6.57-11.76-4.55-1.77-10.13-1.41-14.2 1.38-5.43 3.89-6.38 11.14-6.59 17.33-0.05 9.47-0.03 18.95 0 28.43-4.25 0-8.5 0-12.74-0.01 0.02-11.49 0.04-22.98 0-34.47 0-4.88-1.76-10.44-6.54-12.6-5.74-2.33-13.39-1.17-17.1 4.15-2.76 3.9-3.45 8.84-3.69 13.49-0.02 9.81-0.01 19.62 0.02 29.44-4.32 0.01-8.62 0.01-12.93-0.01 0.19-19.58 0.4-39.19 0.01-58.78 4.2-0.11 8.4-0.04 12.61-0.08-0.04 3.01-0.05 6.01-0.12 9.01 7.04-14.15 30.94-14.01 37.28 0.65 3.13-4.72 7.65-8.68 13.25-10.09z"/><path d="m953.17 296.77c8.66-11.83 27.56-12.69 38.14-3.05 6.19 5.59 9.34 13.97 9.56 22.19 0.45 8.2-1.44 16.8-6.68 23.29-5.2 6.69-13.86 10.17-22.24 9.57-7.34-0.17-14.18-4-18.75-9.64 0.16 10.62 0.04 21.25 0.06 31.87h-12.84c-0.05-27.48 0.04-54.96-0.04-82.44 4.3 0.02 8.61 0.01 12.93 0.01-0.04 2.73-0.07 5.47-0.14 8.2m10.2 3.76c-11.36 4.27-13.78 20.16-7.21 29.4 6.66 9.4 22.94 8.85 28.84-1.1 4.32-7.51 3.89-18.21-2.31-24.58-4.89-5.07-12.9-6.04-19.32-3.72z"/><path d="m1010.3 301.2c2.71-7.57 10.04-12.45 17.82-13.49 8.36-1.04 17.86-1.07 24.86 4.32 5.42 4.2 7.12 11.38 7.13 17.92 0.03 12.49-0.03 24.98 0.03 37.47-4.29 0.01-8.58 0-12.86 0.01 0.03-2.58 0.05-5.16 0.09-7.74-6.86 9.41-21.05 12-30.83 5.81-8.28-5.26-10.38-17.67-4.66-25.52 3.22-4.49 8.57-7.02 13.96-7.7 6.45-0.87 12.97-1.16 19.42-2.08 2.79-0.58 2.28-4.05 1.68-6.09-1.83-4.61-7.5-5.65-11.9-5.5-6.04-0.1-12.68 2.97-14.4 9.19-3.42-2.25-6.92-4.36-10.34-6.6m21.61 20.98c-2.6 0.29-5.37 0.67-7.44 2.41-3.81 2.91-3.1 9.78 1.34 11.75 6.33 2.83 14.48 0.68 18.73-4.79 2.63-3.13 2.97-7.37 2.85-11.28-5.17 0.63-10.32 1.27-15.48 1.91z"/><path d="m1086 297.23c6.46-9.98 20.75-12.95 30.97-7.26 6.81 3.88 9.6 12.11 9.75 19.57 0.18 12.61-0.02 25.24 0.1 37.86-4.38 0.04-8.76 0-13.13 0.02 0.05-11.47 0.02-22.95 0.02-34.42 0.09-4.75-1.68-10.11-6.19-12.35-5.45-2.58-12.94-1.85-16.84 3.09-3.38 4.26-4.2 9.93-4.23 15.22 0.03 9.49-0.02 18.99 0.04 28.48-4.31-0.04-8.61-0.04-12.91 0 0.04-19.63 0.03-39.25 0.01-58.87 4.18 0.01 8.37-0.01 12.56 0.02 0.01 2.87-0.02 5.76-0.15 8.64z"/><path d="m364.48 347.45c0-19.63 0.03-39.26-0.02-58.88 4.27 0.01 8.55 0 12.83-0.01-0.02 19.61-0.05 39.23 0.01 58.85-4.27 0.02-8.55-0.02-12.82 0.04z"/><path d="m1130.7 288.54c5.08 0.06 10.16 0.02 15.25 0.04 5.68 11.92 11.26 23.89 16.95 35.81 5.29-12 10.97-23.82 16.32-35.8 4.59-0.03 9.19-0.01 13.8-0.02-12.82 27.39-25.11 55.03-37.9 82.43h-13.66c3.07-6.22 5.79-12.61 8.74-18.9 1.78-4.4 4.41-8.52 5.64-13.1-8.19-16.9-16.71-33.67-25.14-50.46z"/></g></svg>
