<svg width="733" height="235" viewBox="0 0 733 235" fill="none" xmlns="http://www.w3.org/2000/svg">
<g clip-path="url(#clip0_2778_1426)">
<path d="M163.007 170.714C174.255 155.631 180.992 136.99 180.992 116.73C180.992 66.7507 140.478 26.2305 90.4932 26.2305C40.5144 26.2305 0 66.7448 0 116.724C0 166.703 40.5144 207.223 90.4991 207.223C110.683 207.223 129.26 200.532 144.313 189.361L144.043 189.684L162.497 208.718L182.253 189.684L163.007 170.714Z" fill="black"/>
<path d="M90.4986 200.319C136.674 200.319 174.107 162.886 174.107 116.71C174.107 70.5345 136.674 33.1016 90.4986 33.1016C44.3226 33.1016 6.88965 70.5345 6.88965 116.71C6.88965 162.886 44.3226 200.319 90.4986 200.319Z" fill="white"/>
<path d="M90.5004 49.3867C53.3109 49.3867 23.1641 79.5335 23.1641 116.723C23.1641 153.913 53.3109 184.059 90.5004 184.059C127.69 184.059 157.837 153.913 157.837 116.723C157.837 79.5335 127.684 49.3867 90.5004 49.3867ZM90.5004 143.205C75.8697 143.205 64.0127 131.348 64.0127 116.717C64.0127 102.086 75.8697 90.2295 90.5004 90.2295C105.131 90.2295 116.988 102.086 116.988 116.717C116.988 131.348 105.125 143.205 90.5004 143.205Z" fill="black"/>
<path d="M90.5006 122.454C93.6744 122.454 96.2473 119.881 96.2473 116.708C96.2473 113.534 93.6744 110.961 90.5006 110.961C87.3268 110.961 84.7539 113.534 84.7539 116.708C84.7539 119.881 87.3268 122.454 90.5006 122.454Z" fill="black"/>
<path d="M58.301 115.353C59.0164 98.1888 73.1545 84.4905 90.4944 84.4905C107.834 84.4905 121.972 98.1888 122.688 115.353H152.682C151.955 81.6171 124.4 54.4961 90.4885 54.4961C56.577 54.4961 29.0338 81.623 28.3066 115.353H58.301Z" fill="url(#paint0_linear_2778_1426)"/>
<path d="M90.4971 54.4961V84.4905C107.843 84.7074 122.292 98.6227 122.708 115.921H152.702C152.28 82.0628 124.409 54.7189 90.4971 54.4961Z" fill="url(#paint1_linear_2778_1426)"/>
<path d="M90.5002 54.4961V84.4905C73.1545 84.7074 58.7232 98.6227 58.3069 115.921H28.3066C28.7288 82.0628 56.5887 54.7189 90.5002 54.4961Z" fill="url(#paint2_linear_2778_1426)"/>
<path d="M134.834 167.355C122.989 177.735 107.478 184.039 90.4904 184.039C90.42 184.039 90.3555 184.033 90.291 184.033V200.305C90.3614 200.305 90.4259 200.311 90.4904 200.311C111.56 200.311 130.8 192.5 145.501 179.635C141.982 175.512 138.311 171.507 134.834 167.355Z" fill="url(#paint3_linear_2778_1426)"/>
<path d="M173.145 189.831L128.045 144.631C126.713 142.866 124.608 141.723 122.233 141.723C118.211 141.723 114.95 144.983 114.95 149.006C114.95 150.964 115.73 152.741 116.991 154.055C117.073 154.143 117.167 154.231 117.255 154.313L163.217 199.249L173.145 189.831Z" fill="white"/>
<path d="M393.543 66.8672C365.695 66.8672 343.118 89.4436 343.118 117.292C343.118 145.14 365.695 167.716 393.543 167.716C421.391 167.716 443.967 145.14 443.967 117.292C443.967 89.4436 421.391 66.8672 393.543 66.8672ZM393.543 150.447C375.235 150.447 360.388 135.605 360.388 117.292C360.388 98.9843 375.229 84.1367 393.543 84.1367C411.85 84.1367 426.698 98.9785 426.698 117.292C426.704 135.599 411.856 150.447 393.543 150.447Z" fill="white"/>
<path d="M282.104 66.8672C254.256 66.8672 231.68 89.4436 231.68 117.292C231.68 145.14 254.256 167.716 282.104 167.716C291.674 167.716 300.629 165.048 308.252 160.416V137.663C302.188 145.439 292.73 150.447 282.104 150.447C263.797 150.447 248.949 135.605 248.949 117.292C248.949 98.9843 263.791 84.1367 282.104 84.1367C300.412 84.1367 315.259 98.9785 315.259 117.292V155.267V208.324C315.259 213.092 319.124 216.956 323.891 216.956C328.659 216.956 332.523 213.092 332.523 208.324V117.292C332.529 89.4436 309.958 66.8672 282.104 66.8672Z" fill="white"/>
<path d="M504.741 167.706C532.589 167.706 555.166 145.13 555.166 117.282C555.166 89.4336 532.589 66.8572 504.741 66.8572C495.171 66.8572 486.217 69.5253 478.593 74.1579V96.9102C484.657 89.1345 494.115 84.1267 504.741 84.1267C523.048 84.1267 537.896 98.9685 537.896 117.282C537.896 135.589 523.054 150.437 504.741 150.437C486.434 150.437 471.586 135.595 471.586 117.282V79.3065V26.249C471.586 21.4816 467.722 17.6172 462.954 17.6172C458.187 17.6172 454.322 21.4816 454.322 26.249V117.282C454.311 145.13 476.893 167.706 504.741 167.706Z" fill="white"/>
<path d="M608.239 167.716C580.016 167.716 566.569 142.466 566.569 129.512C566.569 116.559 566.569 75.499 566.569 75.499C566.569 70.7316 570.434 66.8672 575.207 66.8672C579.974 66.8672 583.839 70.7316 583.839 75.499C583.839 75.499 583.839 121.69 583.839 127.56C583.839 133.429 585.387 150.453 608.849 150.453C628.399 150.453 632.633 137.581 632.633 130.984C632.633 124.381 632.633 75.5049 632.633 75.5049C632.633 70.7374 636.498 66.8731 641.271 66.8731C646.038 66.8731 649.903 70.7374 649.903 75.5049C649.903 75.5049 649.903 119.983 649.903 130.497C649.909 141 640.133 167.716 608.239 167.716Z" fill="white"/>
<path d="M724.41 167.702C729.154 167.702 733.001 163.855 733.001 159.111C733.001 154.367 729.154 150.52 724.41 150.52H683.884L718.827 103.356C732.514 85.0313 733.001 84.2983 733.001 79.1673C733.001 73.3033 727.137 67.5977 721.267 67.5977C715.403 67.5977 670.232 67.5977 670.232 67.5977C665.488 67.5977 661.642 71.4444 661.642 76.1884C661.642 80.9324 665.488 84.7792 670.232 84.7792H711.978C711.978 84.7792 667.5 143.431 663.588 148.808C659.677 154.18 661.876 167.702 672.384 167.702C682.893 167.702 724.41 167.702 724.41 167.702Z" fill="white"/>
</g>
<defs>
<linearGradient id="paint0_linear_2778_1426" x1="28.3061" y1="84.9232" x2="152.691" y2="84.9232" gradientUnits="userSpaceOnUse">
<stop/>
<stop offset="0.5108" stop-color="#DFDFDF"/>
<stop offset="0.8763"/>
</linearGradient>
<linearGradient id="paint1_linear_2778_1426" x1="88.5537" y1="59.426" x2="137.322" y2="101.929" gradientUnits="userSpaceOnUse">
<stop offset="0.0029" stop-color="#B5B5B5" stop-opacity="0"/>
<stop offset="0.1244" stop-color="#969696" stop-opacity="0.1632"/>
<stop offset="0.5553" stop-color="#2B2B2B" stop-opacity="0.7421"/>
<stop offset="0.7473"/>
</linearGradient>
<linearGradient id="paint2_linear_2778_1426" x1="92.4459" y1="59.4307" x2="43.6838" y2="101.929" gradientUnits="userSpaceOnUse">
<stop offset="0.0029" stop-color="#B5B5B5" stop-opacity="0"/>
<stop offset="0.1244" stop-color="#969696" stop-opacity="0.1632"/>
<stop offset="0.5553" stop-color="#2B2B2B" stop-opacity="0.7421"/>
<stop offset="0.7473"/>
</linearGradient>
<linearGradient id="paint3_linear_2778_1426" x1="98.286" y1="195.566" x2="143.917" y2="164.484" gradientUnits="userSpaceOnUse">
<stop offset="0.0029" stop-color="#B5B5B5" stop-opacity="0"/>
<stop offset="0.0486" stop-color="#A8A8A8" stop-opacity="0.0514"/>
<stop offset="0.2682" stop-color="#6C6C6C" stop-opacity="0.2982"/>
<stop offset="0.4258" stop-color="#3E3E3E" stop-opacity="0.5252"/>
<stop offset="0.5591" stop-color="#1C1C1C" stop-opacity="0.725"/>
<stop offset="0.7208" stop-color="#070707" stop-opacity="0.8901"/>
<stop offset="0.8679"/>
</linearGradient>
<clipPath id="clip0_2778_1426">
<rect width="733" height="234.56" fill="white"/>
</clipPath>
</defs>
</svg>
