<svg width="512" height="72.492" xmlns="http://www.w3.org/2000/svg"><path d="M444.653 1.596h-10.26a2.835 2.835 0 0 0-2.836 2.836v63.632a2.835 2.835 0 0 0 2.836 2.836h10.26a2.835 2.835 0 0 0 2.836-2.836V4.432a2.835 2.835 0 0 0-2.836-2.836M403.706 29.79l-8.304-1.714c-6.784-1.43-9.64-3.623-9.64-7.388 0-4.575 3.794-7.482 9.553-7.482 4.934 0 8.82 2.485 10.055 6.258.376 1.15 1.362 1.986 2.572 1.986h9.859c1.712 0 3.074-1.53 2.793-3.22C418.774 7.276 408.868.001 395.09.002c-15.532 0-25.621 8.818-25.621 22.257 0 10.82 6.072 17.682 17.855 20.065l8.482 1.812c7.364 1.57 10.175 3.621 10.175 7.434 0 4.527-4.195 7.672-10.309 7.672-5.817 0-10.09-2.345-11.446-6.168-.388-1.093-1.52-2.028-2.68-2.028H371.24c-1.701 0-3.052 1.517-2.792 3.2 1.746 11.356 11.618 18.246 26.553 18.246 16.873 0 27.138-8.673 27.138-23.018 0-10.915-5.712-17.062-18.433-19.685M195.498 1.596h-40.916c-.767 0-1.463.307-1.974.803l-.033.03c-.016.017-.03.034-.047.05a2.83 2.83 0 0 0-.787 1.959V68.06c0 .764.304 1.455.795 1.966.013.013.024.028.037.042.015.013.03.025.044.04.51.489 1.2.792 1.965.792h.004l40.916-.001a2.84 2.84 0 0 0 2.84-2.839V57.813a2.844 2.844 0 0 0-2.844-2.844h-27.825V44.215h27.825a2.845 2.845 0 0 0 2.844-2.846V31.123a2.84 2.84 0 0 0-2.84-2.84h-27.829V17.529h27.825a2.844 2.844 0 0 0 2.844-2.845V4.442a2.846 2.846 0 0 0-2.844-2.846M43.742 54.968H15.918V4.441a2.846 2.846 0 0 0-2.845-2.844H2.83A2.844 2.844 0 0 0-.013 4.44v63.62c0 .762.302 1.455.793 1.965.013.014.024.029.039.042l.042.039c.511.49 1.202.794 1.966.794h40.914a2.845 2.845 0 0 0 2.844-2.846V57.813a2.843 2.843 0 0 0-2.844-2.845m95.193-53.37h-10.242a2.844 2.844 0 0 0-2.844 2.844v37.793L96.69 2.86a3.051 3.051 0 0 0-.224-.288c-.005-.007-.012-.013-.019-.02a2.091 2.091 0 0 0-.167-.173l-.052-.048c-.05-.043-.099-.088-.151-.128L96 2.147a3.3 3.3 0 0 0-.233-.154 3.929 3.929 0 0 0-.153-.084.847.847 0 0 0-.09-.043 1.783 1.783 0 0 0-.162-.07c-.03-.012-.061-.024-.092-.034-.055-.019-.11-.038-.168-.054a.76.76 0 0 0-.099-.024 2.271 2.271 0 0 0-.436-.075c-.049-.004-.098-.005-.148-.007-.032-.001-.064-.004-.096-.004h-10.24a2.846 2.846 0 0 0-2.846 2.844v63.615a2.845 2.845 0 0 0 2.846 2.844h10.24a2.845 2.845 0 0 0 2.846-2.844V30.275l29.193 39.424a2.844 2.844 0 0 0 .926.83l.082.046c.045.023.09.043.136.065.045.02.09.04.137.058.029.013.058.022.088.032.063.024.127.045.192.063l.04.01c.233.06.475.097.728.097h10.242a2.844 2.844 0 0 0 2.845-2.844V4.44a2.844 2.844 0 0 0-2.845-2.844m-70.49 0h-10.26a2.835 2.835 0 0 0-2.835 2.836v63.631a2.835 2.835 0 0 0 2.835 2.836h10.26a2.836 2.836 0 0 0 2.836-2.836V4.433a2.835 2.835 0 0 0-2.836-2.836m440.723 47.396h-11.358a2.825 2.825 0 0 0-2.49 1.484 11.548 11.548 0 0 1-10.177 6.084c-6.379 0-11.551-5.172-11.551-11.551V27.484c0-6.379 5.172-11.551 11.55-11.551a11.55 11.55 0 0 1 10.178 6.084 2.825 2.825 0 0 0 2.49 1.484h11.358c1.777 0 3.142-1.657 2.726-3.385C509.116 8.577 498.73.002 486.335.002h-2.391c-14.517.002-26.286 11.77-26.286 26.287v19.916c0 14.517 11.77 26.287 26.289 26.287h2.388c12.395 0 22.781-8.575 25.558-20.114.416-1.728-.95-3.385-2.727-3.385M294.678 1.596h-12.311c-.98 0-1.89.515-2.393 1.359l-17.112 28.643-17.111-28.643a2.788 2.788 0 0 0-2.394-1.359h-12.31a2.836 2.836 0 0 0-2.836 2.836v63.633a2.835 2.835 0 0 0 2.835 2.834h10.26a2.835 2.835 0 0 0 2.836-2.834v-39.8l15.141 25.346a2.79 2.79 0 0 0 2.393 1.359h2.371c.982 0 1.89-.517 2.393-1.36l15.14-25.344v39.799a2.835 2.835 0 0 0 2.838 2.834h10.26a2.834 2.834 0 0 0 2.834-2.834V4.432a2.836 2.836 0 0 0-2.834-2.836m63.726 0h-10.26a2.836 2.836 0 0 0-2.837 2.836v40.977c0 6.16-4.992 11.152-11.151 11.152-6.158 0-11.153-4.992-11.152-11.152V4.432a2.837 2.837 0 0 0-2.835-2.836h-10.26a2.836 2.836 0 0 0-2.838 2.836v42.57c0 14.078 11.413 25.49 25.492 25.49h3.185c14.079 0 25.492-11.412 25.492-25.49V4.431a2.835 2.835 0 0 0-2.836-2.836" fill="#0ee071"/></svg>