<svg width="100" height="31" viewBox="0 0 100 31" fill="none" xmlns="http://www.w3.org/2000/svg">
<path d="M11.6958 1.27344C5.80124 1.27344 1.02539 6.04902 1.02539 11.9431C1.02539 15.6827 3.39348 18.3787 5.86761 20.8735L15.5417 30.0197C16.0486 30.4989 16.8826 30.1392 16.8826 29.4417V22.316C16.8826 20.2544 18.5519 18.5824 20.613 18.5791C22.6738 18.5825 24.344 20.2544 24.344 22.316V29.4417C24.344 30.1393 25.178 30.4989 25.6849 30.0197L35.3583 20.8735C37.8325 18.3787 40.2013 15.6826 40.2013 11.9431C40.2013 6.04927 35.4263 1.27384 29.5316 1.27344H29.5308C25.8321 1.2737 22.5273 3.2331 20.6137 6.09504C18.6998 3.23306 15.3952 1.27344 11.6958 1.27344ZM9.14509 4.52956C9.3826 4.53748 9.61134 4.65998 9.74668 4.87638C9.96384 5.22135 9.85936 5.67833 9.51326 5.89549C7.8563 6.93415 6.55904 9.36858 6.55904 11.4372V11.4733C6.55904 14.0215 8.00713 16.5968 10.863 19.1269C11.1695 19.3984 11.1974 19.8657 10.927 20.171C10.7808 20.3362 10.5769 20.4192 10.3733 20.4192C10.1988 20.4192 10.0239 20.3588 9.88291 20.2344C6.69717 17.4102 5.08119 14.463 5.08119 11.4733V11.4372C5.08119 8.86828 6.6495 5.94668 8.72758 4.64222C8.85727 4.56117 9.00296 4.52466 9.14509 4.52956ZM32.0816 4.52956C32.2241 4.52466 32.3694 4.56116 32.4991 4.64222C34.5775 5.94668 36.1455 8.86828 36.1455 11.4372V11.4733C36.1455 14.463 34.5299 17.4102 31.3437 20.2344C31.2031 20.3588 31.0279 20.4192 30.8533 20.4192C30.6501 20.4192 30.4459 20.3362 30.2996 20.171C30.0285 19.8657 30.0568 19.3984 30.3629 19.1269C33.2188 16.5968 34.6669 14.0215 34.6669 11.4733V11.4372C34.6669 9.36858 33.3692 6.93342 31.7126 5.89475C31.3666 5.67759 31.2628 5.22135 31.48 4.87638C31.6153 4.65998 31.8444 4.53748 32.0816 4.52956ZM14.5322 6.41977C14.8195 6.39564 15.1058 6.54155 15.2487 6.81224C15.4387 7.17379 15.3006 7.62034 14.9387 7.81073C13.4574 8.59 12.5353 10.1109 12.5315 11.7818C12.5357 13.5998 13.6876 15.4628 15.3989 16.4216C15.7555 16.6202 15.8822 17.0711 15.6831 17.4274C15.5478 17.6691 15.2967 17.8059 15.0381 17.8059C14.9148 17.8059 14.7908 17.7757 14.6765 17.7116C12.5166 16.5022 11.0624 14.1262 11.053 11.7936V11.7715C11.0616 9.5532 12.2845 7.536 14.2502 6.50223C14.3407 6.45473 14.4364 6.42806 14.5322 6.41977ZM26.6944 6.41977C26.7902 6.42806 26.8864 6.45471 26.9765 6.50224C28.9422 7.536 30.1646 9.5532 30.1737 11.7715V11.7936C30.1643 14.1262 28.71 16.5022 26.5501 17.7117C26.4359 17.7757 26.3119 17.8059 26.1886 17.8059C25.9299 17.8059 25.6785 17.6691 25.5428 17.4274C25.3437 17.0711 25.4711 16.6203 25.8278 16.4216C27.5394 15.4628 28.6898 13.5998 28.6944 11.7818C28.6906 10.1109 27.7696 8.59001 26.288 7.81073C25.9264 7.62034 25.7869 7.1738 25.9772 6.81224C26.1198 6.54155 26.4075 6.39564 26.6944 6.41977ZM20.613 9.12142C22.3845 9.12255 23.8205 10.5589 23.8205 12.3304C23.8205 14.102 22.3845 15.5383 20.613 15.5394C18.8418 15.5383 17.4062 14.102 17.4062 12.3304C17.4062 10.5589 18.8418 9.12255 20.613 9.12142Z" fill="#C6002B"/>
<path d="M92.6396 17.9043C89.0127 17.9043 86.5433 20.7839 86.5433 24.0729V24.1057C86.5433 27.3936 88.975 30.2389 92.6057 30.2389C96.2325 30.2389 98.7057 27.3597 98.7057 24.0729V24.0383C98.7057 20.7496 96.2702 17.9043 92.6396 17.9043ZM60.3977 17.9729C59.9679 17.9729 59.7153 18.1942 59.5456 18.5701L54.7048 29.149C54.6369 29.2855 54.6219 29.405 54.6219 29.5064C54.6219 29.8472 54.8933 30.1198 55.2326 30.1198C55.5418 30.1198 55.7642 29.9498 55.8811 29.6595L57.1252 26.8828H63.6663L64.9105 29.6255C65.0311 29.8981 65.2498 30.1198 65.574 30.1198C65.9322 30.1198 66.2225 29.8291 66.2225 29.4725C66.2225 29.3699 66.1885 29.2516 66.1395 29.132L61.2987 18.5701C61.1479 18.1942 60.8727 17.9729 60.4655 17.9729H60.3977ZM82.8976 18.0238C82.5395 18.0238 82.2341 18.3314 82.2341 18.7054V29.4378C82.2341 29.8125 82.5395 30.1198 82.8976 30.1198C83.2709 30.1198 83.5763 29.8125 83.5763 29.4378V18.7054C83.5763 18.3314 83.2709 18.0238 82.8976 18.0238ZM43.7866 18.109C43.4284 18.109 43.123 18.4159 43.123 18.791V29.4378C43.123 29.8125 43.4284 30.1198 43.7866 30.1198C44.1636 30.1198 44.469 29.8125 44.469 29.4378V25.4004H47.8922L51.2476 29.7616C51.4022 29.9664 51.6058 30.1198 51.881 30.1198C52.2203 30.1198 52.5596 29.8125 52.5596 29.4548C52.5596 29.2678 52.4767 29.1155 52.3409 28.9613L49.3776 25.1455C51.2325 24.787 52.5596 23.6465 52.5596 21.6868V21.6533C52.5596 20.7157 52.2203 19.8806 51.6397 19.3019C50.8932 18.5524 49.717 18.109 48.2504 18.109H43.7866ZM69.4572 18.109C69.0991 18.109 68.7937 18.4159 68.7937 18.791V29.353C68.7937 29.7281 69.0991 30.0342 69.4572 30.0342H72.9333C76.6807 30.0342 79.2708 27.4272 79.2708 24.0729V24.0383C79.2708 20.6817 76.6807 18.109 72.9333 18.109H69.4572ZM92.6057 19.1488C95.3314 19.1488 97.307 21.363 97.307 24.0729V24.1057C97.307 26.8149 95.3654 28.9959 92.6396 28.9959C89.9138 28.9959 87.9383 26.781 87.9383 24.0729V24.0383C87.9383 21.3302 89.8799 19.1488 92.6057 19.1488ZM44.469 19.3535H48.1486C50.0751 19.3535 51.1986 20.2384 51.1986 21.7046V21.7385C51.1986 23.2707 49.9205 24.1913 48.1335 24.1913H44.469V19.3535ZM70.1396 19.3535H72.9333C75.9456 19.3535 77.8721 21.4312 77.8721 24.0729V24.1057C77.8721 26.7474 75.9456 28.792 72.9333 28.792H70.1396V19.3535ZM60.3977 19.5575L63.1385 25.6568H57.653L60.3977 19.5575Z" fill="#939697"/>
<path d="M45.2305 1.61719C44.205 1.61719 43.3718 2.44959 43.3718 3.47721C43.3718 4.50471 44.205 5.3379 45.2305 5.3379C46.2597 5.3379 47.0929 4.50471 47.0929 3.47721C47.0929 2.44959 46.2597 1.61719 45.2305 1.61719ZM48.6688 2.5472V15.4628H52.2504V10.5557H56.8424V15.4628H60.4202V2.5472L56.8424 2.54712V7.3819H52.2504V2.54712L48.6688 2.5472ZM92.1645 2.95369V5.48154H90.9882V8.30384H92.1645V12.3642C92.1645 14.7424 93.4237 15.6669 95.5237 15.6669C96.5039 15.6669 97.3333 15.444 97.9591 15.093V12.345C97.5369 12.5475 97.092 12.6764 96.6321 12.6764C95.9874 12.6764 95.6707 12.382 95.6707 11.6807V8.30384H97.9969V5.48154H95.6707V2.95369H92.1645ZM66.4901 5.26062C63.5381 5.26062 61.4532 7.56641 61.4532 10.4815V10.5188C61.4532 13.6182 63.6663 15.7027 66.803 15.7027C68.7974 15.7027 70.181 14.891 71.1424 13.6728L69.2046 12.0675C68.4845 12.7695 67.8209 13.0843 66.9877 13.0843C65.902 13.0843 65.1065 12.5298 64.8312 11.4409H71.5081C71.527 11.2 71.527 10.9422 71.527 10.7212C71.527 7.78734 69.9397 5.26062 66.4901 5.26062ZM76.6128 5.26212C74.6184 5.26212 73.2348 6.0742 72.2734 7.29232L74.2113 8.89763C74.9314 8.19564 75.5949 7.88046 76.4281 7.88046C77.5026 7.88046 78.2905 8.42373 78.5733 9.48879L78.577 9.56532L76.2697 9.57474C73.4007 9.61245 71.8964 10.6813 71.8964 12.7066C71.8964 14.6568 73.2838 15.7027 75.6778 15.7027C76.9748 15.7027 77.9701 15.1937 78.6374 14.5004V15.4629H81.9551V10.5795C81.9588 10.5467 81.9588 10.5173 81.9588 10.4837V10.4468C81.9588 7.34699 79.7458 5.26212 76.6128 5.26212ZM89.6725 5.31227C88.2021 5.35411 87.3576 6.21181 86.8223 7.49176V5.48154H83.3161V15.4629H86.8223V12.3635C86.8223 10.0566 87.8553 9.00584 89.68 9.00584H89.9741V5.31528C89.8723 5.31076 89.7705 5.30925 89.6725 5.31227ZM45.1664 6.21332C44.156 6.21332 43.3379 7.03294 43.3379 8.04408V15.4629H47.1268V8.04408C47.1268 7.03294 46.3087 6.21332 45.2946 6.21332H45.1664ZM66.5089 7.84314C67.4666 7.84314 68.2432 8.53608 68.2432 9.60302H64.7747C64.8576 8.55569 65.5853 7.84314 66.5089 7.84314ZM76.6392 11.4349H78.6411V11.5439C78.6261 11.9541 78.4602 13.395 76.7259 13.4696C75.8173 13.5085 75.2782 12.9852 75.2782 12.3567C75.2782 11.7493 75.7608 11.4349 76.6392 11.4349Z" fill="white"/>
</svg>
