<svg width="564" height="144" viewBox="0 0 564 144" fill="none" xmlns="http://www.w3.org/2000/svg">
<path d="M66.0339 7C38.8919 7 30.9539 7.028 29.4109 7.156C23.8409 7.619 20.3749 8.496 16.5989 10.376C13.6889 11.821 11.3939 13.496 9.12893 15.844C5.00393 20.126 2.50393 25.394 1.59893 31.656C1.15893 34.696 1.03093 35.316 1.00493 50.844C0.994933 56.02 1.00493 62.832 1.00493 71.969C1.00493 99.089 1.03493 107.019 1.16493 108.559C1.61493 113.979 2.46493 117.389 4.26493 121.119C7.70493 128.259 14.2749 133.619 22.0149 135.619C24.6949 136.309 27.6549 136.689 31.4549 136.869C33.0649 136.939 49.4749 136.989 65.8949 136.989C82.3149 136.989 98.7349 136.969 100.305 136.889C104.705 136.682 107.26 136.339 110.085 135.609C117.875 133.599 124.325 128.319 127.835 121.079C129.6 117.439 130.495 113.899 130.9 108.762C130.988 107.642 131.025 89.785 131.025 71.952C131.025 54.116 130.985 36.292 130.897 35.172C130.487 29.952 129.592 26.442 127.77 22.732C126.275 19.695 124.615 17.427 122.205 15.108C117.904 11 112.644 8.5 106.376 7.596C103.339 7.157 102.734 7.027 87.1939 7H66.0339Z" fill="url(#paint0_radial_4091_77)"/>
<path d="M66.0339 7C38.8919 7 30.9539 7.028 29.4109 7.156C23.8409 7.619 20.3749 8.496 16.5989 10.376C13.6889 11.821 11.3939 13.496 9.12893 15.844C5.00393 20.126 2.50393 25.394 1.59893 31.656C1.15893 34.696 1.03093 35.316 1.00493 50.844C0.994933 56.02 1.00493 62.832 1.00493 71.969C1.00493 99.089 1.03493 107.019 1.16493 108.559C1.61493 113.979 2.46493 117.389 4.26493 121.119C7.70493 128.259 14.2749 133.619 22.0149 135.619C24.6949 136.309 27.6549 136.689 31.4549 136.869C33.0649 136.939 49.4749 136.989 65.8949 136.989C82.3149 136.989 98.7349 136.969 100.305 136.889C104.705 136.682 107.26 136.339 110.085 135.609C117.875 133.599 124.325 128.319 127.835 121.079C129.6 117.439 130.495 113.899 130.9 108.762C130.988 107.642 131.025 89.785 131.025 71.952C131.025 54.116 130.985 36.292 130.897 35.172C130.487 29.952 129.592 26.442 127.77 22.732C126.275 19.695 124.615 17.427 122.205 15.108C117.904 11 112.644 8.5 106.376 7.596C103.339 7.157 102.734 7.027 87.1939 7H66.0339Z" fill="url(#paint1_radial_4091_77)"/>
<path d="M66.004 24C52.968 24 51.332 24.057 46.212 24.29C41.102 24.524 37.614 25.333 34.562 26.52C31.405 27.746 28.727 29.386 26.059 32.055C23.389 34.723 21.749 37.401 20.519 40.557C19.329 43.61 18.519 47.099 18.289 52.207C18.06 57.327 18 58.964 18 72C18 85.036 18.058 86.667 18.29 91.787C18.525 96.897 19.334 100.385 20.52 103.437C21.747 106.594 23.387 109.272 26.056 111.94C28.723 114.61 31.401 116.254 34.556 117.48C37.61 118.667 41.099 119.476 46.208 119.71C51.328 119.943 52.963 120 65.998 120C79.035 120 80.666 119.943 85.786 119.71C90.896 119.476 94.388 118.667 97.442 117.48C100.598 116.254 103.272 114.61 105.939 111.94C108.609 109.272 110.249 106.594 111.479 103.438C112.659 100.385 113.469 96.896 113.709 91.788C113.939 86.668 113.999 85.036 113.999 72C113.999 58.964 113.939 57.328 113.709 52.208C113.469 47.098 112.659 43.61 111.479 40.558C110.249 37.401 108.609 34.723 105.939 32.055C103.269 29.385 100.599 27.745 97.439 26.52C94.379 25.333 90.889 24.524 85.779 24.29C80.659 24.057 79.029 24 65.989 24H66.004ZM61.698 32.65C62.976 32.648 64.402 32.65 66.004 32.65C78.82 32.65 80.339 32.696 85.4 32.926C90.08 33.14 92.62 33.922 94.312 34.579C96.552 35.449 98.149 36.489 99.828 38.169C101.508 39.849 102.548 41.449 103.42 43.689C104.077 45.379 104.86 47.919 105.073 52.599C105.303 57.659 105.353 59.179 105.353 71.989C105.353 84.799 105.303 86.319 105.073 91.379C104.859 96.059 104.077 98.599 103.42 100.289C102.55 102.529 101.508 104.124 99.828 105.803C98.148 107.483 96.553 108.523 94.312 109.393C92.622 110.053 90.08 110.833 85.4 111.047C80.34 111.277 78.82 111.327 66.004 111.327C53.187 111.327 51.668 111.277 46.608 111.047C41.928 110.831 39.388 110.049 37.695 109.392C35.455 108.522 33.855 107.482 32.175 105.802C30.495 104.122 29.455 102.526 28.583 100.285C27.926 98.595 27.143 96.055 26.93 91.375C26.7 86.315 26.654 84.795 26.654 71.977C26.654 59.159 26.7 57.647 26.93 52.587C27.144 47.907 27.926 45.367 28.583 43.675C29.453 41.435 30.495 39.835 32.175 38.155C33.855 36.475 35.455 35.435 37.695 34.563C39.387 33.903 41.928 33.123 46.608 32.908C51.036 32.708 52.752 32.648 61.698 32.638V32.65ZM91.626 40.62C88.446 40.62 85.866 43.197 85.866 46.378C85.866 49.558 88.446 52.138 91.626 52.138C94.806 52.138 97.386 49.558 97.386 46.378C97.386 43.198 94.806 40.618 91.626 40.618V40.62ZM66.004 47.35C52.391 47.35 41.354 58.387 41.354 72C41.354 85.613 52.391 96.645 66.004 96.645C79.617 96.645 90.65 85.613 90.65 72C90.65 58.387 79.617 47.35 66.004 47.35ZM66.004 56C74.84 56 82.004 63.163 82.004 72C82.004 80.836 74.84 88 66.004 88C57.167 88 50.004 80.836 50.004 72C50.004 63.163 57.167 56 66.004 56Z" fill="white"/>
<path d="M191.085 23.5719C183.304 26.8288 174.75 36.0303 172.049 47.58C168.628 62.214 182.865 68.4023 184.033 66.3732C185.408 63.989 181.482 63.1828 180.674 55.59C179.629 45.7833 184.189 34.8254 189.926 30.0173C190.993 29.1241 190.942 30.3674 190.942 32.6671C190.942 36.7795 190.715 73.6972 190.715 81.402C190.715 91.8275 190.284 95.1197 189.511 98.3728C188.727 101.669 187.468 103.897 188.422 104.755C189.489 105.715 194.042 103.432 196.679 99.7526C199.84 95.3399 200.946 90.0405 201.145 84.2855C201.385 77.3479 201.375 66.3395 201.385 60.0604C201.394 54.3015 201.482 37.4382 201.284 27.3006C201.235 24.814 194.339 22.2053 191.085 23.5688M467.386 72.3625C467.135 77.7824 465.935 82.0189 464.446 85.0071C461.564 90.792 455.582 92.5883 453.042 84.2722C451.658 79.7391 451.594 72.1684 452.589 65.8425C453.602 59.3983 456.43 54.5314 461.113 54.9703C465.733 55.4042 467.895 61.3566 467.386 72.3625ZM389.513 105.989C389.45 114.995 388.033 122.891 384.993 125.184C380.683 128.436 374.889 125.997 376.088 119.425C377.15 113.61 382.17 107.672 389.525 100.415C389.525 100.415 389.54 102.07 389.513 105.989ZM388.336 72.31C388.072 77.2465 386.792 82.2057 385.396 85.0077C382.514 90.7926 376.489 92.6011 373.992 84.2729C372.285 78.5827 372.694 71.2181 373.538 66.5777C374.635 60.5571 377.291 54.9716 382.063 54.9716C386.702 54.9716 388.99 60.0608 388.336 72.31ZM343.224 72.2345C342.941 77.4628 341.921 81.8333 340.284 85.0077C337.323 90.7528 331.464 92.5749 328.88 84.2729C327.017 78.2865 327.652 70.1239 328.426 65.7145C329.576 59.1711 332.456 54.532 336.951 54.9716C341.568 55.4227 343.813 61.3566 343.224 72.2345ZM549.961 78.3413C548.833 78.3413 548.318 79.5048 547.891 81.4633C546.413 88.2728 544.86 89.8104 542.856 89.8104C540.618 89.8104 538.607 86.4386 538.09 79.6889C537.683 74.3814 537.749 64.6102 538.268 54.8904C538.375 52.8934 537.824 50.9174 532.467 48.9716C530.162 48.1346 526.812 46.9022 525.144 50.929C520.43 62.3053 518.586 71.3372 518.152 75.0063C518.13 75.1961 517.897 75.2349 517.856 74.7913C517.58 71.8526 516.962 66.5125 516.885 55.2929C516.87 53.1039 516.406 51.2406 513.99 49.7151C512.422 48.7252 507.662 46.9745 505.947 49.0573C504.462 50.7607 502.742 55.3447 500.955 60.7786C499.503 65.195 498.491 68.1826 498.491 68.1826C498.491 68.1826 498.51 56.2662 498.527 51.7461C498.535 50.0408 497.365 49.4726 497.013 49.3696C495.425 48.9088 492.298 48.1391 490.97 48.1391C489.332 48.1391 488.931 49.0548 488.931 50.3889C488.931 50.5636 488.672 66.0781 488.672 76.9265C488.672 77.3977 488.672 77.9118 488.677 78.458C487.771 83.444 484.832 90.2125 481.637 90.2125C478.438 90.2125 476.928 87.3828 476.928 74.4498C476.928 66.905 477.155 63.6243 477.266 58.1675C477.331 55.0244 477.455 52.6108 477.448 52.0631C477.425 50.3834 474.52 49.5368 473.169 49.224C471.811 48.9085 470.631 48.7862 469.71 48.8387C468.406 48.9123 467.483 49.7678 467.483 50.9446C467.483 51.5755 467.49 52.7752 467.49 52.7752C465.81 50.1358 463.109 48.2987 461.311 47.7663C456.47 46.3285 451.418 47.6025 447.608 52.9346C444.579 57.1712 442.754 61.9696 442.035 68.8637C441.51 73.9037 441.681 79.0147 442.615 83.337C441.487 88.2143 439.393 90.2125 437.099 90.2125C433.77 90.2125 431.356 84.7783 431.637 75.3802C431.821 69.1986 433.058 64.8606 434.41 58.5847C434.987 55.9094 434.519 54.5087 433.344 53.1662C432.266 51.9351 429.97 51.3061 426.67 52.0797C424.319 52.6313 420.958 53.2244 417.882 53.68C417.882 53.68 418.068 52.9397 418.22 51.6344C419.02 44.789 411.582 45.3444 409.208 47.5308C407.792 48.8362 406.827 50.3757 406.461 53.1438C405.881 57.5366 409.464 59.6085 409.464 59.6085C408.288 64.9892 405.407 72.0183 402.432 77.1002C400.839 79.8229 399.62 81.8405 398.046 83.9852C398.04 83.1866 398.036 82.3881 398.033 81.5932C397.997 70.2808 398.148 61.3776 398.214 58.1686C398.279 55.0255 398.405 52.6759 398.398 52.1282C398.38 50.8996 397.663 50.4357 396.171 49.8482C394.851 49.3287 393.291 48.9691 391.673 48.8437C389.63 48.6843 388.4 49.7677 388.432 51.0487C388.438 51.2906 388.438 52.7757 388.438 52.7757C386.758 50.1362 384.057 48.2991 382.259 47.7667C377.418 46.3296 372.366 47.6036 368.556 52.935C365.528 57.1717 363.545 63.1167 362.983 68.8117C362.46 74.1194 362.556 78.6299 363.27 82.4295C362.5 86.2343 360.287 90.213 357.784 90.213C354.585 90.213 352.764 87.3832 352.764 74.4503C352.764 66.9055 352.991 63.6248 353.102 58.1686C353.167 55.0255 353.292 52.6113 353.285 52.0642C353.261 50.3845 350.356 49.5379 349.005 49.2244C347.591 48.8974 346.37 48.7771 345.433 48.8462C344.196 48.9384 343.326 50.046 343.326 50.8721V52.7757C341.646 50.1362 338.945 48.2991 337.147 47.7667C332.306 46.3296 327.283 47.6241 323.444 52.935C320.941 56.398 318.914 60.2373 317.871 68.7362C317.57 71.1922 317.437 73.492 317.454 75.6417C316.456 81.7463 312.047 88.7822 308.441 88.7822C306.33 88.7822 304.321 84.689 304.321 75.9655C304.321 64.3453 305.04 47.8007 305.161 46.2061C305.161 46.2061 309.718 46.1287 310.6 46.1184C312.873 46.0935 314.932 46.1472 317.959 45.9924C319.477 45.9149 320.94 40.4657 319.373 39.7913C318.663 39.4861 313.643 39.2187 311.653 39.1764C309.98 39.1385 305.321 38.7938 305.321 38.7938C305.321 38.7938 305.739 27.8122 305.836 26.6521C305.919 25.6852 304.668 25.1874 303.951 24.8854C302.206 24.1476 300.646 23.7944 298.796 23.413C296.24 22.8858 295.081 23.4015 294.854 25.5585C294.513 28.8322 294.337 38.4207 294.337 38.4207C292.461 38.4207 286.055 38.0541 284.179 38.0541C282.435 38.0541 280.554 45.5502 282.964 45.6423C285.737 45.7499 290.568 45.8427 293.772 45.9393C293.772 45.9393 293.629 62.7565 293.629 67.9485C293.629 68.5009 293.634 69.0328 293.635 69.5489C291.872 78.7376 285.662 83.7011 285.662 83.7011C286.996 77.6223 284.272 73.0574 279.365 69.1932C277.558 67.7692 273.989 65.0734 269.996 62.1193C269.996 62.1193 272.309 59.8401 274.36 55.2547C275.813 52.0067 275.875 48.2896 272.309 47.47C266.415 46.1147 261.556 50.4428 260.107 55.0634C258.984 58.6429 259.583 61.299 261.783 64.0581C261.943 64.2597 262.117 64.4657 262.297 64.6731C260.967 67.2372 259.139 70.6893 257.592 73.3664C253.295 80.7992 250.05 86.6784 247.597 86.6784C245.637 86.6784 245.663 80.7095 245.663 75.121C245.663 70.3032 246.019 63.0599 246.303 55.5606C246.397 53.0804 245.157 51.6675 243.078 50.3878C241.815 49.6104 239.119 48.0817 237.558 48.0817C235.221 48.0817 228.479 48.3997 222.108 66.8275C221.305 69.1502 219.728 73.3824 219.728 73.3824L219.864 51.2222C219.864 50.7026 219.587 50.2003 218.953 49.8567C217.88 49.2738 215.012 48.0817 212.463 48.0817C211.248 48.0817 210.642 48.6467 210.642 49.7729L210.42 84.4427C210.42 87.077 210.488 90.1501 210.749 91.4942C211.008 92.8399 211.429 93.9347 211.949 94.5861C212.469 95.2362 213.071 95.7321 214.062 95.9368C214.985 96.1268 220.038 96.7757 220.301 94.8446C220.616 92.5302 220.628 90.027 223.281 80.6911C227.412 66.1563 232.798 59.0645 235.33 56.546C235.773 56.1058 236.278 56.0795 236.254 56.8C236.146 59.9866 235.766 67.9492 235.51 74.714C234.824 92.8174 238.117 96.1729 242.824 96.1729C246.424 96.1729 251.5 92.5953 256.941 83.5392C260.333 77.8956 263.626 72.3618 265.992 68.3735C267.641 69.9 269.492 71.5429 271.341 73.298C275.638 77.3767 277.049 81.2524 276.113 84.9291C275.397 87.7398 272.701 90.6364 267.902 87.821C266.503 86.9996 265.906 86.365 264.499 85.439C263.744 84.9415 262.59 84.7928 261.898 85.314C260.102 86.6687 259.074 88.3919 258.487 90.5252C257.916 92.6011 259.995 93.6984 262.15 94.6582C264.006 95.4843 267.994 96.2329 270.538 96.3181C280.448 96.6495 288.387 91.533 293.914 78.335C294.903 89.7331 299.114 96.1831 306.429 96.1831C311.319 96.1831 316.223 89.8616 318.367 83.6428C318.982 86.1778 319.894 88.3822 321.07 90.2463C326.707 99.1771 337.642 97.2549 343.135 89.6712C344.833 87.3279 345.091 86.4858 345.091 86.4858C345.892 93.6467 351.659 96.1486 354.961 96.1486C358.659 96.1486 362.477 94.4005 365.153 88.376C365.466 89.0298 365.809 89.6542 366.182 90.2461C371.819 99.1769 382.754 97.2547 388.246 89.671C388.506 89.3153 388.73 88.9926 388.927 88.703L389.088 93.4065C389.088 93.4065 385.954 96.281 384.031 98.0444C375.565 105.811 369.128 111.704 368.655 118.566C368.047 127.316 375.143 130.567 380.512 130.994C386.213 131.446 391.095 128.297 394.096 123.889C396.736 120.009 398.463 111.66 398.337 103.413C398.286 100.111 398.203 95.9116 398.138 91.4108C401.113 87.9555 404.465 83.5883 407.552 78.4763C410.916 72.9054 414.521 65.4241 416.367 59.6019C416.367 59.6019 419.499 59.6287 422.842 59.4099C423.911 59.3402 424.218 59.5583 424.021 60.3422C423.782 61.2892 419.798 76.6578 423.434 86.8958C425.923 93.9044 431.534 96.1593 434.861 96.1593C438.755 96.1593 442.481 93.2184 444.477 88.8513C444.717 89.3381 444.969 89.8093 445.243 90.2442C450.88 99.175 461.777 97.2412 467.308 89.6691C468.556 87.9607 469.264 86.4837 469.264 86.4837C470.451 93.8948 476.215 96.1842 479.516 96.1842C482.955 96.1842 486.218 94.7745 488.866 88.5096C488.976 91.268 489.151 93.5236 489.426 94.2347C489.593 94.6696 490.57 95.2155 491.281 95.4792C494.427 96.6457 497.635 96.0941 498.822 95.8541C499.644 95.6877 500.286 95.0281 500.373 93.3246C500.604 88.852 500.462 81.3372 501.818 75.7523C504.094 66.3794 506.217 62.7436 507.225 60.9437C507.788 59.9352 508.424 59.7688 508.447 60.8362C508.495 62.9957 508.602 69.3376 509.484 77.8582C510.131 84.1248 510.997 87.8287 511.661 89.001C513.559 92.3533 515.902 92.512 517.81 92.512C519.024 92.512 521.562 92.1766 521.335 90.0433C521.224 89.0035 521.418 82.5772 523.662 73.3432C525.128 67.313 527.571 61.8644 528.452 59.8725C528.777 59.1379 528.928 59.717 528.923 59.8298C528.737 63.9826 528.321 77.5659 530.012 84.9949C532.306 95.0588 538.94 96.185 541.252 96.185C546.187 96.185 550.224 92.4307 551.583 82.5524C551.911 80.1752 551.426 78.3396 549.973 78.3396" fill="white"/>
<defs>
<radialGradient id="paint0_radial_4091_77" cx="0" cy="0" r="1" gradientUnits="userSpaceOnUse" gradientTransform="translate(35.5384 147.001) rotate(-90) scale(128.829 119.853)">
<stop stop-color="#FFDD55"/>
<stop offset="0.1" stop-color="#FFDD55"/>
<stop offset="0.5" stop-color="#FF543E"/>
<stop offset="1" stop-color="#C837AB"/>
</radialGradient>
<radialGradient id="paint1_radial_4091_77" cx="0" cy="0" r="1" gradientUnits="userSpaceOnUse" gradientTransform="translate(-20.7793 16.3642) rotate(78.6776) scale(57.5876 237.438)">
<stop stop-color="#3771C8"/>
<stop offset="0.128" stop-color="#3771C8"/>
<stop offset="1" stop-color="#6600FF" stop-opacity="0"/>
</radialGradient>
</defs>
</svg>
