<svg width="1280" height="367" viewBox="0 0 1280 367" fill="none" xmlns="http://www.w3.org/2000/svg">
<g clip-path="url(#clip0_2778_1238)">
<mask id="mask0_2778_1238" style="mask-type:luminance" maskUnits="userSpaceOnUse" x="0" y="0" width="1280" height="367">
<path d="M1280 0H0V366.93H1280V0Z" fill="white"/>
</mask>
<g mask="url(#mask0_2778_1238)">
<path d="M491.726 107.091C452.832 107.091 431.387 125.152 431.387 154.425C431.387 183.902 455.196 194.012 478.802 198.864C493.031 201.962 504.161 201.962 504.161 210.728C504.161 217.985 498.045 221.94 484.51 221.94C469.425 221.94 451.731 213.786 442.558 205.428C441.253 204.328 428.125 215.784 428.125 226.343C428.125 241.306 442.965 255.616 484.51 255.616C527.114 255.616 548.315 238.248 548.315 207.222C548.315 181.007 527.115 168.898 499.391 162.783C484.551 159.48 473.176 160.133 473.176 151.775C473.176 144.721 479.536 140.767 492.216 140.767C505.547 140.767 520.184 147.412 529.561 156.178C530.417 157.034 545.094 146.475 545.094 134.162C545.094 120.056 528.909 107.091 491.767 107.091H491.726ZM580.89 109.048C568.863 109.048 562.544 115.897 562.544 129.515V233.111C562.544 246.525 568.904 253.578 580.89 253.578H587.25C599.93 253.578 606.494 246.525 606.494 233.111V199.475H651.708V233.111C651.708 246.525 658.027 253.578 670.054 253.578H676.618C689.053 253.578 695.617 246.525 695.617 233.111V129.515C695.617 115.857 689.053 109.048 676.618 109.048H670.054C658.068 109.048 651.708 115.897 651.708 129.515V162.497H606.494V129.515C606.494 115.857 599.93 109.048 587.25 109.048H580.89ZM871.988 110.19C860.083 110.516 853.927 115.612 853.927 127.313V129.311C853.927 141.827 860.491 146.475 873.17 146.475H917.528L863.793 207.874C856.577 215.784 852.215 220.391 852.215 233.152V235.149C852.215 243.711 858.575 252.518 874.312 252.518H956.708C969.387 252.518 975.911 247.258 975.911 235.149V233.396C975.911 220.88 969.346 216.028 956.708 216.028H908.191L963.027 154.629C970.039 147.127 974.606 142.071 974.606 129.555V127.353C974.606 118.792 968.246 110.23 952.305 110.23H873.211H872.07L871.988 110.19ZM771.327 106.48C743.032 106.48 715.88 120.137 715.88 138.158C715.88 160.54 743.399 159.97 743.399 159.97C746.376 147.861 756.283 141.623 769.166 141.623C788.94 141.623 796.278 151.367 796.278 165.433H786.615C730.027 165.433 708.663 188.183 708.663 214.112C708.663 239.186 729.497 255.942 756.854 255.942C775.934 255.942 794.239 248.889 797.664 235.394C799.417 245.709 809.039 254.801 821.8 254.801C833.134 254.801 838.516 250.928 839.005 249.542V162.375C839.005 126.62 815.073 106.48 771.327 106.48ZM786.657 189.691H796.278V199.68C796.278 214.683 784.903 224.753 770.185 224.753C759.585 224.753 752.736 219.168 752.736 210.525C752.736 196.051 772.061 190.058 786.657 189.691ZM1047.54 106.48C1019.25 106.48 992.097 120.137 992.097 138.158C992.097 160.54 1019.62 159.97 1019.62 159.97C1022.59 147.861 1032.5 141.623 1045.34 141.623C1065.12 141.623 1072.45 151.367 1072.45 165.433H1062.79C1006.16 165.433 984.839 188.183 984.839 214.112C984.839 239.186 1005.67 255.942 1033.03 255.942C1052.11 255.942 1070.42 248.889 1073.84 235.394C1075.59 245.709 1085.22 254.801 1097.98 254.801C1109.31 254.801 1114.69 250.928 1115.18 249.542V162.375C1115.18 126.62 1091.25 106.48 1047.5 106.48H1047.54ZM1062.87 189.691H1072.49V199.68C1072.49 214.683 1061.12 224.753 1046.4 224.753C1035.8 224.753 1028.95 219.168 1028.95 210.525C1028.95 196.051 1048.32 190.058 1062.87 189.691ZM1150.85 109.048C1138.42 109.048 1131.41 116.101 1131.41 130.167V233.111C1131.41 246.525 1136.42 253.578 1148.45 253.578H1155.46C1168.14 253.578 1172.5 246.525 1172.5 233.111V173.913L1187.14 213.949C1189.55 219.657 1189.1 224.712 1205.49 224.712C1221.88 224.712 1222.12 219.453 1224.08 213.949L1238.92 172.16V233.07C1238.92 246.483 1243.93 253.537 1255.96 253.537H1262.97C1275.41 253.537 1280.01 246.483 1280.01 233.07V130.126C1280.01 116.061 1273 109.007 1259.87 109.007H1247.64C1237.57 109.007 1233.01 111.209 1228.85 120.871L1205.69 177.867L1182.78 120.871C1178.86 111.861 1174.91 109.007 1163.33 109.007L1150.85 109.048Z" fill="white"/>
<path d="M183.465 -0.0117188C134.807 -0.0117188 88.1415 19.3171 53.7352 53.7235C19.3288 88.1298 0 134.795 0 183.453C0 232.111 19.3288 278.776 53.7352 313.182C88.1415 347.589 134.807 366.918 183.465 366.918C232.123 366.918 278.788 347.589 313.194 313.182C347.6 278.776 366.93 232.111 366.93 183.453C366.93 134.795 347.6 88.1298 313.194 53.7235C278.788 19.3171 232.123 -0.0117188 183.465 -0.0117188Z" fill="url(#paint0_linear_2778_1238)"/>
<path d="M214.246 113.126C194.717 113.33 175.27 120.098 160.512 133.307C152.378 140.767 144.558 148.562 137.069 156.669C129.323 165.067 129.853 178.195 138.292 185.901C142.347 189.614 147.708 191.57 153.201 191.341C158.695 191.112 163.874 188.716 167.605 184.678L188.153 164.13C203.687 150.227 228.516 152.632 241.113 163.477C250.694 171.713 256.362 182.72 257.096 194.462C257.426 199.941 256.646 205.43 254.803 210.6C252.961 215.77 250.094 220.515 246.373 224.551L199.61 271.558C191.334 279.468 191.048 292.555 198.957 300.831C202.761 304.796 207.979 307.095 213.472 307.225C218.964 307.354 224.285 305.305 228.271 301.524L277.114 252.396C284.556 244.272 290.284 234.731 293.955 224.342C297.625 213.954 299.164 202.931 298.477 191.934C297.091 168.981 286.369 147.74 268.226 132.125C253.263 119.242 233.775 112.922 214.246 113.126ZM152.439 59.7175C147.465 59.8398 142.532 61.7563 138.658 65.4663L89.8161 114.594C82.3712 122.71 76.6391 132.244 72.9615 142.625C69.2839 153.006 67.7366 164.022 68.4121 175.015C69.1781 186.5 72.2516 197.711 77.4494 207.981C82.6471 218.25 89.8626 227.367 98.6636 234.784C113.382 247.464 132.544 253.823 151.746 253.823C171.814 254.013 191.253 246.832 206.378 233.643C217.141 224.021 229.29 210.852 229.82 210.281C233.521 206.228 235.469 200.876 235.24 195.393C235.011 189.909 232.623 184.739 228.597 181.008C224.544 177.308 219.192 175.359 213.709 175.588C208.225 175.817 203.055 178.205 199.324 182.232L178.735 202.82C163.202 216.682 138.373 214.317 125.775 203.473C121.168 199.648 117.38 194.932 114.641 189.608C111.902 184.283 110.267 178.46 109.835 172.488C109.142 161.439 112.974 150.757 120.557 142.358L167.32 95.3912C175.596 87.4819 175.882 74.3946 167.972 66.1183C165.971 64.0295 163.556 62.3811 160.881 61.279C158.206 60.1768 155.331 59.6451 152.439 59.7175Z" fill="white"/>
</g>
</g>
<defs>
<linearGradient id="paint0_linear_2778_1238" x1="183.465" y1="366.918" x2="183.465" y2="-0.0117188" gradientUnits="userSpaceOnUse">
<stop stop-color="#066AFF"/>
<stop offset="1" stop-color="#00BBFF"/>
</linearGradient>
<clipPath id="clip0_2778_1238">
<rect width="1280" height="367" fill="white"/>
</clipPath>
</defs>
</svg>
