<?xml version="1.0" encoding="UTF-8"?> <svg xmlns="http://www.w3.org/2000/svg" width="732" height="203" viewBox="0 0 732 203" fill="none"> <path fillRule="evenodd" clipRule="evenodd" d="M300.768 86.8607H318.961V133.136H338.342V86.8607H356.14V69.8535H300.768V86.8607ZM399.251 86.8607H427.333V69.8535H399.251C373.542 69.8535 360.095 82.51 360.095 101.495C360.095 120.48 373.938 133.136 399.251 133.136H427.333V116.129H399.251C387.385 116.129 379.475 111.778 379.475 101.495C379.475 91.2114 387.385 86.8607 399.251 86.8607ZM259.238 69.8535L249.35 107.823L239.067 69.8535H205.844V133.136H224.829V81.719L238.672 133.136H260.425L274.268 81.719V133.136H292.857V69.8535H259.238Z" fill="#E30611"></path> <path fillRule="evenodd" clipRule="evenodd" d="M300.768 86.8607H318.961V133.136H338.342V86.8607H356.14V69.8535H300.768V86.8607ZM399.251 86.8607H427.333V69.8535H399.251C373.542 69.8535 360.095 82.51 360.095 101.495C360.095 120.48 373.938 133.136 399.251 133.136H427.333V116.129H399.251C387.385 116.129 379.475 111.778 379.475 101.495C379.475 91.2114 387.385 86.8607 399.251 86.8607ZM259.238 69.8535L249.35 107.823L239.067 69.8535H205.844V133.136H224.829V81.719L238.672 133.136H260.425L274.268 81.719V133.136H292.857V69.8535H259.238Z" fill="url(#paint0_linear_601_143839)"></path> <path d="M490.758 122.096L508.357 69.8481H521.373V133.095H513.123V76.8145L494.149 133.095H486.633L467.75 77.0895V133.095H459.959V69.8481H473.158L490.758 122.096Z" fill="#E30611"></path> <path d="M490.758 122.096L508.357 69.8481H521.373V133.095H513.123V76.8145L494.149 133.095H486.633L467.75 77.0895V133.095H459.959V69.8481H473.158L490.758 122.096Z" fill="url(#paint1_linear_601_143839)"></path> <path d="M543.895 116.504C543.895 120.904 544.872 124.021 546.828 125.854C548.844 127.687 551.625 128.604 555.169 128.604C558.713 128.604 561.524 127.657 563.602 125.762C565.68 123.807 566.719 120.721 566.719 116.504V87.4473H574.51V133.095H567.085V126.587C565.68 129.337 563.694 131.323 561.127 132.545C558.622 133.767 555.658 134.379 552.236 134.379C546.675 134.379 542.581 132.942 539.953 130.07C537.387 127.137 536.103 122.615 536.103 116.504V87.4473H543.895V116.504Z" fill="#E30611"></path> <path d="M543.895 116.504C543.895 120.904 544.872 124.021 546.828 125.854C548.844 127.687 551.625 128.604 555.169 128.604C558.713 128.604 561.524 127.657 563.602 125.762C565.68 123.807 566.719 120.721 566.719 116.504V87.4473H574.51V133.095H567.085V126.587C565.68 129.337 563.694 131.323 561.127 132.545C558.622 133.767 555.658 134.379 552.236 134.379C546.675 134.379 542.581 132.942 539.953 130.07C537.387 127.137 536.103 122.615 536.103 116.504V87.4473H543.895V116.504Z" fill="url(#paint2_linear_601_143839)"></path> <path d="M615.237 120.812C615.237 118.796 614.534 117.299 613.128 116.321C611.723 115.343 609.951 114.579 607.812 114.029C605.734 113.479 603.443 113.021 600.937 112.655C598.493 112.227 596.201 111.585 594.063 110.73C591.985 109.874 590.243 108.621 588.838 106.971C587.432 105.322 586.73 102.969 586.73 99.9134C586.73 98.0802 587.035 96.3692 587.646 94.7803C588.257 93.1304 589.235 91.6944 590.579 90.4722C591.985 89.25 593.788 88.3029 595.988 87.6307C598.187 86.8974 600.846 86.5307 603.962 86.5307C606.59 86.5307 609.004 86.8057 611.204 87.3557C613.403 87.8445 615.298 88.6695 616.887 89.8306C618.475 90.9305 619.728 92.3971 620.645 94.2304C621.623 96.0025 622.173 98.1719 622.295 100.738H614.503C614.442 99.0885 614.106 97.7441 613.495 96.7053C612.945 95.6664 612.181 94.872 611.204 94.322C610.287 93.7109 609.218 93.2832 607.995 93.0388C606.773 92.7943 605.459 92.6721 604.054 92.6721C600.876 92.6721 598.524 93.2832 596.996 94.5054C595.468 95.7275 594.704 97.3774 594.704 99.4551C594.704 101.472 595.407 102.969 596.813 103.947C598.218 104.863 599.96 105.597 602.037 106.146C604.176 106.635 606.468 107.094 608.912 107.521C611.417 107.888 613.709 108.53 615.787 109.446C617.925 110.302 619.698 111.555 621.103 113.205C622.509 114.854 623.211 117.207 623.211 120.263C623.211 124.662 621.684 128.054 618.628 130.437C615.634 132.82 611.112 134.012 605.062 134.012C602.373 134.012 599.868 133.706 597.546 133.095C595.224 132.545 593.177 131.69 591.404 130.529C589.693 129.307 588.288 127.779 587.188 125.946C586.149 124.051 585.538 121.79 585.355 119.163H593.146C593.268 120.812 593.665 122.187 594.338 123.287C595.01 124.387 595.865 125.304 596.904 126.037C597.943 126.709 599.135 127.198 600.479 127.504C601.885 127.748 603.382 127.871 604.971 127.871C608.148 127.871 610.654 127.351 612.487 126.312C614.32 125.212 615.237 123.379 615.237 120.812Z" fill="#E30611"></path> <path d="M615.237 120.812C615.237 118.796 614.534 117.299 613.128 116.321C611.723 115.343 609.951 114.579 607.812 114.029C605.734 113.479 603.443 113.021 600.937 112.655C598.493 112.227 596.201 111.585 594.063 110.73C591.985 109.874 590.243 108.621 588.838 106.971C587.432 105.322 586.73 102.969 586.73 99.9134C586.73 98.0802 587.035 96.3692 587.646 94.7803C588.257 93.1304 589.235 91.6944 590.579 90.4722C591.985 89.25 593.788 88.3029 595.988 87.6307C598.187 86.8974 600.846 86.5307 603.962 86.5307C606.59 86.5307 609.004 86.8057 611.204 87.3557C613.403 87.8445 615.298 88.6695 616.887 89.8306C618.475 90.9305 619.728 92.3971 620.645 94.2304C621.623 96.0025 622.173 98.1719 622.295 100.738H614.503C614.442 99.0885 614.106 97.7441 613.495 96.7053C612.945 95.6664 612.181 94.872 611.204 94.322C610.287 93.7109 609.218 93.2832 607.995 93.0388C606.773 92.7943 605.459 92.6721 604.054 92.6721C600.876 92.6721 598.524 93.2832 596.996 94.5054C595.468 95.7275 594.704 97.3774 594.704 99.4551C594.704 101.472 595.407 102.969 596.813 103.947C598.218 104.863 599.96 105.597 602.037 106.146C604.176 106.635 606.468 107.094 608.912 107.521C611.417 107.888 613.709 108.53 615.787 109.446C617.925 110.302 619.698 111.555 621.103 113.205C622.509 114.854 623.211 117.207 623.211 120.263C623.211 124.662 621.684 128.054 618.628 130.437C615.634 132.82 611.112 134.012 605.062 134.012C602.373 134.012 599.868 133.706 597.546 133.095C595.224 132.545 593.177 131.69 591.404 130.529C589.693 129.307 588.288 127.779 587.188 125.946C586.149 124.051 585.538 121.79 585.355 119.163H593.146C593.268 120.812 593.665 122.187 594.338 123.287C595.01 124.387 595.865 125.304 596.904 126.037C597.943 126.709 599.135 127.198 600.479 127.504C601.885 127.748 603.382 127.871 604.971 127.871C608.148 127.871 610.654 127.351 612.487 126.312C614.32 125.212 615.237 123.379 615.237 120.812Z" fill="url(#paint3_linear_601_143839)"></path> <path d="M634.043 133.095V87.4473H641.834V133.095H634.043ZM643.484 71.5897C643.484 75.2562 641.589 77.0895 637.801 77.0895C634.195 77.0895 632.393 75.2562 632.393 71.5897C632.393 67.9843 634.195 66.1816 637.801 66.1816C641.589 66.1816 643.484 67.9843 643.484 71.5897Z" fill="#E30611"></path> <path d="M634.043 133.095V87.4473H641.834V133.095H634.043ZM643.484 71.5897C643.484 75.2562 641.589 77.0895 637.801 77.0895C634.195 77.0895 632.393 75.2562 632.393 71.5897C632.393 67.9843 634.195 66.1816 637.801 66.1816C641.589 66.1816 643.484 67.9843 643.484 71.5897Z" fill="url(#paint4_linear_601_143839)"></path> <path d="M692.451 119.346C691.656 124.601 689.579 128.359 686.218 130.62C682.918 132.881 678.671 134.012 673.477 134.012C660.094 134.012 653.403 126.129 653.403 110.363C653.403 102.602 655.022 96.7053 658.261 92.6721C661.5 88.5779 666.572 86.5307 673.477 86.5307C676.104 86.5307 678.488 86.8057 680.626 87.3557C682.826 87.8445 684.721 88.6695 686.31 89.8306C687.959 90.9916 689.273 92.5499 690.251 94.5054C691.229 96.3997 691.87 98.7524 692.176 101.563H684.385C683.957 98.2024 682.765 95.8803 680.81 94.597C678.915 93.3137 676.471 92.6721 673.477 92.6721C669.444 92.6721 666.449 93.9554 664.494 96.5219C662.538 99.0274 661.561 102.663 661.561 107.43V113.113C661.561 118.063 662.569 121.76 664.586 124.204C666.663 126.648 669.627 127.871 673.477 127.871C676.532 127.871 679.038 127.259 680.993 126.037C682.949 124.815 684.171 122.585 684.66 119.346H692.451Z" fill="#E30611"></path> <path d="M692.451 119.346C691.656 124.601 689.579 128.359 686.218 130.62C682.918 132.881 678.671 134.012 673.477 134.012C660.094 134.012 653.403 126.129 653.403 110.363C653.403 102.602 655.022 96.7053 658.261 92.6721C661.5 88.5779 666.572 86.5307 673.477 86.5307C676.104 86.5307 678.488 86.8057 680.626 87.3557C682.826 87.8445 684.721 88.6695 686.31 89.8306C687.959 90.9916 689.273 92.5499 690.251 94.5054C691.229 96.3997 691.87 98.7524 692.176 101.563H684.385C683.957 98.2024 682.765 95.8803 680.81 94.597C678.915 93.3137 676.471 92.6721 673.477 92.6721C669.444 92.6721 666.449 93.9554 664.494 96.5219C662.538 99.0274 661.561 102.663 661.561 107.43V113.113C661.561 118.063 662.569 121.76 664.586 124.204C666.663 126.648 669.627 127.871 673.477 127.871C676.532 127.871 679.038 127.259 680.993 126.037C682.949 124.815 684.171 122.585 684.66 119.346H692.451Z" fill="url(#paint5_linear_601_143839)"></path> <path d="M40 69.4941C40 53.4779 52.9837 40.4941 69 40.4941H133C149.016 40.4941 162 53.4779 162 69.4941V133.494C162 149.51 149.016 162.494 133 162.494H69C52.9837 162.494 40 149.51 40 133.494V69.4941Z" fill="#E30611"></path> <path d="M40 69.4941C40 53.4779 52.9837 40.4941 69 40.4941H133C149.016 40.4941 162 53.4779 162 69.4941V133.494C162 149.51 149.016 162.494 133 162.494H69C52.9837 162.494 40 149.51 40 133.494V69.4941Z" fill="url(#paint6_linear_601_143839)"></path> <path fillRule="evenodd" clipRule="evenodd" d="M96.8125 67.0059H109.028V123.965L96.8125 106.549V67.0059Z" fill="url(#paint7_linear_601_143839)"></path> <path d="M90.5135 142.495C100.738 142.495 109.027 134.199 109.027 123.966C109.027 113.733 100.738 105.438 90.5135 105.438C80.2888 105.438 72 113.733 72 123.966C72 134.199 80.2888 142.495 90.5135 142.495Z" fill="url(#paint8_linear_601_143839)"></path> <path fillRule="evenodd" clipRule="evenodd" d="M98.3969 58.2986L133.075 74.9211C133.548 75.1499 133.853 75.6226 133.853 76.1259V93.9074C133.853 94.5631 133.319 95.0206 132.664 94.9444C132.526 94.9291 132.389 94.8834 132.267 94.8224L97.6039 78.2151C97.1312 77.9864 96.8262 77.5136 96.8262 77.0104V59.2289C96.8262 58.5731 97.3599 58.1156 98.0157 58.1919C98.1377 58.1919 98.2749 58.2376 98.3969 58.2986Z" fill="url(#paint9_linear_601_143839)"></path> <defs> <linearGradient id="paint0_linear_601_143839" x1="205.844" y1="133.136" x2="239.276" y2="16.1231" gradientUnits="userSpaceOnUse"> <stop stop-color="#E30611"></stop> <stop offset="1" stop-color="#FF535C"></stop> </linearGradient> <linearGradient id="paint1_linear_601_143839" x1="459.959" y1="134.379" x2="496.798" y2="8.79065" gradientUnits="userSpaceOnUse"> <stop stop-color="#E30611"></stop> <stop offset="1" stop-color="#FF535C"></stop> </linearGradient> <linearGradient id="paint2_linear_601_143839" x1="459.959" y1="134.379" x2="496.798" y2="8.79065" gradientUnits="userSpaceOnUse"> <stop stop-color="#E30611"></stop> <stop offset="1" stop-color="#FF535C"></stop> </linearGradient> <linearGradient id="paint3_linear_601_143839" x1="459.959" y1="134.379" x2="496.798" y2="8.79065" gradientUnits="userSpaceOnUse"> <stop stop-color="#E30611"></stop> <stop offset="1" stop-color="#FF535C"></stop> </linearGradient> <linearGradient id="paint4_linear_601_143839" x1="459.959" y1="134.379" x2="496.798" y2="8.79065" gradientUnits="userSpaceOnUse"> <stop stop-color="#E30611"></stop> <stop offset="1" stop-color="#FF535C"></stop> </linearGradient> <linearGradient id="paint5_linear_601_143839" x1="459.959" y1="134.379" x2="496.798" y2="8.79065" gradientUnits="userSpaceOnUse"> <stop stop-color="#E30611"></stop> <stop offset="1" stop-color="#FF535C"></stop> </linearGradient> <linearGradient id="paint6_linear_601_143839" x1="40" y1="162.494" x2="162" y2="40.4941" gradientUnits="userSpaceOnUse"> <stop stop-color="#E30611"></stop> <stop offset="1" stop-color="#FF535C"></stop> </linearGradient> <linearGradient id="paint7_linear_601_143839" x1="108.446" y1="78.1144" x2="91.1703" y2="132.443" gradientUnits="userSpaceOnUse"> <stop stop-color="white"></stop> <stop offset="0.4549" stop-color="#FFF5F5"></stop> <stop offset="1" stop-color="#E3B4BA"></stop> </linearGradient> <linearGradient id="paint8_linear_601_143839" x1="98.9378" y1="108.97" x2="73.817" y2="153.658" gradientUnits="userSpaceOnUse"> <stop stop-color="white"></stop> <stop offset="0.5201" stop-color="#FFF5F5"></stop> <stop offset="1" stop-color="#EEBEC4"></stop> </linearGradient> <linearGradient id="paint9_linear_601_143839" x1="130.672" y1="64.65" x2="83.848" y2="101.036" gradientUnits="userSpaceOnUse"> <stop stop-color="white"></stop> <stop offset="0.4549" stop-color="#FFF5F5"></stop> <stop offset="1" stop-color="#EEBEC4"></stop> </linearGradient> </defs> </svg> 