<svg id="Слой_1" data-name="Слой 1" xmlns="http://www.w3.org/2000/svg" viewBox="0 0 508.52 100"><defs><style>.cls-1{fill:#fff;}.cls-2{fill:#07f;}.cls-2,.cls-3{fillRule:evenodd;}.cls-3{fill:#f45fff;}</style></defs><title>VK</title><path class="cls-1" d="M163.6,75,182,24.64h-9.07l-14.71,41.5h-1.43l-14.22-41.5h-9.21L151.1,75Z" transform="translate(-0.45 0)"/><path class="cls-1" d="M205.75,48.93l21.36-24.29H216.54l-17.86,20.5h-2.07V24.64H188V75h8.57V53.43h2.14L217.61,75h11.28Z" transform="translate(-0.45 0)"/><path class="cls-1" d="M257.64,75V36.07h1.14L272.85,75h8l14.36-38.93h1.14V75h8.36V24.64H291.57l-14,38.07h-1.15L262.71,24.64H249.28V75Z" transform="translate(-0.45 0)"/><path class="cls-1" d="M331.62,64.64h-1.14L319.55,37.86h-8.78L327.27,77l-.43,1.14c-1.07,3-2.36,4-5.07,4h-6.93l.71,7.5h5.64c6.86,0,10.58-3.07,13.08-10l15.21-41.78h-8.36Z" transform="translate(-0.45 0)"/><path class="cls-1" d="M375.32,56.07a8.44,8.44,0,0,0,6.57-8.28c0-6.22-5.93-10.65-14.14-10.65-7.36,0-13.58,3.43-15.86,10.5l7.57,1.29a8.77,8.77,0,0,1,8-4.79c3.43,0,6.21,1.72,6.21,4.5,0,2.5-2.28,4.15-6.71,4.15h-4.64v7.14H367c5.57,0,7.29,1.86,7.29,4.21,0,2.86-2.58,4.57-7.29,4.57-4.29,0-6.79-1.42-8.43-4.71L351,65.29c1.79,6.21,7.86,10.42,16.07,10.42,9.43,0,15.43-4.85,15.43-10.92C382.46,60.14,379.1,57.21,375.32,56.07Z" transform="translate(-0.45 0)"/><path class="cls-1" d="M404.31,75c8.86,0,15.14-5.5,15.14-13.29s-6.21-13.28-15.14-13.28h-5.79V37.86h-8.21V75Zm27.78,0V37.86h-8.21V75ZM398.52,55.57h5.79c4.07,0,6.93,2.5,6.93,6.14s-2.86,6.15-6.93,6.15h-5.79Z" transform="translate(-0.45 0)"/><path class="cls-1" d="M475.23,75,458.15,55.71,473.8,37.86H464L451.58,52.29h-2V37.86h-8.21V75h8.21V60.21h2L464.44,75Z" transform="translate(-0.45 0)"/><path class="cls-1" d="M493.62,37.14c-7.21,0-13.57,3.72-15.43,10.15l7.57,1.28a8.19,8.19,0,0,1,7.43-4.43c4.5,0,7.14,3.22,7.5,8.07h-8c-10.93,0-16.36,4.79-16.36,11.65s5.36,11.85,12.93,11.85a13.71,13.71,0,0,0,11.93-6.57L502.91,75H509V54.14C509,43.36,503.12,37.14,493.62,37.14Zm-2.43,31.65c-4,0-6.57-2.08-6.57-5.29,0-2.86,2.07-4.86,8.36-4.86h7.78C500.76,64.71,496.91,68.79,491.19,68.79Z" transform="translate(-0.45 0)"/><path class="cls-2" d="M7.48,7C.66,13.85.46,24.7.45,46c19.09,0,31-8.2,41.46-15.38C50.08,25,57.35,20,66.45,20,80,20,91.83,29.58,98.1,34.66c.88.71,1.66,1.34,2.31,1.84-.2-15.19-1.27-23.75-7-29.47-7-7-18.34-7-41-7h-4C25.83,0,14.51,0,7.48,7Zm38,93h0Z" transform="translate(-0.45 0)"/><path class="cls-3" d="M.45,46c19.09,0,31-8.2,41.46-15.38C50.08,25,57.35,20,66.45,20,80,20,91.83,29.58,98.1,34.66c.88.71,1.66,1.34,2.31,1.84,0,3.47,0,7.29,0,11.5v4c0,22.63,0,33.94-7,41-6.71,6.72-17.35,7-38,7H45.51c-20.68,0-31.31-.31-38-7-7-7-7-18.34-7-41V46Z" transform="translate(-0.45 0)"/><path class="cls-1" d="M78,51a4.5,4.5,0,0,1,9,0V69a4.5,4.5,0,0,1-9,0Z" transform="translate(-0.45 0)"/><path class="cls-1" d="M62,39.48a4.5,4.5,0,0,1,9,0V80.53a4.5,4.5,0,0,1-9,0Z" transform="translate(-0.45 0)"/><path class="cls-1" d="M46,51a4.5,4.5,0,0,1,9,0V69a4.5,4.5,0,0,1-9,0Z" transform="translate(-0.45 0)"/><path class="cls-1" d="M30,57.47a4.5,4.5,0,0,1,9,0v5.05a4.5,4.5,0,0,1-9,0Z" transform="translate(-0.45 0)"/><path class="cls-1" d="M14,57.47a4.5,4.5,0,0,1,9,0v5.05a4.5,4.5,0,0,1-9,0Z" transform="translate(-0.45 0)"/></svg>