<svg id="Layer_1" data-name="Layer 1" xmlns="http://www.w3.org/2000/svg" viewBox="0 0 943.3 124.9"><defs><style>.cls-1{fill:#fcca00;}.cls-2{fill:#fc3f1d;}.cls-3{fill:#fff;}</style></defs><title>yandex_music</title><path class="cls-1" d="M425.5,16.5A60.92,60.92,0,0,1,455.9,5V23.1A41.58,41.58,0,0,0,436.3,31a41.95,41.95,0,0,0-14.6,47.8,41.71,41.71,0,0,0,16.2,20.8,42.42,42.42,0,0,0,25.4,7.1A41.83,41.83,0,0,0,502,75.1a42.81,42.81,0,0,0,.5-18.5l15.2-12.2v-.1a60.71,60.71,0,0,1,1.8,35.3,59.67,59.67,0,0,1-20.2,31.7,60.39,60.39,0,0,1-35.1,13.5A60,60,0,0,1,404.9,85a60.42,60.42,0,0,1-.9-37.6A59.25,59.25,0,0,1,425.5,16.5Z" transform="translate(-7 -5)"/><path class="cls-2" d="M506.2,25l.1.2L496.1,41.3A42.69,42.69,0,0,0,481.7,28V64.7a20.44,20.44,0,1,1-9-16.9V5.8A60.41,60.41,0,0,1,506.2,25Z" transform="translate(-7 -5)"/><path class="cls-3" d="M51.3,109.8H67V19.4H44.2c-23,0-35.1,11.8-35.1,29.3,0,13.9,6.6,22.1,18.5,30.5L7,109.8H24L46.9,75.6,39,70.2c-9.6-6.5-14.3-11.6-14.3-22.5,0-9.6,6.8-16.1,19.6-16.1h7Zm303.3,1.3c7.1,0,12.2-1.3,16-4V94.4a25.3,25.3,0,0,1-15.1,4.4c-11.1,0-15.6-8.6-15.6-22.1,0-14.2,5.6-21.5,15.7-21.5a30.78,30.78,0,0,1,14.9,4v-13c-3.2-1.8-9-3.1-16.6-3.1-19.8,0-30,14.2-30,34.1C324,99,334,111.1,354.6,111.1Zm-96.7-5.8V92.7a40,40,0,0,1-20.4,6.1c-11.3,0-15.6-5.3-16.2-16.2h37.3V74.4c0-22.7-10-31.3-25.5-31.3-18.9,0-27.8,14.4-27.8,34.2,0,22.8,11.2,33.8,30.9,33.8C246.1,111.1,253.4,108.5,257.9,105.3ZM116.2,44.4V70.3H95.5V44.4H80.1v65.4H95.6V82.5h20.7v27.3h15.5V44.4Zm85.3,53.1h-6.9V44.4H149.5V50c0,16-1,36.7-6.5,47.6h-4.8v27.2h14.3V109.9h34.7v14.9h14.3Zm105.8,12.3h17.5L300,74.5l21.8-30.2H306.2L284.4,74.5V44.4H269v65.4h15.5V77.6ZM232.8,55.3c7.7,0,10,6.4,10,14.6v1.3H221.2C221.6,60.7,225.4,55.3,232.8,55.3ZM179.1,97.5H157.3c4.3-9.9,5.5-27.7,5.5-39V56.6h16.4V97.5Z" transform="translate(-7 -5)"/><path class="cls-3" d="M585.1,109.8h13l18.5-68.2v68.2h14.8V19.4H611L592.6,86,574.5,19.4H553.7v90.3h12.9V41.5Zm67.6,20.1c14.4,0,19.8-10.3,24.2-23.7l20.4-61.9h-15L667.9,93.4,653.5,44.3H637.3l22.5,68.2a8.93,8.93,0,0,1-8.5,5.1,9.59,9.59,0,0,1-7-2.6v12.6C644.3,127.7,646.6,129.9,652.7,129.9Zm67.1-31.1c-7.9,0-15.7-2.9-19.9-6v12.6c3,2.5,10.5,5.6,21.7,5.6,16.5,0,25.2-7.4,25.2-20.5,0-7.7-4.8-12.9-13.4-14.7,8.1-2.6,11.4-8.3,11.4-15.6,0-11.1-8.7-17.2-22.8-17.2-10.1,0-16.8,3.1-20.5,5.5V61.1c4.2-2.7,9.9-5.9,18.3-5.9,5.7,0,9.4,2.7,9.4,7.5,0,5.1-3.1,7.8-9.5,7.8h-9.8V82.2h9.8c7.9,0,11.1,2.3,11.1,8.1C730.9,95.6,727.1,98.8,719.8,98.8Zm37.5-54.4v65.4h23.5c15.2,0,26-7.8,26-23.1,0-14.6-9.6-22.2-25.7-22.2h-8.3v-20H757.3Zm55.2,0v65.4H828V44.4ZM779.9,97.5h-7.1V76.6h7.5c6.6,0,10.5,3,10.5,10.5S786.5,97.5,779.9,97.5Zm99.4,12.3h17.5L872,74.5l21.8-30.2H878.2L856.4,74.5V44.4H840.9v65.4h15.5V77.6Zm70.2-44.6c0-15.9-8.1-21.8-24.4-21.8a45.48,45.48,0,0,0-23,6V62.3c4.2-3.1,13.3-6.5,21.2-6.5,7.4,0,10.8,2.6,10.8,9.6V69h-2.5c-23.7,0-34.2,7.8-34.2,21.1s8.1,20.7,20,20.7c9.1,0,13-3,16-6.1h.6a19.85,19.85,0,0,0,1.2,5.2h15.1c-.5-5.3-.8-10.7-.8-16V65.2ZM934,94.2c-1.9,2.9-5.6,5.2-11,5.2-6.5,0-9.8-3.9-9.8-9.8,0-7.7,5.3-10.4,18.6-10.4H934Z" transform="translate(-7 -5)"/></svg>